<?xml version="1.0" encoding="utf-8"?>
<!-- Generator: Adobe Illustrator 18.1.1, SVG Export Plug-In . SVG Version: 6.00 Build 0)  -->
<!DOCTYPE svg PUBLIC "-//W3C//DTD SVG 1.1//EN" "http://www.w3.org/Graphics/SVG/1.1/DTD/svg11.dtd">
<svg version="1.1" id="Layer_1" xmlns="http://www.w3.org/2000/svg" xmlns:xlink="http://www.w3.org/1999/xlink" x="0px" y="0px"
	 viewBox="-16 402.4 114.1 44" enable-background="new -16 402.4 114.1 44" xml:space="preserve">
<g>
	<g>
		<path fill="#F9F9F9" d="M24.8,430.6c-1.6,2.3-4,4-6.7,4.8c-0.2,0.1-0.4,0.3-0.3,0.5l0.5,2.1l0.4,2.1c0.1,0.3,0.3,0.4,0.6,0.3
			c4.1-1.2,7.6-3.7,9.9-7.1c0.1-0.2,0.1-0.5-0.1-0.6l-1.8-1.1l-1.9-1.1C25.2,430.4,24.9,430.4,24.8,430.6z"/>
		<path fill="#F9F9F9" d="M5.5,417.1c0.2,0.1,0.5,0.1,0.6-0.1c1.3-1.8,3.2-3.1,5.4-3.7c0.2-0.1,0.4-0.1,0.7-0.2
			c0.2,0,0.4-0.1,0.7-0.1c0.5-0.1,1-0.1,1.5-0.1c5.7,0,10.3,4.6,10.3,10.3c0,1.5-0.3,3-0.9,4.3c-0.1,0.2,0,0.5,0.2,0.6l1.9,1.1
			l1.8,1.1c0.2,0.1,0.5,0,0.6-0.2c1-2.1,1.6-4.4,1.6-6.9c0-8.5-6.9-15.4-15.4-15.4c-0.9,0-1.8,0.1-2.6,0.2c-0.2,0-0.4,0.1-0.7,0.1
			c-0.2,0-0.4,0.1-0.7,0.2c-3.6,0.9-6.6,3.1-8.7,6.1c-0.2,0.2-0.1,0.5,0.1,0.6l1.8,1.1L5.5,417.1z"/>
	</g>
	<g>
		<path fill="#52EFB2" d="M16.1,436.2c-0.2,0.1-0.3,0.1-0.5,0.1l0.3,1.4c0.2-0.1,0.3-0.1,0.5-0.1L16.1,436.2z"/>
		<path fill="#52EFB2" d="M3.2,427.2L3.2,427.2c-0.2,0.1-0.4,0.3-0.5,0.5c-0.1,0.3-0.2,0.7,0,1c0,0,0,0,0,0.1l0,0
			c0.1,0.1,0.1,0.2,0.2,0.3c0,0,0.1,0.1,0.1,0.1c0,0,0,0,0,0l0,0c0.1,0.1,0.3,0.2,0.4,0.3l0,0c0.1,0,0.2,0.1,0.3,0.1
			c0,0,0.1,0,0.1,0c0.2,0,0.3,0,0.5-0.1c0,0,0,0,0,0c0,0,0,0,0,0c0.7-0.3,1-1,0.8-1.7c-0.1-0.2-0.1-0.3-0.3-0.4c0,0-0.1-0.1-0.1-0.1
			c-0.1-0.1-0.2-0.1-0.3-0.2c0,0-0.1,0-0.1-0.1c-0.1,0-0.2-0.1-0.3-0.1c0,0-0.1,0-0.1,0c-0.1,0-0.2,0-0.3,0c0,0,0,0,0,0
			c-0.1,0-0.1,0-0.2,0C3.4,427.1,3.3,427.1,3.2,427.2z"/>
		<path fill="#52EFB2" d="M11.9,434.6c0.5,0.1,1,0.1,1.5,0.2c0-0.1,0-0.3,0-0.4c0,0,0-0.1,0-0.1c-0.4,0-0.9-0.1-1.3-0.1
			c0,0.1,0,0.1,0,0.2C12,434.3,12,434.5,11.9,434.6z"/>
		<path fill="#52EFB2" d="M2.7,425c0.1,0.5,0.2,1,0.3,1.5c0.1,0,0.2-0.1,0.3-0.1c0.1,0,0.1,0,0.2-0.1c-0.1-0.5-0.2-0.9-0.3-1.4
			C3,425,2.9,425,2.7,425C2.7,425,2.7,425,2.7,425z"/>
		<path fill="#52EFB2" d="M8.2,433.1c0.1-0.2,0.1-0.3,0.2-0.5c-1.2-0.7-2.3-1.7-3.1-2.8c-0.1,0.1-0.3,0.2-0.4,0.3
			C5.7,431.3,6.8,432.4,8.2,433.1z"/>
		<path fill="#52EFB2" d="M2.8,420.9c0.1,0,0.1,0,0.2,0c0.1,0,0.2,0,0.3,0.1c0-0.1,0-0.2,0.1-0.3c-0.2,0-0.3-0.1-0.5-0.1
			C2.9,420.7,2.9,420.8,2.8,420.9z"/>
		<path fill="#52EFB2" d="M10,439.6L10,439.6C10,439.6,10,439.6,10,439.6c-0.1-0.1-0.2-0.1-0.3-0.1l0,0c-0.2-0.1-0.3-0.1-0.5-0.1
			l0,0c-0.1,0-0.1,0-0.2,0c0,0-0.1,0-0.1,0c-0.1,0-0.3,0.1-0.4,0.2c0,0,0,0-0.1,0c-0.1,0.1-0.3,0.2-0.3,0.3c-0.2,0.3-0.3,0.7-0.2,1
			c0,0.2,0.2,0.5,0.3,0.7c0.1,0.1,0.1,0.1,0.2,0.2c0.1,0.1,0.3,0.2,0.4,0.2c0,0,0.1,0,0.1,0c0.1,0,0.2,0,0.4,0c0,0,0.1,0,0.1,0
			c0.1,0,0.3-0.1,0.4-0.2c0,0,0,0,0.1,0c0.1-0.1,0.3-0.2,0.3-0.3c0.3-0.4,0.3-1,0.1-1.5C10.2,439.8,10.1,439.7,10,439.6z"/>
		<path fill="#52EFB2" d="M13.8,435.6l-3.3,3.5c0.1,0.1,0.2,0.2,0.3,0.4l3.4-3.5C14.1,435.8,13.9,435.7,13.8,435.6z"/>
		<path fill="#52EFB2" d="M10.1,435.1c0.1,0,0.3,0,0.4-0.1c0,0,0,0,0,0c0.1,0,0.2-0.1,0.3-0.2c0,0,0,0,0.1,0
			c0.1-0.1,0.2-0.2,0.3-0.3c0,0,0,0,0-0.1c0.1-0.1,0.1-0.2,0.2-0.4c0-0.1,0-0.2,0-0.3c0,0,0,0,0,0c0-0.1,0-0.3-0.1-0.4
			c0-0.1-0.1-0.2-0.1-0.3c-0.1-0.2-0.3-0.4-0.6-0.5c-0.1,0-0.2-0.1-0.3-0.1c0,0,0,0,0,0c-0.1,0-0.2,0-0.3,0c0,0,0,0-0.1,0
			c-0.1,0-0.3,0-0.4,0.1c0,0,0,0,0,0c-0.1,0-0.2,0.1-0.3,0.2c0,0,0,0-0.1,0c-0.1,0.1-0.2,0.2-0.3,0.3c0,0,0,0,0,0c0,0,0,0,0,0
			c-0.1,0.1-0.1,0.2-0.2,0.4c0,0.1,0,0.2,0,0.3c0,0.4,0.1,0.7,0.3,0.9c0.2,0.2,0.4,0.3,0.7,0.4C9.9,435.1,10,435.1,10.1,435.1z"/>
		<path fill="#52EFB2" d="M10.1,435.8C10.1,435.8,10.1,435.8,10.1,435.8c-0.2,0-0.4,0-0.5,0l-0.3,2.9c0.2,0,0.3,0,0.5,0.1
			L10.1,435.8z"/>
		<path fill="#52EFB2" d="M8.5,435L1.9,440c0.1,0.1,0.2,0.3,0.3,0.4l6.6-5.1C8.7,435.2,8.6,435.1,8.5,435z"/>
		<path fill="#52EFB2" d="M1.3,440.5L1.3,440.5C1.3,440.4,1.2,440.4,1.3,440.5c-0.2-0.2-0.4-0.3-0.5-0.3c0,0-0.1,0-0.1,0
			c-0.1,0-0.2,0-0.4,0c0,0-0.1,0-0.1,0c-0.1,0-0.3,0.1-0.4,0.2c0,0,0,0-0.1,0c-0.1,0.1-0.3,0.2-0.3,0.3c-0.2,0.3-0.3,0.7-0.2,1
			c0.1,0.3,0.2,0.7,0.5,0.9c0.1,0.1,0.3,0.2,0.4,0.2c0,0,0.1,0,0.1,0c0.1,0,0.2,0,0.4,0c0,0,0.1,0,0.1,0c0.1,0,0.3-0.1,0.4-0.2
			c0,0,0,0,0.1,0c0.1-0.1,0.3-0.2,0.3-0.3c0.1-0.1,0.2-0.3,0.2-0.5c0.1-0.3,0-0.7-0.2-1C1.5,440.6,1.4,440.6,1.3,440.5z"/>
		<path fill="#52EFB2" d="M8.1,434.3l-14.3,4.2c0.1,0.2,0.1,0.3,0.1,0.5l14.4-4.2c0,0,0,0,0,0C8.3,434.6,8.2,434.5,8.1,434.3z"/>
		<path fill="#52EFB2" d="M2.8,429.9l-0.8,2c0.2,0,0.3,0.1,0.5,0.2l0.8-2C3.1,430.1,3,430,2.8,429.9z"/>
		<path fill="#52EFB2" d="M-0.1,435.1c-0.1-0.1-0.2-0.3-0.3-0.4l-6.1,3.3c0.1,0.1,0.2,0.3,0.3,0.4L-0.1,435.1z"/>
		<path fill="#52EFB2" d="M-5.5,432.1c0,0.2,0,0.3-0.1,0.5l5.1,1c0-0.2,0.1-0.3,0.1-0.5L-5.5,432.1z"/>
		<path fill="#52EFB2" d="M-0.3,425.5l-2,1.7c0,0.2,0,0.5,0,0.7l3.8-3.3c-0.1-0.1-0.3-0.2-0.4-0.4c0,0,0-0.1,0-0.1l-3.7,2.2
			c0.1,0.1,0.2,0.3,0.2,0.4L-0.3,425.5z"/>
		<path fill="#52EFB2" d="M2.1,429C2,428.8,2,428.7,2,428.5l-7.7,2.6c0.1,0.2,0.1,0.3,0.2,0.5L2.1,429C2.1,429,2.1,429,2.1,429z"/>
		<path fill="#52EFB2" d="M1.9,419.6c-0.1-0.1-0.1-0.3-0.1-0.5c0,0,0,0,0,0l-8.8,2.7c0.1,0.2,0.1,0.3,0.2,0.5L1.9,419.6z"/>
		<path fill="#52EFB2" d="M0.7,422.7C0.7,422.7,0.7,422.7,0.7,422.7l-7.6-0.3c0,0.2,0,0.3,0,0.5l7.6,0.2
			C0.7,423,0.7,422.8,0.7,422.7z"/>
		<path fill="#52EFB2" d="M1.8,418.2l-2-0.3c0,0.2,0,0.3-0.1,0.5l2,0.3C1.7,418.6,1.7,418.4,1.8,418.2z"/>
		<path fill="#52EFB2" d="M-5.9,430.9l1.7-1.5c0,0-0.1,0-0.1,0c-0.2,0-0.4,0-0.5-0.1l-1.3,1.1C-6.1,430.6-5.9,430.8-5.9,430.9z"/>
		<path fill="#52EFB2" d="M16.7,434.3c0-0.5-0.3-1-0.8-1.2c-0.2-0.1-0.3-0.1-0.5-0.1c-0.4,0-0.7,0.1-0.9,0.4
			c-0.2,0.2-0.4,0.6-0.4,0.9s0.1,0.7,0.4,0.9c0.1,0.1,0.2,0.1,0.2,0.2l0,0c0.2,0.1,0.4,0.2,0.7,0.2c0.2,0,0.4,0,0.5-0.1
			C16.4,435.4,16.7,434.9,16.7,434.3z"/>
		<path fill="#52EFB2" d="M1.8,423.9C1.9,424,2,424,2,424.1c0.1,0.1,0.3,0.1,0.5,0.2c0,0,0,0,0,0c0,0,0,0,0.1,0c0,0,0,0,0,0
			c0,0,0.1,0,0.1,0c0.2,0,0.3,0,0.4-0.1c0,0,0,0,0.1,0c0.1-0.1,0.2-0.1,0.3-0.2c0,0,0,0,0,0c0.1-0.1,0.2-0.2,0.3-0.3c0,0,0,0,0,0
			c0.1-0.1,0.1-0.3,0.1-0.4c0.1-0.7-0.4-1.4-1.1-1.5c-0.1,0-0.1,0-0.2,0c0,0,0,0,0,0c0,0,0,0,0,0c0,0,0,0,0,0c-0.1,0-0.3,0-0.4,0.1
			c0,0,0,0-0.1,0c-0.1,0.1-0.2,0.1-0.3,0.2c0,0,0,0,0,0c-0.1,0.1-0.2,0.2-0.3,0.3c0,0,0,0,0,0c-0.1,0.1-0.1,0.3-0.1,0.4
			c0,0.3,0,0.5,0.1,0.8C1.6,423.7,1.7,423.8,1.8,423.9z"/>
		<path fill="#52EFB2" d="M3,419.8c0,0,0.1,0,0.2,0.1c0,0,0,0,0,0c0.2,0.1,0.3,0.1,0.5,0.2c0,0,0,0,0,0c0.1,0,0.2,0,0.3,0
			c0,0,0.1,0,0.1,0c0.1,0,0.3-0.1,0.4-0.2c0,0,0,0,0.1,0c0.1-0.1,0.3-0.2,0.3-0.3c0.4-0.6,0.3-1.4-0.3-1.9c-0.1-0.1-0.2-0.1-0.3-0.2
			c0,0,0,0,0,0c0,0-0.1,0-0.1,0c0,0-0.1,0-0.1,0c-0.1,0-0.2,0-0.4,0c0,0-0.1,0-0.1,0c-0.1,0-0.3,0.1-0.4,0.2c0,0,0,0-0.1,0
			c-0.1,0.1-0.3,0.2-0.3,0.3C2.2,418.6,2.4,419.4,3,419.8z"/>
		<path fill="#52EFB2" d="M-0.9,417.7c-0.1-0.3-0.2-0.7-0.5-0.9c-0.1-0.1-0.3-0.2-0.4-0.2c0,0-0.1,0-0.1,0c-0.1,0-0.2,0-0.4,0
			c0,0-0.1,0-0.1,0c-0.1,0-0.3,0.1-0.4,0.2c0,0,0,0-0.1,0c-0.1,0.1-0.3,0.2-0.4,0.3c-0.1,0.1-0.2,0.3-0.2,0.5c-0.1,0.3,0,0.7,0.2,1
			c0.1,0.1,0.2,0.3,0.4,0.4c0,0,0,0,0,0c0.1,0.1,0.3,0.2,0.4,0.2c0,0,0.1,0,0.1,0c0.1,0,0.2,0,0.4,0c0,0,0.1,0,0.1,0
			c0.1,0,0.3-0.1,0.4-0.2c0,0,0,0,0.1,0c0.1-0.1,0.3-0.2,0.3-0.3C-0.9,418.4-0.9,418.1-0.9,417.7z"/>
		<path fill="#52EFB2" d="M-8.1,421.5c-0.1-0.1-0.3-0.2-0.4-0.2c0,0-0.1,0-0.1,0c-0.1,0-0.2,0-0.4,0c0,0-0.1,0-0.1,0
			c-0.1,0-0.3,0.1-0.4,0.2c0,0,0,0-0.1,0c-0.1,0.1-0.3,0.2-0.3,0.3c-0.4,0.6-0.3,1.4,0.3,1.9c0.1,0.1,0.3,0.2,0.4,0.2
			c0,0,0.1,0,0.1,0c0.1,0,0.2,0,0.4,0c0,0,0.1,0,0.1,0c0.1,0,0.3-0.1,0.4-0.2c0,0,0,0,0.1,0c0.1-0.1,0.3-0.2,0.3-0.3
			C-7.4,422.8-7.5,421.9-8.1,421.5z"/>
		<path fill="#52EFB2" d="M-6.5,432.8c0.1-0.1,0.2-0.3,0.2-0.5c0.1-0.3,0-0.7-0.2-1c-0.1-0.1-0.2-0.2-0.3-0.4l0,0c0,0,0,0,0,0
			c-0.1-0.1-0.3-0.2-0.4-0.2c0,0-0.1,0-0.1,0c-0.1,0-0.2,0-0.4,0c0,0-0.1,0-0.1,0c-0.1,0-0.3,0.1-0.4,0.2c0,0,0,0-0.1,0
			c-0.1,0.1-0.3,0.2-0.3,0.3c-0.2,0.3-0.3,0.7-0.2,1c0.1,0.3,0.2,0.7,0.5,0.9c0.1,0.1,0.3,0.2,0.4,0.2c0,0,0.1,0,0.1,0
			c0.1,0,0.2,0,0.4,0c0,0,0.1,0,0.1,0c0.1,0,0.3-0.1,0.4-0.2c0,0,0,0,0.1,0C-6.7,433-6.6,432.9-6.5,432.8
			C-6.5,432.8-6.5,432.8-6.5,432.8z"/>
		<path fill="#52EFB2" d="M-5.1,428.5c0.1,0.1,0.3,0.2,0.4,0.2c0,0,0.1,0,0.1,0c0.1,0,0.2,0,0.4,0c0.4,0,0.7-0.2,0.9-0.5
			c0.4-0.6,0.3-1.4-0.3-1.9c-0.1-0.1-0.3-0.2-0.4-0.2c0,0-0.1,0-0.1,0c-0.1,0-0.2,0-0.4,0c0,0-0.1,0-0.1,0c-0.1,0-0.3,0.1-0.4,0.2
			c0,0,0,0-0.1,0c-0.1,0.1-0.3,0.2-0.4,0.3c-0.1,0.1-0.2,0.3-0.2,0.5c-0.1,0.3,0,0.7,0.2,1C-5.4,428.3-5.2,428.4-5.1,428.5
			C-5.1,428.5-5.1,428.5-5.1,428.5z"/>
		<path fill="#52EFB2" d="M0.7,434.9C0.7,434.9,0.7,434.9,0.7,434.9c0.1,0.1,0.3,0.2,0.4,0.2c0,0,0.1,0,0.1,0c0.1,0,0.2,0,0.4,0
			c0,0,0.1,0,0.1,0c0.1,0,0.3-0.1,0.4-0.2c0,0,0,0,0.1,0c0.1-0.1,0.3-0.2,0.3-0.3c0.2-0.3,0.3-0.7,0.2-1c-0.1-0.3-0.2-0.7-0.5-0.9
			c0,0,0,0,0,0l0,0c-0.2-0.1-0.4-0.2-0.6-0.2c-0.1,0-0.2,0-0.4,0c0,0-0.1,0-0.1,0c-0.1,0-0.3,0.1-0.4,0.2c0,0,0,0-0.1,0
			c-0.1,0.1-0.3,0.2-0.4,0.3c0,0.1-0.1,0.1-0.1,0.2l0,0c0,0.1-0.1,0.2-0.1,0.3c-0.1,0.3,0,0.7,0.2,1C0.4,434.7,0.5,434.8,0.7,434.9z
			"/>
		<path fill="#52EFB2" d="M-7.1,438.3L-7.1,438.3c0,0-0.1-0.1-0.1-0.1c-0.1-0.1-0.3-0.2-0.4-0.2c0,0-0.1,0-0.1,0c-0.1,0-0.2,0-0.4,0
			c0,0-0.1,0-0.1,0c-0.1,0-0.3,0.1-0.4,0.2c0,0,0,0-0.1,0c-0.1,0.1-0.3,0.2-0.4,0.3c-0.1,0.1-0.2,0.3-0.2,0.5c-0.1,0.3,0,0.7,0.2,1
			c0.1,0.1,0.2,0.3,0.4,0.4c0,0,0,0,0,0c0.1,0.1,0.3,0.2,0.4,0.2c0,0,0.1,0,0.1,0c0.1,0,0.2,0,0.4,0c0,0,0.1,0,0.1,0
			c0.1,0,0.3-0.1,0.4-0.2c0,0,0,0,0.1,0c0.1-0.1,0.3-0.2,0.4-0.3C-6.5,439.5-6.6,438.8-7.1,438.3z"/>
		<path fill="#52EFB2" d="M16.9,438.3c0,0-0.1,0-0.1,0c-0.1,0-0.1,0-0.2,0l0,0c-0.2,0-0.3,0-0.5,0.1l0,0c-0.1,0-0.1,0-0.2,0.1
			c0,0,0,0-0.1,0c-0.1,0.1-0.3,0.2-0.4,0.3c-0.1,0.1-0.2,0.3-0.2,0.5c-0.1,0.3,0,0.7,0.2,1c0.1,0.1,0.2,0.3,0.4,0.4c0,0,0,0,0,0
			c0.1,0.1,0.3,0.2,0.4,0.2c0,0,0.1,0,0.1,0c0.1,0,0.2,0,0.4,0c0,0,0.1,0,0.1,0c0.1,0,0.3-0.1,0.4-0.2c0,0,0,0,0.1,0
			c0.1-0.1,0.3-0.2,0.3-0.3c0.2-0.3,0.3-0.7,0.2-1c-0.1-0.3-0.2-0.7-0.5-0.9C17.2,438.4,17,438.4,16.9,438.3z"/>
	</g>
</g>
<g>
	<path fill="#F9F9F9" d="M77.8,432v-1.7h1.7v1.7H77.8z"/>
	<path fill="#F9F9F9" d="M85.7,432.1c-1.8,0-3.3-0.5-4.3-1.5l0.7-0.7c0.8,0.8,1.9,1.2,3.5,1.2c2,0,3.2-0.7,3.2-2.2
		c0-1.1-0.6-1.7-1.9-1.8l-1.8-0.1c-2-0.2-3.2-1.1-3.2-2.8c0-1.8,1.4-3.1,3.8-3.1c1.4,0,2.9,0.4,3.8,1.1l-0.7,0.7
		c-0.8-0.6-1.8-0.9-3-0.9c-1.8,0-2.8,0.7-2.8,2c0,1.1,0.6,1.7,2.2,1.8l1.7,0.1c1.8,0.1,3.2,0.7,3.2,2.8
		C90,431,88.4,432.1,85.7,432.1z"/>
</g>
<g>
	<path fill="#F9F9F9" d="M43.2,432h-1l-5.2-15.8h1.2l4.5,13.8l4.5-13.8h1.2L43.2,432z"/>
	<path fill="#F9F9F9" d="M59.6,432l-1.4-3.9h-7.4l-1.4,3.9h-1.3l5.9-15.8h1l5.8,15.8H59.6z M54.5,417.8l-3.4,9.3h6.6L54.5,417.8z"/>
	<path fill="#F9F9F9" d="M73.1,432l-3.8-7.3H65v7.4h-1.2v-15.9h6c2.6,0,4.6,1.5,4.6,4.3c0,2.4-1.4,3.9-3.7,4.3l3.8,7.4L73.1,432
		L73.1,432z M69.7,417.2H65v6.4h4.7c2,0,3.5-1,3.5-3.2C73.1,418.2,71.7,417.2,69.7,417.2z"/>
</g>
</svg>
