<?xml version="1.0" encoding="utf-8"?>
<!-- Generator: Adobe Illustrator 18.1.1, SVG Export Plug-In . SVG Version: 6.00 Build 0)  -->
<svg version="1.1" xmlns="http://www.w3.org/2000/svg" xmlns:xlink="http://www.w3.org/1999/xlink" x="0px" y="0px"
	 viewBox="0 0 45 45" enable-background="new 0 0 45 45" xml:space="preserve">
<symbol  id="close" viewBox="-7 -6.7 14 13.4">
	<line fill="none" stroke="#FFFFFF" stroke-width="0.5" stroke-miterlimit="10" x1="6.5" y1="-6.5" x2="-6.5" y2="6.5"/>
	<line fill="none" stroke="#FFFFFF" stroke-width="0.5" stroke-miterlimit="10" x1="6.5" y1="6.5" x2="-6.5" y2="-6.5"/>
	<polygon display="none" fill="none" points="-7,6 7,6 7,-6 -7,-6 	"/>
</symbol>
<symbol  id="expand" viewBox="-11 -11 22 22">
	<polygon fill="none" stroke="#ECECEC" stroke-miterlimit="10" points="-10.5,10.5 10.5,10.5 10.5,-10.5 -10.5,-10.5 	"/>
	<polyline fill="none" stroke="#ECECEC" stroke-miterlimit="10" points="7.5,-4 7.5,-7.5 4,-7.5 	"/>
	<polyline fill="none" stroke="#ECECEC" stroke-miterlimit="10" points="-4,7.5 -7.5,7.5 -7.5,4 	"/>
	<polyline fill="none" stroke="#ECECEC" stroke-miterlimit="10" points="7.5,4 7.5,7.5 4,7.5 	"/>
	<polyline fill="none" stroke="#ECECEC" stroke-miterlimit="10" points="-4,-7.5 -7.5,-7.5 -7.5,-4 	"/>
	<line fill="none" stroke="#ECECEC" stroke-miterlimit="10" x1="7" y1="-7" x2="3" y2="-3"/>
	<line fill="none" stroke="#ECECEC" stroke-miterlimit="10" x1="-7" y1="7" x2="-3" y2="3"/>
	<line fill="none" stroke="#ECECEC" stroke-miterlimit="10" x1="7" y1="7" x2="3" y2="3"/>
	<line fill="none" stroke="#ECECEC" stroke-miterlimit="10" x1="-7" y1="-7" x2="-3" y2="-3"/>
	<polygon display="none" fill="none" points="-11,11 11,11 11,-11 -11,-11 	"/>
</symbol>
<symbol  id="save" viewBox="-11 -11 22 22">
	<polygon fill="none" stroke="#ECECEC" stroke-miterlimit="10" points="10.5,-10.5 -10.5,-10.5 -10.5,10.5 10.5,10.5 	"/>
	<polygon fill="none" stroke="#ECECEC" stroke-miterlimit="10" points="-3.5,5.5 -5.5,5.5 -5.5,-5.5 5.5,-5.5 5.5,3 3,5.5 1.5,5.5 
		1.5,2.5 -3.5,2.5 	"/>
	<line fill="none" stroke="#ECECEC" stroke-miterlimit="10" x1="-0.5" y1="6" x2="-0.5" y2="4"/>
	<polygon display="none" fill="none" points="-11,11 11,11 11,-11 -11,-11 	"/>
</symbol>
<symbol  id="share" viewBox="-11 -11 22 22">
	<polygon fill="none" stroke="#FFFFFF" stroke-miterlimit="10" points="10.5,-10.5 -10.5,-10.5 -10.5,10.5 10.5,10.5 	"/>
	<path fill="none" stroke="#FFFFFF" stroke-miterlimit="10" d="M-4.4,0c0-1-0.8-1.8-1.8-1.8S-8-1-8,0s0.8,1.8,1.8,1.8S-4.4,1-4.4,0z
		"/>
	<path fill="none" stroke="#FFFFFF" stroke-miterlimit="10" d="M7.6,6c0-1-0.8-1.8-1.8-1.8S4,5,4,6s0.8,1.8,1.8,1.8S7.6,7,7.6,6z"/>
	<path fill="none" stroke="#FFFFFF" stroke-miterlimit="10" d="M7.6-6c0-1-0.8-1.8-1.8-1.8S4-7,4-6s0.8,1.8,1.8,1.8S7.6-5,7.6-6z"/>
	<line fill="none" stroke="#FFFFFF" stroke-miterlimit="10" x1="4.3" y1="-5" x2="-4.7" y2="-0.9"/>
	<line fill="none" stroke="#FFFFFF" stroke-miterlimit="10" x1="-4.8" y1="1.1" x2="4.2" y2="5.2"/>
</symbol>
<symbol  id="view" viewBox="-11 -11 22 22">
	<polygon fill="none" stroke="#ECECEC" stroke-miterlimit="10" points="-10.5,10.5 10.5,10.5 10.5,-10.5 -10.5,-10.5 	"/>
	<polygon fill="none" stroke="#ECECEC" stroke-miterlimit="10" points="-4.5,4.5 -7.5,4.5 -7.5,7.5 -4.5,7.5 	"/>
	<polygon fill="none" stroke="#ECECEC" stroke-miterlimit="10" points="1.5,4.5 -1.5,4.5 -1.5,7.5 1.5,7.5 	"/>
	<polygon fill="none" stroke="#ECECEC" stroke-miterlimit="10" points="7.5,4.5 4.5,4.5 4.5,7.5 7.5,7.5 	"/>
	<polygon fill="none" stroke="#ECECEC" stroke-miterlimit="10" points="-4.5,-1.5 -7.5,-1.5 -7.5,1.5 -4.5,1.5 	"/>
	<polygon fill="none" stroke="#ECECEC" stroke-miterlimit="10" points="1.5,-1.5 -1.5,-1.5 -1.5,1.5 1.5,1.5 	"/>
	<polygon fill="none" stroke="#ECECEC" stroke-miterlimit="10" points="7.5,-1.5 4.5,-1.5 4.5,1.5 7.5,1.5 	"/>
	<polygon fill="none" stroke="#ECECEC" stroke-miterlimit="10" points="-4.5,-7.5 -7.5,-7.5 -7.5,-4.5 -4.5,-4.5 	"/>
	<polygon fill="none" stroke="#ECECEC" stroke-miterlimit="10" points="1.5,-7.5 -1.5,-7.5 -1.5,-4.5 1.5,-4.5 	"/>
	<polygon fill="none" stroke="#ECECEC" stroke-miterlimit="10" points="7.5,-7.5 4.5,-7.5 4.5,-4.5 7.5,-4.5 	"/>
	<polygon display="none" fill="none" points="-11,11 11,11 11,-11 -11,-11 	"/>
</symbol>
<g id="Background">
</g>
<g id="grid">
</g>
<g id="_x31_st_ime_UX">
</g>
<g id="profile_pics">
	<g>
		<path fill="#FFFFFF" d="M14.1,19c0,3.8,2.8,6.8,6.4,6.8h0c3.6,0,6.3-3,6.3-7l0-1c0,0,0,0,0,0c1.3-8.4-3.1-9.1-6.6-9.8
			c-0.8-0.1-1.6-0.3-2.2-0.5c0,0-0.2,0-0.2,0c-0.4,0-0.6,0.3-0.8,0.8c-0.3,0.5-0.7,1.2-1.5,1.8c-1.6,1.2-2.6,3.7-1.4,6.7V19z
			 M15.9,10.5c0.9-0.7,1.4-1.5,1.7-2c0.1-0.2,0.2-0.3,0.3-0.4c0.7,0.2,1.5,0.4,2.3,0.5c2.6,0.5,5.5,1,6.1,4.7
			c-0.4-0.7-1-1.3-1.8-1.6c-0.6-0.1-1.7,0-2.7,0.1c-0.7,0.1-1.4,0.1-2,0.1c-0.3,0-0.7-0.2-1.1-0.3c-0.5-0.2-1.1-0.5-1.8-0.4
			c0,0-0.1,0-0.1,0C15.4,12,14.6,13,14.3,14C14.3,12.4,15,11.2,15.9,10.5z M20.5,25.1c-3.2,0-5.7-2.7-5.7-6.1v-2.3c0,0,0-0.1,0-0.1
			c0,0,0,0,0-0.1v-1c0-0.4,0-0.8,0.1-1.2c0.3-0.8,0.9-1.7,2.2-2.3c0.5,0,0.9,0.2,1.4,0.4c0.4,0.2,0.9,0.4,1.3,0.4
			c0.6,0,1.3-0.1,2-0.1c0.7-0.1,1.5-0.1,2-0.1c0.2,0,0.4,0,0.4,0c1.3,0.4,1.8,1.9,1.9,3.2l-0.1,3.1C26.1,22.4,23.8,25.1,20.5,25.1
			L20.5,25.1z"/>
		<path fill="#FFFFFF" d="M20.5,26.8c-5,0-9.4,4-9.9,9.2c0,0.3,0.1,0.7,0.3,1c0.2,0.2,0.4,0.3,0.6,0.3h18c0.2,0,0.4-0.1,0.6-0.3
			c0.2-0.3,0.4-0.7,0.3-1C29.9,30.9,25.5,26.8,20.5,26.8z M29.5,36.6l-18,0c-0.1,0-0.2-0.3-0.2-0.5c0.5-4.8,4.6-8.6,9.2-8.6
			s8.7,3.8,9.2,8.6C29.7,36.3,29.6,36.5,29.5,36.6z"/>
		<path fill="#FFFFFF" d="M22.2,21h-3.3c-0.3,0-0.6,0.1-0.7,0.3c-0.1,0.2-0.1,0.4-0.1,0.6c0.2,0.6,0.9,1.6,2.4,1.6
			c1.6,0,2.2-1,2.4-1.6c0.1-0.2,0.1-0.4-0.1-0.6C22.7,21.1,22.5,21,22.2,21z M18.7,21.7c0,0,0.1,0,0.2,0h3.3c0.1,0,0.1,0,0.1,0
			c-0.2,0.5-0.7,1.1-1.8,1.1C19.4,22.8,18.9,22.2,18.7,21.7z"/>
	</g>
</g>
<g id="create-Viz">
</g>
<g id="graph">
</g>
<g id="data_panel">
</g>
<g id="archive_panel">
</g>
<g id="appearance-panel">
</g>
<g id="cursors">
</g>
</svg>
