<?xml version="1.0" encoding="utf-8"?>
<!-- Generator: Adobe Illustrator 18.1.1, SVG Export Plug-In . SVG Version: 6.00 Build 0)  -->
<svg version="1.1" xmlns="http://www.w3.org/2000/svg" xmlns:xlink="http://www.w3.org/1999/xlink" x="0px" y="0px"
	 viewBox="0 0 45 45" enable-background="new 0 0 45 45" xml:space="preserve">
<symbol  id="close" viewBox="-7 -6.7 14 13.4">
	<line fill="none" stroke="#FFFFFF" stroke-width="0.5" stroke-miterlimit="10" x1="6.5" y1="-6.5" x2="-6.5" y2="6.5"/>
	<line fill="none" stroke="#FFFFFF" stroke-width="0.5" stroke-miterlimit="10" x1="6.5" y1="6.5" x2="-6.5" y2="-6.5"/>
	<polygon display="none" fill="none" points="-7,6 7,6 7,-6 -7,-6 	"/>
</symbol>
<symbol  id="expand" viewBox="-11 -11 22 22">
	<polygon fill="none" stroke="#ECECEC" stroke-miterlimit="10" points="-10.5,10.5 10.5,10.5 10.5,-10.5 -10.5,-10.5 	"/>
	<polyline fill="none" stroke="#ECECEC" stroke-miterlimit="10" points="7.5,-4 7.5,-7.5 4,-7.5 	"/>
	<polyline fill="none" stroke="#ECECEC" stroke-miterlimit="10" points="-4,7.5 -7.5,7.5 -7.5,4 	"/>
	<polyline fill="none" stroke="#ECECEC" stroke-miterlimit="10" points="7.5,4 7.5,7.5 4,7.5 	"/>
	<polyline fill="none" stroke="#ECECEC" stroke-miterlimit="10" points="-4,-7.5 -7.5,-7.5 -7.5,-4 	"/>
	<line fill="none" stroke="#ECECEC" stroke-miterlimit="10" x1="7" y1="-7" x2="3" y2="-3"/>
	<line fill="none" stroke="#ECECEC" stroke-miterlimit="10" x1="-7" y1="7" x2="-3" y2="3"/>
	<line fill="none" stroke="#ECECEC" stroke-miterlimit="10" x1="7" y1="7" x2="3" y2="3"/>
	<line fill="none" stroke="#ECECEC" stroke-miterlimit="10" x1="-7" y1="-7" x2="-3" y2="-3"/>
	<polygon display="none" fill="none" points="-11,11 11,11 11,-11 -11,-11 	"/>
</symbol>
<symbol  id="save" viewBox="-11 -11 22 22">
	<polygon fill="none" stroke="#ECECEC" stroke-miterlimit="10" points="10.5,-10.5 -10.5,-10.5 -10.5,10.5 10.5,10.5 	"/>
	<polygon fill="none" stroke="#ECECEC" stroke-miterlimit="10" points="-3.5,5.5 -5.5,5.5 -5.5,-5.5 5.5,-5.5 5.5,3 3,5.5 1.5,5.5 
		1.5,2.5 -3.5,2.5 	"/>
	<line fill="none" stroke="#ECECEC" stroke-miterlimit="10" x1="-0.5" y1="6" x2="-0.5" y2="4"/>
	<polygon display="none" fill="none" points="-11,11 11,11 11,-11 -11,-11 	"/>
</symbol>
<symbol  id="share" viewBox="-11 -11 22 22">
	<polygon fill="none" stroke="#FFFFFF" stroke-miterlimit="10" points="10.5,-10.5 -10.5,-10.5 -10.5,10.5 10.5,10.5 	"/>
	<path fill="none" stroke="#FFFFFF" stroke-miterlimit="10" d="M-4.4,0c0-1-0.8-1.8-1.8-1.8S-8-1-8,0s0.8,1.8,1.8,1.8S-4.4,1-4.4,0z
		"/>
	<path fill="none" stroke="#FFFFFF" stroke-miterlimit="10" d="M7.6,6c0-1-0.8-1.8-1.8-1.8S4,5,4,6s0.8,1.8,1.8,1.8S7.6,7,7.6,6z"/>
	<path fill="none" stroke="#FFFFFF" stroke-miterlimit="10" d="M7.6-6c0-1-0.8-1.8-1.8-1.8S4-7,4-6s0.8,1.8,1.8,1.8S7.6-5,7.6-6z"/>
	<line fill="none" stroke="#FFFFFF" stroke-miterlimit="10" x1="4.3" y1="-5" x2="-4.7" y2="-0.9"/>
	<line fill="none" stroke="#FFFFFF" stroke-miterlimit="10" x1="-4.8" y1="1.1" x2="4.2" y2="5.2"/>
</symbol>
<symbol  id="view" viewBox="-11 -11 22 22">
	<polygon fill="none" stroke="#ECECEC" stroke-miterlimit="10" points="-10.5,10.5 10.5,10.5 10.5,-10.5 -10.5,-10.5 	"/>
	<polygon fill="none" stroke="#ECECEC" stroke-miterlimit="10" points="-4.5,4.5 -7.5,4.5 -7.5,7.5 -4.5,7.5 	"/>
	<polygon fill="none" stroke="#ECECEC" stroke-miterlimit="10" points="1.5,4.5 -1.5,4.5 -1.5,7.5 1.5,7.5 	"/>
	<polygon fill="none" stroke="#ECECEC" stroke-miterlimit="10" points="7.5,4.5 4.5,4.5 4.5,7.5 7.5,7.5 	"/>
	<polygon fill="none" stroke="#ECECEC" stroke-miterlimit="10" points="-4.5,-1.5 -7.5,-1.5 -7.5,1.5 -4.5,1.5 	"/>
	<polygon fill="none" stroke="#ECECEC" stroke-miterlimit="10" points="1.5,-1.5 -1.5,-1.5 -1.5,1.5 1.5,1.5 	"/>
	<polygon fill="none" stroke="#ECECEC" stroke-miterlimit="10" points="7.5,-1.5 4.5,-1.5 4.5,1.5 7.5,1.5 	"/>
	<polygon fill="none" stroke="#ECECEC" stroke-miterlimit="10" points="-4.5,-7.5 -7.5,-7.5 -7.5,-4.5 -4.5,-4.5 	"/>
	<polygon fill="none" stroke="#ECECEC" stroke-miterlimit="10" points="1.5,-7.5 -1.5,-7.5 -1.5,-4.5 1.5,-4.5 	"/>
	<polygon fill="none" stroke="#ECECEC" stroke-miterlimit="10" points="7.5,-7.5 4.5,-7.5 4.5,-4.5 7.5,-4.5 	"/>
	<polygon display="none" fill="none" points="-11,11 11,11 11,-11 -11,-11 	"/>
</symbol>
<g id="Background">
</g>
<g id="grid">
</g>
<g id="_x31_st_ime_UX">
</g>
<g id="profile_pics">
	<g>
		<path fill="#FFFFFF" d="M29.3,14.6c0.4-1.6,0.4-5.2-1.6-6c-1.1-1.6-2.8-2.5-4.8-2.5c-2.5,0-5,1.4-6.2,3.6
			c-0.7,1.3-0.8,2.7-0.8,4.7c0,0,0,0,0,0c0,0.1,0,0.1,0,0.2c0,1.1,0.1,6.6,0.1,6.9c0,0,0,0.1,0.1,0.1c0.4,3.7,3.2,6.4,6.6,6.4
			c3.5,0,6.2-2.8,6.5-6.6c0,0,0,0,0,0c0-0.2,0-0.5,0-0.7L29.3,14.6z M22.7,27.3c-2.9,0-5.3-2.3-5.8-5.5c0.3,0,0.6,0.1,0.9,0.1
			c0.6,0,1.7-0.1,2.3-0.8c0.6-0.7,1.6-1.1,2.6-1.1c1,0,2,0.4,2.6,1.1c0.4,0.5,1.2,0.8,2.3,0.8c0.3,0,0.7,0,1-0.1
			C28,25,25.6,27.3,22.7,27.3z M27.2,9.1c0,0.1,0.1,0.1,0.2,0.1c1.5,0.5,1.6,3.2,1.3,4.8c-0.5-0.8-1.1-2.3-1.5-4
			c0-0.1-0.1-0.2-0.2-0.3c-0.3-0.1-0.5-0.1-0.8-0.1c-1,0-1.9,0.5-2.8,1c-0.9,0.5-1.8,1-2.7,1c-0.9,0-1.9-0.5-2.9-1.4
			c-0.1-0.1-0.2-0.1-0.3-0.1c-0.1,0-0.2,0.1-0.2,0.2c-0.3,0.6-0.4,1.1-0.5,1.6c0.1-0.8,0.3-1.4,0.6-2.1c1-1.9,3.2-3.2,5.5-3.2
			C24.7,6.8,26.2,7.6,27.2,9.1z M16.6,14.5c0,0,0-0.1,0-0.1c0.4-0.7,0.6-1.4,0.7-2.1c0.1-0.4,0.2-0.8,0.3-1.1c1,0.8,2,1.2,3,1.2
			c0,0,0,0,0,0c1.2,0,2.2-0.6,3.1-1.1c1-0.6,1.9-1.1,2.8-0.9c0.2,0.9,1.1,3.7,2,4.5l0,5.7c0,0.2,0,0.3,0,0.5c-0.3,0.1-0.7,0.1-1,0.1
			c-0.8,0-1.4-0.2-1.7-0.5c-0.7-0.8-1.9-1.3-3.1-1.3c-1.2,0-2.4,0.5-3.1,1.3c-0.3,0.3-1,0.5-1.8,0.5c-0.3,0-0.7,0-1-0.1
			C16.7,20.1,16.7,16.8,16.6,14.5z"/>
		<path fill="#FFFFFF" d="M31.5,39c0.3,0,0.5-0.1,0.7-0.3c0.2-0.2,0.2-0.4,0.2-0.6c-0.5-5.1-4.8-8.9-9.9-8.9S13.1,33,12.6,38
			c0,0.2,0,0.5,0.2,0.6c0.2,0.2,0.4,0.3,0.7,0.3H31.5z M31.7,38.2c0,0-0.1,0.1-0.2,0.1h-18c-0.1,0-0.2,0-0.2-0.1
			c0.5-4.7,4.5-8.2,9.2-8.2S31.3,33.4,31.7,38.2z"/>
		<path fill="#FFFFFF" d="M24.5,21.3h-3.6c-0.3,0-0.6,0.1-0.8,0.4c-0.1,0.2-0.1,0.4-0.1,0.6c0.3,0.6,1,1.6,2.6,1.6
			c1.7,0,2.4-1,2.6-1.6c0.1-0.2,0.1-0.4-0.1-0.6C25.1,21.5,24.8,21.3,24.5,21.3z M22.7,23.2c-1.2,0-1.8-0.7-2-1.2
			c0,0,0.1-0.1,0.2-0.1h3.6c0.1,0,0.2,0,0.2,0C24.5,22.6,23.9,23.2,22.7,23.2z"/>
	</g>
</g>
<g id="create-Viz">
</g>
<g id="graph">
</g>
<g id="data_panel">
</g>
<g id="archive_panel">
</g>
<g id="appearance-panel">
</g>
<g id="cursors">
</g>
</svg>
