<?xml version="1.0" encoding="utf-8"?>
<!-- Generator: Adobe Illustrator 18.1.1, SVG Export Plug-In . SVG Version: 6.00 Build 0)  -->
<svg version="1.1" xmlns="http://www.w3.org/2000/svg" xmlns:xlink="http://www.w3.org/1999/xlink" x="0px" y="0px"
	 viewBox="0 0 45 45" enable-background="new 0 0 45 45" xml:space="preserve">
<symbol  id="close" viewBox="-7 -6.7 14 13.4">
	<line fill="none" stroke="#FFFFFF" stroke-width="0.5" stroke-miterlimit="10" x1="6.5" y1="-6.5" x2="-6.5" y2="6.5"/>
	<line fill="none" stroke="#FFFFFF" stroke-width="0.5" stroke-miterlimit="10" x1="6.5" y1="6.5" x2="-6.5" y2="-6.5"/>
	<polygon display="none" fill="none" points="-7,6 7,6 7,-6 -7,-6 	"/>
</symbol>
<symbol  id="expand" viewBox="-11 -11 22 22">
	<polygon fill="none" stroke="#ECECEC" stroke-miterlimit="10" points="-10.5,10.5 10.5,10.5 10.5,-10.5 -10.5,-10.5 	"/>
	<polyline fill="none" stroke="#ECECEC" stroke-miterlimit="10" points="7.5,-4 7.5,-7.5 4,-7.5 	"/>
	<polyline fill="none" stroke="#ECECEC" stroke-miterlimit="10" points="-4,7.5 -7.5,7.5 -7.5,4 	"/>
	<polyline fill="none" stroke="#ECECEC" stroke-miterlimit="10" points="7.5,4 7.5,7.5 4,7.5 	"/>
	<polyline fill="none" stroke="#ECECEC" stroke-miterlimit="10" points="-4,-7.5 -7.5,-7.5 -7.5,-4 	"/>
	<line fill="none" stroke="#ECECEC" stroke-miterlimit="10" x1="7" y1="-7" x2="3" y2="-3"/>
	<line fill="none" stroke="#ECECEC" stroke-miterlimit="10" x1="-7" y1="7" x2="-3" y2="3"/>
	<line fill="none" stroke="#ECECEC" stroke-miterlimit="10" x1="7" y1="7" x2="3" y2="3"/>
	<line fill="none" stroke="#ECECEC" stroke-miterlimit="10" x1="-7" y1="-7" x2="-3" y2="-3"/>
	<polygon display="none" fill="none" points="-11,11 11,11 11,-11 -11,-11 	"/>
</symbol>
<symbol  id="save" viewBox="-11 -11 22 22">
	<polygon fill="none" stroke="#ECECEC" stroke-miterlimit="10" points="10.5,-10.5 -10.5,-10.5 -10.5,10.5 10.5,10.5 	"/>
	<polygon fill="none" stroke="#ECECEC" stroke-miterlimit="10" points="-3.5,5.5 -5.5,5.5 -5.5,-5.5 5.5,-5.5 5.5,3 3,5.5 1.5,5.5 
		1.5,2.5 -3.5,2.5 	"/>
	<line fill="none" stroke="#ECECEC" stroke-miterlimit="10" x1="-0.5" y1="6" x2="-0.5" y2="4"/>
	<polygon display="none" fill="none" points="-11,11 11,11 11,-11 -11,-11 	"/>
</symbol>
<symbol  id="share" viewBox="-11 -11 22 22">
	<polygon fill="none" stroke="#FFFFFF" stroke-miterlimit="10" points="10.5,-10.5 -10.5,-10.5 -10.5,10.5 10.5,10.5 	"/>
	<path fill="none" stroke="#FFFFFF" stroke-miterlimit="10" d="M-4.4,0c0-1-0.8-1.8-1.8-1.8S-8-1-8,0s0.8,1.8,1.8,1.8S-4.4,1-4.4,0z
		"/>
	<path fill="none" stroke="#FFFFFF" stroke-miterlimit="10" d="M7.6,6c0-1-0.8-1.8-1.8-1.8S4,5,4,6s0.8,1.8,1.8,1.8S7.6,7,7.6,6z"/>
	<path fill="none" stroke="#FFFFFF" stroke-miterlimit="10" d="M7.6-6c0-1-0.8-1.8-1.8-1.8S4-7,4-6s0.8,1.8,1.8,1.8S7.6-5,7.6-6z"/>
	<line fill="none" stroke="#FFFFFF" stroke-miterlimit="10" x1="4.3" y1="-5" x2="-4.7" y2="-0.9"/>
	<line fill="none" stroke="#FFFFFF" stroke-miterlimit="10" x1="-4.8" y1="1.1" x2="4.2" y2="5.2"/>
</symbol>
<symbol  id="view" viewBox="-11 -11 22 22">
	<polygon fill="none" stroke="#ECECEC" stroke-miterlimit="10" points="-10.5,10.5 10.5,10.5 10.5,-10.5 -10.5,-10.5 	"/>
	<polygon fill="none" stroke="#ECECEC" stroke-miterlimit="10" points="-4.5,4.5 -7.5,4.5 -7.5,7.5 -4.5,7.5 	"/>
	<polygon fill="none" stroke="#ECECEC" stroke-miterlimit="10" points="1.5,4.5 -1.5,4.5 -1.5,7.5 1.5,7.5 	"/>
	<polygon fill="none" stroke="#ECECEC" stroke-miterlimit="10" points="7.5,4.5 4.5,4.5 4.5,7.5 7.5,7.5 	"/>
	<polygon fill="none" stroke="#ECECEC" stroke-miterlimit="10" points="-4.5,-1.5 -7.5,-1.5 -7.5,1.5 -4.5,1.5 	"/>
	<polygon fill="none" stroke="#ECECEC" stroke-miterlimit="10" points="1.5,-1.5 -1.5,-1.5 -1.5,1.5 1.5,1.5 	"/>
	<polygon fill="none" stroke="#ECECEC" stroke-miterlimit="10" points="7.5,-1.5 4.5,-1.5 4.5,1.5 7.5,1.5 	"/>
	<polygon fill="none" stroke="#ECECEC" stroke-miterlimit="10" points="-4.5,-7.5 -7.5,-7.5 -7.5,-4.5 -4.5,-4.5 	"/>
	<polygon fill="none" stroke="#ECECEC" stroke-miterlimit="10" points="1.5,-7.5 -1.5,-7.5 -1.5,-4.5 1.5,-4.5 	"/>
	<polygon fill="none" stroke="#ECECEC" stroke-miterlimit="10" points="7.5,-7.5 4.5,-7.5 4.5,-4.5 7.5,-4.5 	"/>
	<polygon display="none" fill="none" points="-11,11 11,11 11,-11 -11,-11 	"/>
</symbol>
<g id="Background">
</g>
<g id="grid">
</g>
<g id="_x31_st_ime_UX">
</g>
<g id="profile_pics">
	<g>
		<path fill="#FFFFFF" d="M29.9,15.9c0-3.7-3.4-6.8-7.5-6.8c-4.1,0-7.5,3.1-7.5,6.8c-0.1,1.4-0.2,6.1-0.2,6.5l0,0l0,0
			c0.6,3.4,3.9,6,7.6,6c3.9,0,6.9-2.5,7.5-6c0-0.1,0-0.1,0-0.2c0-0.2,0-0.5,0-0.7L29.9,15.9z M15.6,22.7c0.4,0,0.7,0.1,1.1,0.1
			c0.7,0,1.9-0.1,2.6-0.8c0.7-0.7,1.9-1.2,3.1-1.2c1.2,0,2.3,0.5,3.1,1.2c0.7,0.7,1.9,0.8,2.6,0.8c0.4,0,0.7,0,1.1-0.1
			c-0.7,2.9-3.4,4.9-6.7,4.9C19.1,27.6,16.3,25.6,15.6,22.7z M22.4,9.7c3.7,0,6.8,2.8,6.8,6.1l-0.1,5.6c0,0.2,0,0.3,0,0.5
			c-0.4,0.1-0.7,0.1-1.1,0.1c-1,0-1.7-0.2-2.1-0.6c-0.9-0.9-2.2-1.4-3.6-1.4c-1.4,0-2.7,0.5-3.6,1.4c-0.4,0.4-1.1,0.6-2.1,0.6
			c-0.4,0-0.8,0-1.2-0.1c0-0.9,0.1-4.1,0.2-6.1C15.6,12.5,18.7,9.7,22.4,9.7z"/>
		<path fill="#FFFFFF" d="M13.6,39h18c0.2,0,0.5-0.1,0.7-0.3c0.2-0.2,0.3-0.5,0.3-0.8c-0.5-5.1-4.8-9-9.9-9c-5.1,0-9.4,3.9-9.9,9
			c0,0.3,0.1,0.5,0.3,0.8C13.1,38.9,13.3,39,13.6,39z M31.8,38c0,0.1,0,0.2-0.1,0.2c0,0-0.1,0.1-0.1,0.1h-18c0,0-0.1,0-0.1-0.1
			c-0.1-0.1-0.1-0.1-0.1-0.2c0.5-4.8,4.5-8.4,9.2-8.4S31.3,33.2,31.8,38z"/>
		<path fill="#FFFFFF" d="M24.3,22.7h-3.6c-0.4,0-0.6,0.1-0.8,0.3c-0.1,0.2-0.1,0.4,0,0.6c0.3,0.6,0.9,1.6,2.6,1.6
			c1.7,0,2.4-1,2.6-1.5c0.1-0.2,0.1-0.4,0-0.6C24.9,22.8,24.7,22.7,24.3,22.7z M20.5,23.4c0,0,0.1,0,0.1,0h3.6c0.1,0,0.1,0,0.1,0
			c-0.2,0.5-0.8,1-2,1C21.3,24.4,20.8,23.9,20.5,23.4z"/>
		<path fill="#FFFFFF" d="M24.4,14.6l2.5,0.3c0,0,0.1,0,0.1,0c0.4,0,0.7-0.3,0.7-0.7c0-0.4-0.2-0.8-0.6-0.8l-2.6-0.3
			c-0.4,0-0.7,0.3-0.7,0.7C23.7,14.2,24,14.6,24.4,14.6z M26.9,14.2l-2.5-0.3L26.9,14.2C27,14.2,27,14.2,26.9,14.2z"/>
		<path fill="#FFFFFF" d="M18,14.9l2.6-0.3c0.4,0,0.7-0.4,0.6-0.8c0-0.4-0.3-0.7-0.8-0.6L18,13.4c-0.4,0-0.7,0.4-0.6,0.8
			C17.3,14.6,17.7,14.9,18,14.9z M18,14.1l2.5-0.2L18,14.1l0,0.4L18,14.1z"/>
	</g>
</g>
<g id="create-Viz">
</g>
<g id="graph">
</g>
<g id="data_panel">
</g>
<g id="archive_panel">
</g>
<g id="appearance-panel">
</g>
<g id="cursors">
</g>
</svg>
