<?xml version="1.0" encoding="utf-8"?>
<!-- Generator: Adobe Illustrator 18.1.1, SVG Export Plug-In . SVG Version: 6.00 Build 0)  -->
<svg version="1.1" xmlns="http://www.w3.org/2000/svg" xmlns:xlink="http://www.w3.org/1999/xlink" x="0px" y="0px"
	 viewBox="0 0 45 45" enable-background="new 0 0 45 45" xml:space="preserve">
<symbol  id="close" viewBox="-7 -6.7 14 13.4">
	<line fill="none" stroke="#FFFFFF" stroke-width="0.5" stroke-miterlimit="10" x1="6.5" y1="-6.5" x2="-6.5" y2="6.5"/>
	<line fill="none" stroke="#FFFFFF" stroke-width="0.5" stroke-miterlimit="10" x1="6.5" y1="6.5" x2="-6.5" y2="-6.5"/>
	<polygon display="none" fill="none" points="-7,6 7,6 7,-6 -7,-6 	"/>
</symbol>
<symbol  id="expand" viewBox="-11 -11 22 22">
	<polygon fill="none" stroke="#ECECEC" stroke-miterlimit="10" points="-10.5,10.5 10.5,10.5 10.5,-10.5 -10.5,-10.5 	"/>
	<polyline fill="none" stroke="#ECECEC" stroke-miterlimit="10" points="7.5,-4 7.5,-7.5 4,-7.5 	"/>
	<polyline fill="none" stroke="#ECECEC" stroke-miterlimit="10" points="-4,7.5 -7.5,7.5 -7.5,4 	"/>
	<polyline fill="none" stroke="#ECECEC" stroke-miterlimit="10" points="7.5,4 7.5,7.5 4,7.5 	"/>
	<polyline fill="none" stroke="#ECECEC" stroke-miterlimit="10" points="-4,-7.5 -7.5,-7.5 -7.5,-4 	"/>
	<line fill="none" stroke="#ECECEC" stroke-miterlimit="10" x1="7" y1="-7" x2="3" y2="-3"/>
	<line fill="none" stroke="#ECECEC" stroke-miterlimit="10" x1="-7" y1="7" x2="-3" y2="3"/>
	<line fill="none" stroke="#ECECEC" stroke-miterlimit="10" x1="7" y1="7" x2="3" y2="3"/>
	<line fill="none" stroke="#ECECEC" stroke-miterlimit="10" x1="-7" y1="-7" x2="-3" y2="-3"/>
	<polygon display="none" fill="none" points="-11,11 11,11 11,-11 -11,-11 	"/>
</symbol>
<symbol  id="save" viewBox="-11 -11 22 22">
	<polygon fill="none" stroke="#ECECEC" stroke-miterlimit="10" points="10.5,-10.5 -10.5,-10.5 -10.5,10.5 10.5,10.5 	"/>
	<polygon fill="none" stroke="#ECECEC" stroke-miterlimit="10" points="-3.5,5.5 -5.5,5.5 -5.5,-5.5 5.5,-5.5 5.5,3 3,5.5 1.5,5.5 
		1.5,2.5 -3.5,2.5 	"/>
	<line fill="none" stroke="#ECECEC" stroke-miterlimit="10" x1="-0.5" y1="6" x2="-0.5" y2="4"/>
	<polygon display="none" fill="none" points="-11,11 11,11 11,-11 -11,-11 	"/>
</symbol>
<symbol  id="share" viewBox="-11 -11 22 22">
	<polygon fill="none" stroke="#FFFFFF" stroke-miterlimit="10" points="10.5,-10.5 -10.5,-10.5 -10.5,10.5 10.5,10.5 	"/>
	<path fill="none" stroke="#FFFFFF" stroke-miterlimit="10" d="M-4.4,0c0-1-0.8-1.8-1.8-1.8S-8-1-8,0s0.8,1.8,1.8,1.8S-4.4,1-4.4,0z
		"/>
	<path fill="none" stroke="#FFFFFF" stroke-miterlimit="10" d="M7.6,6c0-1-0.8-1.8-1.8-1.8S4,5,4,6s0.8,1.8,1.8,1.8S7.6,7,7.6,6z"/>
	<path fill="none" stroke="#FFFFFF" stroke-miterlimit="10" d="M7.6-6c0-1-0.8-1.8-1.8-1.8S4-7,4-6s0.8,1.8,1.8,1.8S7.6-5,7.6-6z"/>
	<line fill="none" stroke="#FFFFFF" stroke-miterlimit="10" x1="4.3" y1="-5" x2="-4.7" y2="-0.9"/>
	<line fill="none" stroke="#FFFFFF" stroke-miterlimit="10" x1="-4.8" y1="1.1" x2="4.2" y2="5.2"/>
</symbol>
<symbol  id="view" viewBox="-11 -11 22 22">
	<polygon fill="none" stroke="#ECECEC" stroke-miterlimit="10" points="-10.5,10.5 10.5,10.5 10.5,-10.5 -10.5,-10.5 	"/>
	<polygon fill="none" stroke="#ECECEC" stroke-miterlimit="10" points="-4.5,4.5 -7.5,4.5 -7.5,7.5 -4.5,7.5 	"/>
	<polygon fill="none" stroke="#ECECEC" stroke-miterlimit="10" points="1.5,4.5 -1.5,4.5 -1.5,7.5 1.5,7.5 	"/>
	<polygon fill="none" stroke="#ECECEC" stroke-miterlimit="10" points="7.5,4.5 4.5,4.5 4.5,7.5 7.5,7.5 	"/>
	<polygon fill="none" stroke="#ECECEC" stroke-miterlimit="10" points="-4.5,-1.5 -7.5,-1.5 -7.5,1.5 -4.5,1.5 	"/>
	<polygon fill="none" stroke="#ECECEC" stroke-miterlimit="10" points="1.5,-1.5 -1.5,-1.5 -1.5,1.5 1.5,1.5 	"/>
	<polygon fill="none" stroke="#ECECEC" stroke-miterlimit="10" points="7.5,-1.5 4.5,-1.5 4.5,1.5 7.5,1.5 	"/>
	<polygon fill="none" stroke="#ECECEC" stroke-miterlimit="10" points="-4.5,-7.5 -7.5,-7.5 -7.5,-4.5 -4.5,-4.5 	"/>
	<polygon fill="none" stroke="#ECECEC" stroke-miterlimit="10" points="1.5,-7.5 -1.5,-7.5 -1.5,-4.5 1.5,-4.5 	"/>
	<polygon fill="none" stroke="#ECECEC" stroke-miterlimit="10" points="7.5,-7.5 4.5,-7.5 4.5,-4.5 7.5,-4.5 	"/>
	<polygon display="none" fill="none" points="-11,11 11,11 11,-11 -11,-11 	"/>
</symbol>
<g id="Background">
</g>
<g id="grid">
</g>
<g id="_x31_st_ime_UX">
</g>
<g id="profile_pics">
	<g>
		<path fill="#FFFFFF" d="M25.4,29.5c0.4-0.3,0.9-0.7,1.5-1.2c3.3-3.1,2.1-8.5,2.1-8.8c0,0,0,0,0,0l0-1.3c0-0.1,0-0.1,0-0.2
			c0-0.1,0-0.1,0-0.2l0-0.7c0.3-0.4,0.3-0.9,0.3-1.3c0-0.4,0-0.8,0.2-1.2c0.6-1.6,0-2.9-1-3.6c-0.2-0.1-0.2-0.5-0.3-0.9
			c-0.1-0.7-0.3-1.7-1.4-1.9c-0.9-0.2-1.2-0.5-1.6-0.9c-0.3-0.3-0.6-0.5-1-0.8c-0.7-0.3-1.4-0.1-1.9,0.2c-0.4,0.2-0.7,0.3-0.9,0.2
			C21,6.8,20,6.3,19.1,6.3c-0.6,0-1.1,0.2-1.4,0.6c-0.2,0.2-0.2,0.6-0.2,1c0,0.2,0,0.6-0.1,0.7c-0.6,0.2-0.9,0.6-1.2,0.9
			c-0.2,0.3-0.5,0.6-0.8,0.8C15,10.5,15,11.1,15,11.8c0,0.6,0.1,1.4-0.3,1.8C14.3,14.1,14.6,15,15,16c0,0.1,0.1,0.2,0.1,0.2v3.2
			c-0.5,2.1-0.4,5.2,2.8,8.7c0.4,0.4,0.9,0.9,1.4,1.3c-3.7,1.2-6.6,4.6-7,8.7c0,0.3,0.1,0.7,0.3,1c0.2,0.2,0.4,0.3,0.6,0.3h18
			c0.2,0,0.4-0.1,0.6-0.3c0.2-0.3,0.4-0.7,0.3-1C31.8,34.1,29,30.8,25.4,29.5z M31.3,38.7l-18,0c-0.1,0-0.2-0.3-0.2-0.5
			c0.4-4,3.3-7.3,6.9-8.3c1,0.8,2,1.5,2.6,1.5c0.3,0,0.4-0.1,0.5-0.2c0,0,0.1-0.1,0.1-0.2c0.1-0.4,0.3-0.5,0.8-0.8
			c0.2-0.1,0.4-0.2,0.6-0.3c3.6,1,6.4,4.3,6.8,8.2C31.5,38.4,31.4,38.7,31.3,38.7z M15.3,14c0.5-0.6,0.5-1.5,0.4-2.3
			c0-0.3,0-0.8,0-0.9c0.5-0.3,0.7-0.6,1-0.9c0.3-0.3,0.5-0.6,0.9-0.7c0.5-0.2,0.5-0.8,0.5-1.3c0-0.2,0-0.5,0-0.6
			C18.4,7.1,18.7,7,19.1,7c0.8,0,1.6,0.4,1.8,0.6c0.5,0.3,1.1,0.1,1.5-0.1c0.5-0.2,0.9-0.4,1.3-0.2c0.4,0.2,0.6,0.4,0.9,0.7
			c0.4,0.4,0.9,0.8,2,1.1c0.6,0.1,0.7,0.6,0.9,1.4c0.1,0.5,0.2,1,0.6,1.3c0.7,0.5,1.2,1.5,0.7,2.7c-0.2,0.5-0.2,1-0.2,1.4
			c0,0.1,0,0.2,0,0.3c-0.4-0.7-1-1.8-1.4-2.7c-0.5-1.2-1.1-1.3-1.6-1.5c-0.2-0.1-0.4-0.1-0.7-0.2c-0.2-0.1-0.4-0.2-0.6-0.4
			c-0.6-0.4-1.3-0.8-2-0.8c-0.3,0-0.7,0.1-1,0.1c-0.4,0.1-0.8,0.1-1.1,0.1c-0.2-0.1-0.4-0.1-0.6-0.1c-0.9,0-1.3,0.5-1.6,1
			c-0.2,0.3-0.3,0.5-0.6,0.7c-1,0.8-1.5,2.2-1.7,3.4c0,0,0-0.1,0-0.1C15.4,15.1,15.1,14.2,15.3,14z M28.3,17.7h-1c0,0-0.1,0-0.1,0
			c-0.3-0.8-1-1.4-1.9-1.4h-0.7c-0.7,0-1.3,0.4-1.7,0.9c-0.1-0.1-0.3-0.1-0.4-0.2c-0.3,0-0.6,0-0.9,0.2c-0.4-0.6-1-1-1.7-1h-0.7
			c-0.9,0-1.6,0.6-1.9,1.4h-1c0-0.5,0.2-3.6,1.6-4.7c0.3-0.3,0.5-0.6,0.7-0.8c0.4-0.6,0.7-0.8,1.5-0.7c0.4,0.1,0.9,0,1.3-0.1
			c0.3-0.1,0.6-0.1,0.9-0.1c0.5,0,1.1,0.3,1.6,0.7c0.2,0.1,0.4,0.3,0.7,0.4c0.3,0.2,0.6,0.2,0.8,0.3c0.5,0.1,0.8,0.2,1.2,1.1
			c0.6,1.3,1.5,2.8,1.8,3.3L28.3,17.7z M19.2,17h0.7c0.7,0,1.3,0.6,1.3,1.3s-0.6,1.3-1.3,1.3h-0.7c-0.7,0-1.3-0.6-1.3-1.3
			S18.4,17,19.2,17z M24.6,17h0.7c0.7,0,1.3,0.6,1.3,1.3s-0.6,1.3-1.3,1.3h-0.7c-0.7,0-1.3-0.6-1.3-1.3S23.9,17,24.6,17z M15.8,18.4
			h1.3c0,1.1,0.9,2,2,2h0.7c1.1,0,2-0.9,2-2c0-0.1,0-0.3,0-0.4c0.2-0.1,0.4-0.2,0.5-0.2c0.1,0,0.2,0.1,0.2,0.1
			c0,0.2-0.1,0.3-0.1,0.5c0,1.1,0.9,2,2,2h0.7c1.1,0,2-0.9,2-2h0.9l0,1.2c-0.5,1.4-2,3-2.7,3c-0.1,0-0.1,0-0.2-0.1
			c-0.8-0.9-1.9-1.4-3.2-1.4c-1.2,0-2.4,0.5-3.2,1.4c-0.5,0.6-2.5-0.6-3.3-3.1V18.4z M18.5,27.6c-2.5-2.6-3-5-2.9-6.9
			c0.8,1.6,2.2,2.6,3.1,2.6c0.4,0,0.7-0.1,0.9-0.4c0.6-0.7,1.6-1.1,2.6-1.1c1,0,2,0.4,2.6,1.1c0.2,0.2,0.4,0.3,0.7,0.3
			c0.9,0,2.1-1.2,2.8-2.4c0.2,1.7,0.1,4.9-2,6.9c-1.2,1.2-2.1,1.6-2.7,1.9c-0.5,0.3-0.9,0.5-1.1,1C22,30.7,20.1,29.3,18.5,27.6z"/>
		<path fill="#FFFFFF" d="M22.2,26.2c1.6,0,2.2-0.9,2.4-1.5c0.1-0.3,0-0.5,0-0.6c-0.1-0.1-0.3-0.3-0.7-0.3h-3.3
			c-0.2,0-0.6,0-0.7,0.3c-0.1,0.1-0.1,0.3,0,0.5C20,25.2,20.7,26.2,22.2,26.2z M20.6,24.5h3.3c0,0,0.1,0,0.1,0c-0.3,0.6-0.9,1-1.7,1
			C21.2,25.5,20.8,25,20.6,24.5C20.5,24.5,20.6,24.5,20.6,24.5z"/>
	</g>
</g>
<g id="create-Viz">
</g>
<g id="graph">
</g>
<g id="data_panel">
</g>
<g id="archive_panel">
</g>
<g id="appearance-panel">
</g>
<g id="cursors">
</g>
</svg>
