<?xml version="1.0" encoding="utf-8"?>
<!-- Generator: Adobe Illustrator 18.1.1, SVG Export Plug-In . SVG Version: 6.00 Build 0)  -->
<svg version="1.1" xmlns="http://www.w3.org/2000/svg" xmlns:xlink="http://www.w3.org/1999/xlink" x="0px" y="0px"
	 viewBox="0 0 45 45" enable-background="new 0 0 45 45" xml:space="preserve">
<symbol  id="close" viewBox="-7 -6.7 14 13.4">
	<line fill="none" stroke="#FFFFFF" stroke-width="0.5" stroke-miterlimit="10" x1="6.5" y1="-6.5" x2="-6.5" y2="6.5"/>
	<line fill="none" stroke="#FFFFFF" stroke-width="0.5" stroke-miterlimit="10" x1="6.5" y1="6.5" x2="-6.5" y2="-6.5"/>
	<polygon display="none" fill="none" points="-7,6 7,6 7,-6 -7,-6 	"/>
</symbol>
<symbol  id="expand" viewBox="-11 -11 22 22">
	<polygon fill="none" stroke="#ECECEC" stroke-miterlimit="10" points="-10.5,10.5 10.5,10.5 10.5,-10.5 -10.5,-10.5 	"/>
	<polyline fill="none" stroke="#ECECEC" stroke-miterlimit="10" points="7.5,-4 7.5,-7.5 4,-7.5 	"/>
	<polyline fill="none" stroke="#ECECEC" stroke-miterlimit="10" points="-4,7.5 -7.5,7.5 -7.5,4 	"/>
	<polyline fill="none" stroke="#ECECEC" stroke-miterlimit="10" points="7.5,4 7.5,7.5 4,7.5 	"/>
	<polyline fill="none" stroke="#ECECEC" stroke-miterlimit="10" points="-4,-7.5 -7.5,-7.5 -7.5,-4 	"/>
	<line fill="none" stroke="#ECECEC" stroke-miterlimit="10" x1="7" y1="-7" x2="3" y2="-3"/>
	<line fill="none" stroke="#ECECEC" stroke-miterlimit="10" x1="-7" y1="7" x2="-3" y2="3"/>
	<line fill="none" stroke="#ECECEC" stroke-miterlimit="10" x1="7" y1="7" x2="3" y2="3"/>
	<line fill="none" stroke="#ECECEC" stroke-miterlimit="10" x1="-7" y1="-7" x2="-3" y2="-3"/>
	<polygon display="none" fill="none" points="-11,11 11,11 11,-11 -11,-11 	"/>
</symbol>
<symbol  id="save" viewBox="-11 -11 22 22">
	<polygon fill="none" stroke="#ECECEC" stroke-miterlimit="10" points="10.5,-10.5 -10.5,-10.5 -10.5,10.5 10.5,10.5 	"/>
	<polygon fill="none" stroke="#ECECEC" stroke-miterlimit="10" points="-3.5,5.5 -5.5,5.5 -5.5,-5.5 5.5,-5.5 5.5,3 3,5.5 1.5,5.5 
		1.5,2.5 -3.5,2.5 	"/>
	<line fill="none" stroke="#ECECEC" stroke-miterlimit="10" x1="-0.5" y1="6" x2="-0.5" y2="4"/>
	<polygon display="none" fill="none" points="-11,11 11,11 11,-11 -11,-11 	"/>
</symbol>
<symbol  id="share" viewBox="-11 -11 22 22">
	<polygon fill="none" stroke="#FFFFFF" stroke-miterlimit="10" points="10.5,-10.5 -10.5,-10.5 -10.5,10.5 10.5,10.5 	"/>
	<path fill="none" stroke="#FFFFFF" stroke-miterlimit="10" d="M-4.4,0c0-1-0.8-1.8-1.8-1.8S-8-1-8,0s0.8,1.8,1.8,1.8S-4.4,1-4.4,0z
		"/>
	<path fill="none" stroke="#FFFFFF" stroke-miterlimit="10" d="M7.6,6c0-1-0.8-1.8-1.8-1.8S4,5,4,6s0.8,1.8,1.8,1.8S7.6,7,7.6,6z"/>
	<path fill="none" stroke="#FFFFFF" stroke-miterlimit="10" d="M7.6-6c0-1-0.8-1.8-1.8-1.8S4-7,4-6s0.8,1.8,1.8,1.8S7.6-5,7.6-6z"/>
	<line fill="none" stroke="#FFFFFF" stroke-miterlimit="10" x1="4.3" y1="-5" x2="-4.7" y2="-0.9"/>
	<line fill="none" stroke="#FFFFFF" stroke-miterlimit="10" x1="-4.8" y1="1.1" x2="4.2" y2="5.2"/>
</symbol>
<symbol  id="view" viewBox="-11 -11 22 22">
	<polygon fill="none" stroke="#ECECEC" stroke-miterlimit="10" points="-10.5,10.5 10.5,10.5 10.5,-10.5 -10.5,-10.5 	"/>
	<polygon fill="none" stroke="#ECECEC" stroke-miterlimit="10" points="-4.5,4.5 -7.5,4.5 -7.5,7.5 -4.5,7.5 	"/>
	<polygon fill="none" stroke="#ECECEC" stroke-miterlimit="10" points="1.5,4.5 -1.5,4.5 -1.5,7.5 1.5,7.5 	"/>
	<polygon fill="none" stroke="#ECECEC" stroke-miterlimit="10" points="7.5,4.5 4.5,4.5 4.5,7.5 7.5,7.5 	"/>
	<polygon fill="none" stroke="#ECECEC" stroke-miterlimit="10" points="-4.5,-1.5 -7.5,-1.5 -7.5,1.5 -4.5,1.5 	"/>
	<polygon fill="none" stroke="#ECECEC" stroke-miterlimit="10" points="1.5,-1.5 -1.5,-1.5 -1.5,1.5 1.5,1.5 	"/>
	<polygon fill="none" stroke="#ECECEC" stroke-miterlimit="10" points="7.5,-1.5 4.5,-1.5 4.5,1.5 7.5,1.5 	"/>
	<polygon fill="none" stroke="#ECECEC" stroke-miterlimit="10" points="-4.5,-7.5 -7.5,-7.5 -7.5,-4.5 -4.5,-4.5 	"/>
	<polygon fill="none" stroke="#ECECEC" stroke-miterlimit="10" points="1.5,-7.5 -1.5,-7.5 -1.5,-4.5 1.5,-4.5 	"/>
	<polygon fill="none" stroke="#ECECEC" stroke-miterlimit="10" points="7.5,-7.5 4.5,-7.5 4.5,-4.5 7.5,-4.5 	"/>
	<polygon display="none" fill="none" points="-11,11 11,11 11,-11 -11,-11 	"/>
</symbol>
<g id="Background">
</g>
<g id="grid">
</g>
<g id="_x31_st_ime_UX">
</g>
<g id="profile_pics">
	<g>
		<path fill="#FFFFFF" d="M22.4,28.5L22.4,28.5c3.9,0,6.6-3,6.6-7.2l0.1-5.4c0.1,0,0.1-0.1,0.2-0.2c0.3-1.1,0.6-3.4-1.5-6.2
			c-1.1-1.2-3.1-2-5.3-2c-2.7,0-5.1,1.2-6.1,3c-0.6,1-0.5,2.2-0.5,3.6c0,0.4,0,0.9,0,1.3c0,0,0,0,0,0v6
			C15.9,25.5,18.7,28.5,22.4,28.5z M22.4,8.3c2,0,3.8,0.7,4.7,1.7c1.3,1.8,1.6,3.3,1.6,4.4c0,0,0,0,0,0c-0.3-1.2-0.7-3.1-2.7-4.5
			c0,0-0.1,0-0.1-0.1c-1.6-0.4-2.8-0.6-3.8-0.6c-1.4,0-2.6,0.4-3.8,1.2c-0.8,0.8-1.4,1.5-1.8,2.8c0-0.9,0.1-1.6,0.4-2.2
			C18,9,20.5,8.3,22.4,8.3z M16.6,21.5v-3.1l1.1,0c-0.3,0.4-0.5,0.8-0.5,1.3c0,1.1,0.9,2,2,2H20c1.1,0,2-0.9,2-2
			c0-0.3-0.1-0.6-0.2-0.9c0,0,0.1,0,0.1,0c0.2-0.2,0.4-0.2,0.5-0.2c0.2,0,0.4,0.2,0.4,0.2c0,0,0,0,0,0c-0.2,0.3-0.2,0.6-0.2,0.9
			c0,1.1,0.9,2,2,2h0.7c1.1,0,2-0.9,2-2c0-0.5-0.2-0.9-0.4-1.2l1.3-0.1l0,3c0,3.7-2.5,6.5-5.9,6.5h0C19.1,27.8,16.6,25.1,16.6,21.5z
			 M19.3,18.3H20c0.7,0,1.3,0.6,1.3,1.3S20.7,21,20,21h-0.7c-0.7,0-1.3-0.6-1.3-1.3S18.5,18.3,19.3,18.3z M20,17.6h-0.7
			c-0.2,0-0.4,0-0.6,0.1c0,0-0.1,0-0.1,0l-2-0.1v-2.2c0,0,0,0,0,0c0.6-2.8,1.3-3.6,2.2-4.5c1-0.7,2.1-1,3.3-1c1,0,2.1,0.2,3.6,0.6
			c1.8,1.3,2.1,2.9,2.4,4.1c0.1,0.4,0.2,0.7,0.3,1l0,2.1l-2,0.1c-0.1,0-0.1,0-0.1,0c-0.3-0.1-0.5-0.2-0.8-0.2h-0.7
			c-0.5,0-1,0.2-1.4,0.5c-0.1-0.1-0.4-0.4-0.9-0.4c-0.4,0-0.7,0.1-1,0.4c0,0,0,0,0,0C21,17.9,20.5,17.6,20,17.6z M24.7,18.3h0.7
			c0.7,0,1.3,0.6,1.3,1.3S26.1,21,25.4,21h-0.7c-0.7,0-1.3-0.6-1.3-1.3S24,18.3,24.7,18.3z"/>
		<path fill="#FFFFFF" d="M32.1,39.1c0.1-0.2,0.2-0.4,0.2-0.6c-0.5-5-4.8-8.8-9.9-8.8c-5.1,0-9.4,3.8-9.9,8.8c0,0.2,0,0.4,0.2,0.6
			c0.2,0.2,0.4,0.3,0.7,0.3h18C31.7,39.3,32,39.2,32.1,39.1z M13.2,38.5c0.5-4.7,4.5-8.2,9.2-8.2c4.8,0,8.7,3.5,9.2,8.3
			c0,0-0.1,0.1-0.2,0.1h-18C13.3,38.6,13.2,38.6,13.2,38.5z"/>
		<path fill="#FFFFFF" d="M24.3,17.3l2.5,0.3c0,0,0.1,0,0.1,0c0.4,0,0.7-0.3,0.7-0.7c0-0.4-0.2-0.8-0.6-0.8l-2.6-0.3
			c-0.4,0-0.7,0.3-0.7,0.7c0,0.2,0,0.4,0.2,0.5C23.9,17.1,24.1,17.2,24.3,17.3z M26.8,16.8l-2.5-0.3L26.8,16.8
			C26.9,16.8,26.9,16.8,26.8,16.8z"/>
		<path fill="#FFFFFF" d="M20.3,15.8l-2.5,0.3c-0.2,0-0.4,0.1-0.5,0.3s-0.2,0.3-0.2,0.5c0,0.4,0.4,0.7,0.7,0.7l2.6-0.3
			c0.4,0,0.7-0.4,0.6-0.8C21.1,16.1,20.8,15.8,20.3,15.8z M17.9,16.8l2.5-0.2L17.9,16.8l0,0.4L17.9,16.8z"/>
		<path fill="#FFFFFF" d="M25,23.9c0.1-0.3,0-0.5,0-0.6c-0.1-0.1-0.3-0.3-0.8-0.3h-3.6c-0.3,0-0.6,0-0.8,0.3c-0.1,0.1-0.1,0.3,0,0.5
			c0.2,0.6,0.9,1.5,2.6,1.5C24.1,25.4,24.7,24.5,25,23.9z M20.5,23.8C20.6,23.8,20.6,23.7,20.5,23.8l3.6,0c0,0,0.1,0,0.1,0
			c-0.2,0.5-0.7,0.9-1.9,0.9C21.3,24.7,20.8,24.2,20.5,23.8z"/>
	</g>
</g>
<g id="create-Viz">
</g>
<g id="graph">
</g>
<g id="data_panel">
</g>
<g id="archive_panel">
</g>
<g id="appearance-panel">
</g>
<g id="cursors">
</g>
</svg>
