<?xml version="1.0" encoding="utf-8"?>
<!-- Generator: Adobe Illustrator 18.1.1, SVG Export Plug-In . SVG Version: 6.00 Build 0)  -->
<svg version="1.1" xmlns="http://www.w3.org/2000/svg" xmlns:xlink="http://www.w3.org/1999/xlink" x="0px" y="0px"
	 viewBox="0 0 45 45" enable-background="new 0 0 45 45" xml:space="preserve">
<symbol  id="close" viewBox="-7 -6.7 14 13.4">
	<line fill="none" stroke="#FFFFFF" stroke-width="0.5" stroke-miterlimit="10" x1="6.5" y1="-6.5" x2="-6.5" y2="6.5"/>
	<line fill="none" stroke="#FFFFFF" stroke-width="0.5" stroke-miterlimit="10" x1="6.5" y1="6.5" x2="-6.5" y2="-6.5"/>
	<polygon display="none" fill="none" points="-7,6 7,6 7,-6 -7,-6 	"/>
</symbol>
<symbol  id="expand" viewBox="-11 -11 22 22">
	<polygon fill="none" stroke="#ECECEC" stroke-miterlimit="10" points="-10.5,10.5 10.5,10.5 10.5,-10.5 -10.5,-10.5 	"/>
	<polyline fill="none" stroke="#ECECEC" stroke-miterlimit="10" points="7.5,-4 7.5,-7.5 4,-7.5 	"/>
	<polyline fill="none" stroke="#ECECEC" stroke-miterlimit="10" points="-4,7.5 -7.5,7.5 -7.5,4 	"/>
	<polyline fill="none" stroke="#ECECEC" stroke-miterlimit="10" points="7.5,4 7.5,7.5 4,7.5 	"/>
	<polyline fill="none" stroke="#ECECEC" stroke-miterlimit="10" points="-4,-7.5 -7.5,-7.5 -7.5,-4 	"/>
	<line fill="none" stroke="#ECECEC" stroke-miterlimit="10" x1="7" y1="-7" x2="3" y2="-3"/>
	<line fill="none" stroke="#ECECEC" stroke-miterlimit="10" x1="-7" y1="7" x2="-3" y2="3"/>
	<line fill="none" stroke="#ECECEC" stroke-miterlimit="10" x1="7" y1="7" x2="3" y2="3"/>
	<line fill="none" stroke="#ECECEC" stroke-miterlimit="10" x1="-7" y1="-7" x2="-3" y2="-3"/>
	<polygon display="none" fill="none" points="-11,11 11,11 11,-11 -11,-11 	"/>
</symbol>
<symbol  id="save" viewBox="-11 -11 22 22">
	<polygon fill="none" stroke="#ECECEC" stroke-miterlimit="10" points="10.5,-10.5 -10.5,-10.5 -10.5,10.5 10.5,10.5 	"/>
	<polygon fill="none" stroke="#ECECEC" stroke-miterlimit="10" points="-3.5,5.5 -5.5,5.5 -5.5,-5.5 5.5,-5.5 5.5,3 3,5.5 1.5,5.5 
		1.5,2.5 -3.5,2.5 	"/>
	<line fill="none" stroke="#ECECEC" stroke-miterlimit="10" x1="-0.5" y1="6" x2="-0.5" y2="4"/>
	<polygon display="none" fill="none" points="-11,11 11,11 11,-11 -11,-11 	"/>
</symbol>
<symbol  id="share" viewBox="-11 -11 22 22">
	<polygon fill="none" stroke="#FFFFFF" stroke-miterlimit="10" points="10.5,-10.5 -10.5,-10.5 -10.5,10.5 10.5,10.5 	"/>
	<path fill="none" stroke="#FFFFFF" stroke-miterlimit="10" d="M-4.4,0c0-1-0.8-1.8-1.8-1.8S-8-1-8,0s0.8,1.8,1.8,1.8S-4.4,1-4.4,0z
		"/>
	<path fill="none" stroke="#FFFFFF" stroke-miterlimit="10" d="M7.6,6c0-1-0.8-1.8-1.8-1.8S4,5,4,6s0.8,1.8,1.8,1.8S7.6,7,7.6,6z"/>
	<path fill="none" stroke="#FFFFFF" stroke-miterlimit="10" d="M7.6-6c0-1-0.8-1.8-1.8-1.8S4-7,4-6s0.8,1.8,1.8,1.8S7.6-5,7.6-6z"/>
	<line fill="none" stroke="#FFFFFF" stroke-miterlimit="10" x1="4.3" y1="-5" x2="-4.7" y2="-0.9"/>
	<line fill="none" stroke="#FFFFFF" stroke-miterlimit="10" x1="-4.8" y1="1.1" x2="4.2" y2="5.2"/>
</symbol>
<symbol  id="view" viewBox="-11 -11 22 22">
	<polygon fill="none" stroke="#ECECEC" stroke-miterlimit="10" points="-10.5,10.5 10.5,10.5 10.5,-10.5 -10.5,-10.5 	"/>
	<polygon fill="none" stroke="#ECECEC" stroke-miterlimit="10" points="-4.5,4.5 -7.5,4.5 -7.5,7.5 -4.5,7.5 	"/>
	<polygon fill="none" stroke="#ECECEC" stroke-miterlimit="10" points="1.5,4.5 -1.5,4.5 -1.5,7.5 1.5,7.5 	"/>
	<polygon fill="none" stroke="#ECECEC" stroke-miterlimit="10" points="7.5,4.5 4.5,4.5 4.5,7.5 7.5,7.5 	"/>
	<polygon fill="none" stroke="#ECECEC" stroke-miterlimit="10" points="-4.5,-1.5 -7.5,-1.5 -7.5,1.5 -4.5,1.5 	"/>
	<polygon fill="none" stroke="#ECECEC" stroke-miterlimit="10" points="1.5,-1.5 -1.5,-1.5 -1.5,1.5 1.5,1.5 	"/>
	<polygon fill="none" stroke="#ECECEC" stroke-miterlimit="10" points="7.5,-1.5 4.5,-1.5 4.5,1.5 7.5,1.5 	"/>
	<polygon fill="none" stroke="#ECECEC" stroke-miterlimit="10" points="-4.5,-7.5 -7.5,-7.5 -7.5,-4.5 -4.5,-4.5 	"/>
	<polygon fill="none" stroke="#ECECEC" stroke-miterlimit="10" points="1.5,-7.5 -1.5,-7.5 -1.5,-4.5 1.5,-4.5 	"/>
	<polygon fill="none" stroke="#ECECEC" stroke-miterlimit="10" points="7.5,-7.5 4.5,-7.5 4.5,-4.5 7.5,-4.5 	"/>
	<polygon display="none" fill="none" points="-11,11 11,11 11,-11 -11,-11 	"/>
</symbol>
<g id="Background">
</g>
<g id="grid">
</g>
<g id="_x31_st_ime_UX">
</g>
<g id="profile_pics">
	<g>
		<path fill="#FFFFFF" d="M15.8,18v0.6c0,4,2.6,7.1,5.9,7.2c0,0,0,0,0,0h0.1c0,0,0,0,0,0c3.5,0,6-3,6-7.1l0.1-2.2c0,0,0,0,0,0
			c0-0.2,0.9-5.8-0.9-7.9c-0.6-0.7-1.5-1-2.5-0.8c-1-0.4-2-0.7-2.9-0.7c-1.9,0-3.4,0.9-4.5,1.7c-0.9,0.7-2.6,2-1.5,8.8
			C15.6,17.8,15.7,17.9,15.8,18z M21.6,7.8c0.9,0,1.8,0.2,2.7,0.6c0.1,0,0.1,0,0.2,0c0.8-0.2,1.4,0,1.9,0.5c0.8,0.9,1,2.5,1,4
			c-0.5-3.3-2.1-3.9-3-3.9c-0.4,0-0.7,0.1-0.6,0.1c-1.6,0.3-2.6,0.3-3.5,0.3c-0.9,0-1.6,0-2.5,0.4c-1,0.4-1.5,1.4-1.8,2.8
			c0.2-2.3,1.1-3,1.6-3.4C18.5,8.7,19.8,7.8,21.6,7.8z M21.8,25.1c-3,0-5.3-2.9-5.3-6.5v-1.6h0.7c0,0.1,0,0.2,0,0.3
			c0,0.9,0.8,1.7,1.7,1.7h0.7c0.9,0,1.7-0.8,1.7-1.7c0-0.1,0-0.2,0-0.3c0.1-0.1,0.3-0.2,0.4-0.2c0.1,0,0.2,0.1,0.3,0.2
			c0,0.1,0,0.2,0,0.3c0,0.9,0.8,1.7,1.7,1.7h0.7c0.9,0,1.7-0.8,1.7-1.7c0-0.1,0-0.2,0-0.3h1.2l0,1.7C27.1,22.3,24.9,25,21.8,25.1z
			 M18,10.6c0.8-0.3,1.4-0.3,2.3-0.3c0.9,0,2,0,3.7-0.4c0,0,0.2-0.1,0.5-0.1c0.2,0,0.5,0.1,0.7,0.2c0.5,0.4,0.9,0.9,1.2,1.5
			c0.2,0.5,0.4,1.2,0.5,2c0,0,0,0.1,0.1,0.1c0.3,0.4,0.4,1.6,0.4,2.5l0,0.1h-1.5c-0.1-0.2-0.3-0.3-0.5-0.4l0.5,0.1c0,0,0.1,0,0.1,0
			c0.4,0,0.7-0.3,0.7-0.7c0-0.2,0-0.4-0.2-0.6c-0.1-0.2-0.3-0.3-0.5-0.3l-2.7-0.3c-0.4,0-0.7,0.3-0.7,0.7c0,0.4,0.3,0.8,0.7,0.8
			l0.1,0c-0.4,0.1-0.8,0.3-1,0.7c-0.1-0.1-0.3-0.2-0.5-0.2c-0.2,0-0.4,0-0.7,0.2c-0.2-0.4-0.6-0.6-1-0.7l0.2,0
			c0.4,0,0.7-0.4,0.7-0.8c0-0.4-0.4-0.7-0.8-0.7c0,0,0,0,0,0l-2.6,0.3c-0.2,0-0.4,0.1-0.5,0.3c-0.1,0.2-0.2,0.4-0.2,0.6
			c0,0.4,0.4,0.7,0.7,0.7l0.6-0.1c-0.2,0.1-0.3,0.3-0.5,0.4h-1V15c0-1.7,0.5-3.2,1.4-4.2C17.9,10.7,18,10.7,18,10.6z M25.3,17.3
			c0,0.6-0.5,1-1,1h-0.7c-0.6,0-1-0.5-1-1c0-0.6,0.5-1,1-1h0.7C24.9,16.3,25.3,16.7,25.3,17.3z M25.8,15.2l-2.6-0.3l0-0.1L25.8,15.2
			C25.9,15.2,25.8,15.2,25.8,15.2z M17.4,15.1l2.6-0.3l0,0.1l-2.6,0.3l0,0.4L17.4,15.1z M18.9,16.3h0.7c0.6,0,1,0.5,1,1
			c0,0.6-0.5,1-1,1h-0.7c-0.6,0-1-0.5-1-1C17.9,16.7,18.3,16.3,18.9,16.3z"/>
		<path fill="#FFFFFF" d="M31.3,37c0.2-0.3,0.4-0.7,0.3-1c-0.5-5.2-4.9-9.2-9.9-9.2s-9.4,4-9.9,9.2c0,0.3,0.1,0.7,0.3,1
			c0.2,0.2,0.4,0.3,0.6,0.3h18C31,37.3,31.2,37.2,31.3,37z M12.5,36.1c0.5-4.8,4.6-8.6,9.2-8.6s8.7,3.8,9.2,8.6
			c0,0.2-0.1,0.4-0.2,0.5l-18,0C12.7,36.6,12.5,36.3,12.5,36.1z"/>
		<path fill="#FFFFFF" d="M23.4,20.3h-3.5c-0.3,0-0.6,0.1-0.7,0.3C19,20.8,19,21,19.1,21.2c0.2,0.6,0.9,1.7,2.5,1.7
			c1.6,0,2.3-1,2.5-1.6c0.1-0.2,0.1-0.4-0.1-0.6C23.9,20.4,23.7,20.3,23.4,20.3z M21.6,22.2c-1.2,0-1.7-0.7-1.9-1.1c0,0,0.1,0,0.2,0
			h3.5c0.1,0,0.1,0,0.1,0C23.3,21.6,22.8,22.2,21.6,22.2z"/>
	</g>
</g>
<g id="create-Viz">
</g>
<g id="graph">
</g>
<g id="data_panel">
</g>
<g id="archive_panel">
</g>
<g id="appearance-panel">
</g>
<g id="cursors">
</g>
</svg>
