<?xml version="1.0" encoding="utf-8"?>
<!-- Generator: Adobe Illustrator 18.1.1, SVG Export Plug-In . SVG Version: 6.00 Build 0)  -->
<svg version="1.1" xmlns="http://www.w3.org/2000/svg" xmlns:xlink="http://www.w3.org/1999/xlink" x="0px" y="0px"
	 viewBox="0 0 45 45" enable-background="new 0 0 45 45" xml:space="preserve">
<symbol  id="close" viewBox="-7 -6.7 14 13.4">
	<line fill="none" stroke="#FFFFFF" stroke-width="0.5" stroke-miterlimit="10" x1="6.5" y1="-6.5" x2="-6.5" y2="6.5"/>
	<line fill="none" stroke="#FFFFFF" stroke-width="0.5" stroke-miterlimit="10" x1="6.5" y1="6.5" x2="-6.5" y2="-6.5"/>
	<polygon display="none" fill="none" points="-7,6 7,6 7,-6 -7,-6 	"/>
</symbol>
<symbol  id="expand" viewBox="-11 -11 22 22">
	<polygon fill="none" stroke="#ECECEC" stroke-miterlimit="10" points="-10.5,10.5 10.5,10.5 10.5,-10.5 -10.5,-10.5 	"/>
	<polyline fill="none" stroke="#ECECEC" stroke-miterlimit="10" points="7.5,-4 7.5,-7.5 4,-7.5 	"/>
	<polyline fill="none" stroke="#ECECEC" stroke-miterlimit="10" points="-4,7.5 -7.5,7.5 -7.5,4 	"/>
	<polyline fill="none" stroke="#ECECEC" stroke-miterlimit="10" points="7.5,4 7.5,7.5 4,7.5 	"/>
	<polyline fill="none" stroke="#ECECEC" stroke-miterlimit="10" points="-4,-7.5 -7.5,-7.5 -7.5,-4 	"/>
	<line fill="none" stroke="#ECECEC" stroke-miterlimit="10" x1="7" y1="-7" x2="3" y2="-3"/>
	<line fill="none" stroke="#ECECEC" stroke-miterlimit="10" x1="-7" y1="7" x2="-3" y2="3"/>
	<line fill="none" stroke="#ECECEC" stroke-miterlimit="10" x1="7" y1="7" x2="3" y2="3"/>
	<line fill="none" stroke="#ECECEC" stroke-miterlimit="10" x1="-7" y1="-7" x2="-3" y2="-3"/>
	<polygon display="none" fill="none" points="-11,11 11,11 11,-11 -11,-11 	"/>
</symbol>
<symbol  id="save" viewBox="-11 -11 22 22">
	<polygon fill="none" stroke="#ECECEC" stroke-miterlimit="10" points="10.5,-10.5 -10.5,-10.5 -10.5,10.5 10.5,10.5 	"/>
	<polygon fill="none" stroke="#ECECEC" stroke-miterlimit="10" points="-3.5,5.5 -5.5,5.5 -5.5,-5.5 5.5,-5.5 5.5,3 3,5.5 1.5,5.5 
		1.5,2.5 -3.5,2.5 	"/>
	<line fill="none" stroke="#ECECEC" stroke-miterlimit="10" x1="-0.5" y1="6" x2="-0.5" y2="4"/>
	<polygon display="none" fill="none" points="-11,11 11,11 11,-11 -11,-11 	"/>
</symbol>
<symbol  id="share" viewBox="-11 -11 22 22">
	<polygon fill="none" stroke="#FFFFFF" stroke-miterlimit="10" points="10.5,-10.5 -10.5,-10.5 -10.5,10.5 10.5,10.5 	"/>
	<path fill="none" stroke="#FFFFFF" stroke-miterlimit="10" d="M-4.4,0c0-1-0.8-1.8-1.8-1.8S-8-1-8,0s0.8,1.8,1.8,1.8S-4.4,1-4.4,0z
		"/>
	<path fill="none" stroke="#FFFFFF" stroke-miterlimit="10" d="M7.6,6c0-1-0.8-1.8-1.8-1.8S4,5,4,6s0.8,1.8,1.8,1.8S7.6,7,7.6,6z"/>
	<path fill="none" stroke="#FFFFFF" stroke-miterlimit="10" d="M7.6-6c0-1-0.8-1.8-1.8-1.8S4-7,4-6s0.8,1.8,1.8,1.8S7.6-5,7.6-6z"/>
	<line fill="none" stroke="#FFFFFF" stroke-miterlimit="10" x1="4.3" y1="-5" x2="-4.7" y2="-0.9"/>
	<line fill="none" stroke="#FFFFFF" stroke-miterlimit="10" x1="-4.8" y1="1.1" x2="4.2" y2="5.2"/>
</symbol>
<symbol  id="view" viewBox="-11 -11 22 22">
	<polygon fill="none" stroke="#ECECEC" stroke-miterlimit="10" points="-10.5,10.5 10.5,10.5 10.5,-10.5 -10.5,-10.5 	"/>
	<polygon fill="none" stroke="#ECECEC" stroke-miterlimit="10" points="-4.5,4.5 -7.5,4.5 -7.5,7.5 -4.5,7.5 	"/>
	<polygon fill="none" stroke="#ECECEC" stroke-miterlimit="10" points="1.5,4.5 -1.5,4.5 -1.5,7.5 1.5,7.5 	"/>
	<polygon fill="none" stroke="#ECECEC" stroke-miterlimit="10" points="7.5,4.5 4.5,4.5 4.5,7.5 7.5,7.5 	"/>
	<polygon fill="none" stroke="#ECECEC" stroke-miterlimit="10" points="-4.5,-1.5 -7.5,-1.5 -7.5,1.5 -4.5,1.5 	"/>
	<polygon fill="none" stroke="#ECECEC" stroke-miterlimit="10" points="1.5,-1.5 -1.5,-1.5 -1.5,1.5 1.5,1.5 	"/>
	<polygon fill="none" stroke="#ECECEC" stroke-miterlimit="10" points="7.5,-1.5 4.5,-1.5 4.5,1.5 7.5,1.5 	"/>
	<polygon fill="none" stroke="#ECECEC" stroke-miterlimit="10" points="-4.5,-7.5 -7.5,-7.5 -7.5,-4.5 -4.5,-4.5 	"/>
	<polygon fill="none" stroke="#ECECEC" stroke-miterlimit="10" points="1.5,-7.5 -1.5,-7.5 -1.5,-4.5 1.5,-4.5 	"/>
	<polygon fill="none" stroke="#ECECEC" stroke-miterlimit="10" points="7.5,-7.5 4.5,-7.5 4.5,-4.5 7.5,-4.5 	"/>
	<polygon display="none" fill="none" points="-11,11 11,11 11,-11 -11,-11 	"/>
</symbol>
<g id="Background">
</g>
<g id="grid">
</g>
<g id="_x31_st_ime_UX">
</g>
<g id="profile_pics">
	<g>
		<path fill="#FFFFFF" d="M29.3,15c0-0.3,0-0.6,0-0.9c0-1.8-0.1-3.1-0.8-4.4c-1-1.7-3.3-2.7-5.9-2.7c-2.7,0-5,1.1-6,2.9
			c-0.7,1.3-0.8,2.8-0.8,4.9v6c0,0.1,0,0.1,0,0.2c0,0,0,0.1,0,0.1c0.4,3.8,3.6,7,6.9,7c3.5,0,6.2-2.8,6.6-6.6c0,0,0,0,0,0
			c0-0.2,0-0.4,0-0.7L29.3,15z M22.7,27.5L22.7,27.5c-2.8,0-5.6-2.7-6.2-5.9c0.7,0.2,1.3,0.3,2,0.3c0.7,0,1.2-0.2,1.6-0.5
			c0.6-0.7,1.6-1.1,2.6-1.1c1,0,2,0.4,2.6,1.1c0.6,0.7,1.7,0.8,2.3,0.8c0.3,0,0.6,0,0.9-0.1C28,25.2,25.6,27.5,22.7,27.5z
			 M27.9,10.1c0.6,1,0.7,2.1,0.7,3.7c-0.6-1-1.2-2.3-1.5-3.5c0-0.2-0.2-0.3-0.3-0.3c0,0-0.1,0-0.1,0c-1,0.2-3.4,0.5-5.6,0.5
			c-2,0-2.6-0.2-2.8-0.3c-0.1,0-0.2-0.1-0.3,0c-0.1,0-0.2,0.1-0.2,0.2c-0.2,0.4-0.4,0.8-0.6,1.2c-0.3,0.6-0.5,1.2-0.8,1.8
			c0.1-1.3,0.3-2.3,0.7-3.2c0.8-1.5,2.9-2.5,5.3-2.5C24.9,7.7,27,8.7,27.9,10.1z M22.6,19.5c-1.2,0-2.4,0.5-3.2,1.3
			c-0.1,0.1-0.1,0.1-0.2,0.2c-0.2,0.1-0.4,0.1-0.7,0.1c-0.6,0-1.3-0.1-2-0.3c0,0,0,0,0-0.1v-5.9c0.6-0.9,1.1-2,1.5-3
			c0.1-0.3,0.3-0.6,0.4-0.9c0.6,0.2,1.5,0.3,2.8,0.3c1.8,0,4.1-0.2,5.4-0.4c0.5,1.8,1.5,3.5,2.1,4.4l-0.1,5.8c0,0.1,0,0.3,0,0.4
			c0,0-0.1,0-0.1,0c-0.3,0.1-0.6,0.1-0.9,0.1c-0.8,0-1.5-0.2-1.8-0.5C25,20.1,23.8,19.6,22.6,19.5C22.6,19.5,22.6,19.6,22.6,19.5
			C22.6,19.6,22.6,19.5,22.6,19.5z"/>
		<path fill="#FFFFFF" d="M22.6,28.9c-5.1,0-9.4,3.9-9.9,9c0,0.3,0.1,0.5,0.3,0.8c0.2,0.2,0.4,0.3,0.7,0.3h18c0.2,0,0.5-0.1,0.7-0.3
			c0.2-0.2,0.3-0.5,0.3-0.8C32,32.8,27.7,28.9,22.6,28.9z M31.7,38.2c0,0-0.1,0.1-0.1,0.1h-18c0,0-0.1,0-0.1-0.1
			c-0.1-0.1-0.1-0.1-0.1-0.2c0.5-4.8,4.5-8.4,9.2-8.4c4.8,0,8.7,3.6,9.2,8.4C31.8,38,31.8,38.1,31.7,38.2z"/>
		<path fill="#FFFFFF" d="M24.4,21.3h-3.6c-0.3,0-0.6,0.2-0.7,0.4c-0.1,0.2-0.2,0.5-0.1,0.7c0.3,0.6,1,1.7,2.6,1.7
			c1.6,0,2.4-1.1,2.6-1.7c0.1-0.2,0.1-0.5-0.1-0.7C25,21.5,24.7,21.3,24.4,21.3z M20.6,22.2C20.6,22.2,20.6,22.1,20.6,22.2
			c0.1-0.1,0.1-0.2,0.2-0.2h3.6c0.1,0,0.1,0,0.2,0.1c-0.3,0.6-0.8,1.3-2,1.3C21.4,23.4,20.9,22.7,20.6,22.2z"/>
	</g>
</g>
<g id="create-Viz">
</g>
<g id="graph">
</g>
<g id="data_panel">
</g>
<g id="archive_panel">
</g>
<g id="appearance-panel">
</g>
<g id="cursors">
</g>
</svg>
