<?xml version="1.0" encoding="utf-8"?>
<!-- Generator: Adobe Illustrator 18.1.1, SVG Export Plug-In . SVG Version: 6.00 Build 0)  -->
<svg version="1.1" xmlns="http://www.w3.org/2000/svg" xmlns:xlink="http://www.w3.org/1999/xlink" x="0px" y="0px"
	 viewBox="0 0 45 45" enable-background="new 0 0 45 45" xml:space="preserve">
<symbol  id="close" viewBox="-7 -6.7 14 13.4">
	<line fill="none" stroke="#FFFFFF" stroke-width="0.5" stroke-miterlimit="10" x1="6.5" y1="-6.5" x2="-6.5" y2="6.5"/>
	<line fill="none" stroke="#FFFFFF" stroke-width="0.5" stroke-miterlimit="10" x1="6.5" y1="6.5" x2="-6.5" y2="-6.5"/>
	<polygon display="none" fill="none" points="-7,6 7,6 7,-6 -7,-6 	"/>
</symbol>
<symbol  id="expand" viewBox="-11 -11 22 22">
	<polygon fill="none" stroke="#ECECEC" stroke-miterlimit="10" points="-10.5,10.5 10.5,10.5 10.5,-10.5 -10.5,-10.5 	"/>
	<polyline fill="none" stroke="#ECECEC" stroke-miterlimit="10" points="7.5,-4 7.5,-7.5 4,-7.5 	"/>
	<polyline fill="none" stroke="#ECECEC" stroke-miterlimit="10" points="-4,7.5 -7.5,7.5 -7.5,4 	"/>
	<polyline fill="none" stroke="#ECECEC" stroke-miterlimit="10" points="7.5,4 7.5,7.5 4,7.5 	"/>
	<polyline fill="none" stroke="#ECECEC" stroke-miterlimit="10" points="-4,-7.5 -7.5,-7.5 -7.5,-4 	"/>
	<line fill="none" stroke="#ECECEC" stroke-miterlimit="10" x1="7" y1="-7" x2="3" y2="-3"/>
	<line fill="none" stroke="#ECECEC" stroke-miterlimit="10" x1="-7" y1="7" x2="-3" y2="3"/>
	<line fill="none" stroke="#ECECEC" stroke-miterlimit="10" x1="7" y1="7" x2="3" y2="3"/>
	<line fill="none" stroke="#ECECEC" stroke-miterlimit="10" x1="-7" y1="-7" x2="-3" y2="-3"/>
	<polygon display="none" fill="none" points="-11,11 11,11 11,-11 -11,-11 	"/>
</symbol>
<symbol  id="save" viewBox="-11 -11 22 22">
	<polygon fill="none" stroke="#ECECEC" stroke-miterlimit="10" points="10.5,-10.5 -10.5,-10.5 -10.5,10.5 10.5,10.5 	"/>
	<polygon fill="none" stroke="#ECECEC" stroke-miterlimit="10" points="-3.5,5.5 -5.5,5.5 -5.5,-5.5 5.5,-5.5 5.5,3 3,5.5 1.5,5.5 
		1.5,2.5 -3.5,2.5 	"/>
	<line fill="none" stroke="#ECECEC" stroke-miterlimit="10" x1="-0.5" y1="6" x2="-0.5" y2="4"/>
	<polygon display="none" fill="none" points="-11,11 11,11 11,-11 -11,-11 	"/>
</symbol>
<symbol  id="share" viewBox="-11 -11 22 22">
	<polygon fill="none" stroke="#FFFFFF" stroke-miterlimit="10" points="10.5,-10.5 -10.5,-10.5 -10.5,10.5 10.5,10.5 	"/>
	<path fill="none" stroke="#FFFFFF" stroke-miterlimit="10" d="M-4.4,0c0-1-0.8-1.8-1.8-1.8S-8-1-8,0s0.8,1.8,1.8,1.8S-4.4,1-4.4,0z
		"/>
	<path fill="none" stroke="#FFFFFF" stroke-miterlimit="10" d="M7.6,6c0-1-0.8-1.8-1.8-1.8S4,5,4,6s0.8,1.8,1.8,1.8S7.6,7,7.6,6z"/>
	<path fill="none" stroke="#FFFFFF" stroke-miterlimit="10" d="M7.6-6c0-1-0.8-1.8-1.8-1.8S4-7,4-6s0.8,1.8,1.8,1.8S7.6-5,7.6-6z"/>
	<line fill="none" stroke="#FFFFFF" stroke-miterlimit="10" x1="4.3" y1="-5" x2="-4.7" y2="-0.9"/>
	<line fill="none" stroke="#FFFFFF" stroke-miterlimit="10" x1="-4.8" y1="1.1" x2="4.2" y2="5.2"/>
</symbol>
<symbol  id="view" viewBox="-11 -11 22 22">
	<polygon fill="none" stroke="#ECECEC" stroke-miterlimit="10" points="-10.5,10.5 10.5,10.5 10.5,-10.5 -10.5,-10.5 	"/>
	<polygon fill="none" stroke="#ECECEC" stroke-miterlimit="10" points="-4.5,4.5 -7.5,4.5 -7.5,7.5 -4.5,7.5 	"/>
	<polygon fill="none" stroke="#ECECEC" stroke-miterlimit="10" points="1.5,4.5 -1.5,4.5 -1.5,7.5 1.5,7.5 	"/>
	<polygon fill="none" stroke="#ECECEC" stroke-miterlimit="10" points="7.5,4.5 4.5,4.5 4.5,7.5 7.5,7.5 	"/>
	<polygon fill="none" stroke="#ECECEC" stroke-miterlimit="10" points="-4.5,-1.5 -7.5,-1.5 -7.5,1.5 -4.5,1.5 	"/>
	<polygon fill="none" stroke="#ECECEC" stroke-miterlimit="10" points="1.5,-1.5 -1.5,-1.5 -1.5,1.5 1.5,1.5 	"/>
	<polygon fill="none" stroke="#ECECEC" stroke-miterlimit="10" points="7.5,-1.5 4.5,-1.5 4.5,1.5 7.5,1.5 	"/>
	<polygon fill="none" stroke="#ECECEC" stroke-miterlimit="10" points="-4.5,-7.5 -7.5,-7.5 -7.5,-4.5 -4.5,-4.5 	"/>
	<polygon fill="none" stroke="#ECECEC" stroke-miterlimit="10" points="1.5,-7.5 -1.5,-7.5 -1.5,-4.5 1.5,-4.5 	"/>
	<polygon fill="none" stroke="#ECECEC" stroke-miterlimit="10" points="7.5,-7.5 4.5,-7.5 4.5,-4.5 7.5,-4.5 	"/>
	<polygon display="none" fill="none" points="-11,11 11,11 11,-11 -11,-11 	"/>
</symbol>
<g id="Background">
</g>
<g id="grid">
</g>
<g id="_x31_st_ime_UX">
</g>
<g id="profile_pics">
	<g>
		<path fill="#FFFFFF" d="M13.5,39h18c0.2,0,0.5-0.1,0.7-0.3c0.2-0.2,0.3-0.5,0.3-0.8c-0.5-5.1-4.8-9-9.9-9s-9.4,3.9-9.9,9
			c0,0.3,0.1,0.5,0.3,0.8C13.1,38.9,13.3,39,13.5,39z M31.8,38c0,0.1,0,0.2-0.1,0.2c0,0-0.1,0.1-0.1,0.1h-18c0,0-0.1,0-0.1-0.1
			c-0.1-0.1-0.1-0.1-0.1-0.2c0.5-4.8,4.5-8.4,9.2-8.4S31.3,33.2,31.8,38z"/>
		<path fill="#FFFFFF" d="M24.5,23.3h-3.9c-0.3,0-0.6,0.2-0.8,0.4c-0.1,0.2-0.2,0.4-0.1,0.7c0.3,0.6,1,1.7,2.8,1.7
			c1.8,0,2.5-1.1,2.8-1.7c0.1-0.2,0.1-0.5-0.1-0.7C25.1,23.5,24.8,23.3,24.5,23.3z M22.5,25.4c-1.3,0-1.9-0.7-2.1-1.3
			c0,0,0.1-0.1,0.2-0.1h3.9c0.1,0,0.2,0.1,0.2,0.1C24.4,24.7,23.8,25.4,22.5,25.4z"/>
		<path fill="#FFFFFF" d="M25.8,9.6l-0.3-0.1c-1.3-0.4-2.8-1.4-2.8-1.4c-0.1-0.1-0.3-0.1-0.4,0c0,0-1.5,0.9-2.8,1.4l-0.3,0.1
			c-1.4,0.5-4.2,1.4-4.5,6.1c-0.1,0.3-0.1,0.6-0.1,1v5.2c0,3.4,3.4,6.2,7.8,6.2c0,0,0,0,0,0h0.1c0,0,0,0,0,0c4.4,0,7.6-2.7,7.6-6.2
			l0.1-5.1c0-0.2,0-0.5-0.1-0.7C30.1,11,27.2,10.1,25.8,9.6z M22.6,27.4c-4,0-7.2-2.5-7.2-5.5v-4h1.5c-0.1,0.2-0.1,0.4-0.1,0.7
			c0,1.1,0.9,2,2,2h1.4c1.1,0,2-0.9,2-2c0-0.3-0.1-0.6-0.2-0.8c0.4-0.2,0.8-0.1,1,0c-0.1,0.3-0.2,0.5-0.2,0.8c0,1.1,0.9,2,2,2h1.4
			c1.1,0,2-0.9,2-2c0-0.3-0.1-0.5-0.1-0.8l1.5,0.1c0,0,0,0,0,0c0,0,0,0,0,0l-0.1,3.9C29.6,25.1,26.6,27.4,22.6,27.4z M29.7,17.2
			l-2-0.1c-0.4-0.3-0.9-0.6-1.4-0.6h-1.4c-0.6,0-1.1,0.2-1.5,0.6c-0.4-0.3-1.1-0.4-1.8,0c-0.4-0.4-0.9-0.6-1.5-0.6h-1.4
			c-0.6,0-1.1,0.3-1.5,0.7h-1.9v-0.4c0,0,0,0,0-0.1c0,0,1.9-4.7,5.2-4.7c0.6,0,1.2,0.1,1.8,0.4c0.1,0,0.2,0,0.3,0
			c0.6-0.3,1.2-0.4,1.8-0.4c3.3,0,5.2,4.7,5.2,4.7c0,0,0,0,0,0L29.7,17.2C29.7,17.2,29.7,17.2,29.7,17.2z M18.8,17.3h1.4
			c0.7,0,1.3,0.6,1.3,1.3S20.9,20,20.2,20h-1.4c-0.7,0-1.3-0.6-1.3-1.3S18.1,17.3,18.8,17.3z M24.9,17.3h1.4c0.7,0,1.3,0.6,1.3,1.3
			S27,20,26.3,20h-1.4c-0.7,0-1.3-0.6-1.3-1.3S24.2,17.3,24.9,17.3z M29.5,15c-0.9-1.5-2.6-3.6-5.1-3.6c-0.6,0-1.3,0.1-1.9,0.4
			c-0.6-0.3-1.3-0.4-1.9-0.4c-2.4,0-4.1,2.1-5.1,3.6c0.5-3.6,2.7-4.3,3.9-4.7l0.3-0.1c1.1-0.4,2.3-1.1,2.8-1.3
			c0.5,0.3,1.7,0.9,2.8,1.3l0.3,0.1C26.9,10.7,29,11.4,29.5,15z"/>
	</g>
</g>
<g id="create-Viz">
</g>
<g id="graph">
</g>
<g id="data_panel">
</g>
<g id="archive_panel">
</g>
<g id="appearance-panel">
</g>
<g id="cursors">
</g>
</svg>
