<?xml version="1.0" encoding="utf-8"?>
<!-- Generator: Adobe Illustrator 18.1.1, SVG Export Plug-In . SVG Version: 6.00 Build 0)  -->
<svg version="1.1" xmlns="http://www.w3.org/2000/svg" xmlns:xlink="http://www.w3.org/1999/xlink" x="0px" y="0px"
	 viewBox="0 0 45 45" enable-background="new 0 0 45 45" xml:space="preserve">
<symbol  id="close" viewBox="-7 -6.7 14 13.4">
	<line fill="none" stroke="#FFFFFF" stroke-width="0.5" stroke-miterlimit="10" x1="6.5" y1="-6.5" x2="-6.5" y2="6.5"/>
	<line fill="none" stroke="#FFFFFF" stroke-width="0.5" stroke-miterlimit="10" x1="6.5" y1="6.5" x2="-6.5" y2="-6.5"/>
	<polygon display="none" fill="none" points="-7,6 7,6 7,-6 -7,-6 	"/>
</symbol>
<symbol  id="expand" viewBox="-11 -11 22 22">
	<polygon fill="none" stroke="#ECECEC" stroke-miterlimit="10" points="-10.5,10.5 10.5,10.5 10.5,-10.5 -10.5,-10.5 	"/>
	<polyline fill="none" stroke="#ECECEC" stroke-miterlimit="10" points="7.5,-4 7.5,-7.5 4,-7.5 	"/>
	<polyline fill="none" stroke="#ECECEC" stroke-miterlimit="10" points="-4,7.5 -7.5,7.5 -7.5,4 	"/>
	<polyline fill="none" stroke="#ECECEC" stroke-miterlimit="10" points="7.5,4 7.5,7.5 4,7.5 	"/>
	<polyline fill="none" stroke="#ECECEC" stroke-miterlimit="10" points="-4,-7.5 -7.5,-7.5 -7.5,-4 	"/>
	<line fill="none" stroke="#ECECEC" stroke-miterlimit="10" x1="7" y1="-7" x2="3" y2="-3"/>
	<line fill="none" stroke="#ECECEC" stroke-miterlimit="10" x1="-7" y1="7" x2="-3" y2="3"/>
	<line fill="none" stroke="#ECECEC" stroke-miterlimit="10" x1="7" y1="7" x2="3" y2="3"/>
	<line fill="none" stroke="#ECECEC" stroke-miterlimit="10" x1="-7" y1="-7" x2="-3" y2="-3"/>
	<polygon display="none" fill="none" points="-11,11 11,11 11,-11 -11,-11 	"/>
</symbol>
<symbol  id="save" viewBox="-11 -11 22 22">
	<polygon fill="none" stroke="#ECECEC" stroke-miterlimit="10" points="10.5,-10.5 -10.5,-10.5 -10.5,10.5 10.5,10.5 	"/>
	<polygon fill="none" stroke="#ECECEC" stroke-miterlimit="10" points="-3.5,5.5 -5.5,5.5 -5.5,-5.5 5.5,-5.5 5.5,3 3,5.5 1.5,5.5 
		1.5,2.5 -3.5,2.5 	"/>
	<line fill="none" stroke="#ECECEC" stroke-miterlimit="10" x1="-0.5" y1="6" x2="-0.5" y2="4"/>
	<polygon display="none" fill="none" points="-11,11 11,11 11,-11 -11,-11 	"/>
</symbol>
<symbol  id="share" viewBox="-11 -11 22 22">
	<polygon fill="none" stroke="#FFFFFF" stroke-miterlimit="10" points="10.5,-10.5 -10.5,-10.5 -10.5,10.5 10.5,10.5 	"/>
	<path fill="none" stroke="#FFFFFF" stroke-miterlimit="10" d="M-4.4,0c0-1-0.8-1.8-1.8-1.8S-8-1-8,0s0.8,1.8,1.8,1.8S-4.4,1-4.4,0z
		"/>
	<path fill="none" stroke="#FFFFFF" stroke-miterlimit="10" d="M7.6,6c0-1-0.8-1.8-1.8-1.8S4,5,4,6s0.8,1.8,1.8,1.8S7.6,7,7.6,6z"/>
	<path fill="none" stroke="#FFFFFF" stroke-miterlimit="10" d="M7.6-6c0-1-0.8-1.8-1.8-1.8S4-7,4-6s0.8,1.8,1.8,1.8S7.6-5,7.6-6z"/>
	<line fill="none" stroke="#FFFFFF" stroke-miterlimit="10" x1="4.3" y1="-5" x2="-4.7" y2="-0.9"/>
	<line fill="none" stroke="#FFFFFF" stroke-miterlimit="10" x1="-4.8" y1="1.1" x2="4.2" y2="5.2"/>
</symbol>
<symbol  id="view" viewBox="-11 -11 22 22">
	<polygon fill="none" stroke="#ECECEC" stroke-miterlimit="10" points="-10.5,10.5 10.5,10.5 10.5,-10.5 -10.5,-10.5 	"/>
	<polygon fill="none" stroke="#ECECEC" stroke-miterlimit="10" points="-4.5,4.5 -7.5,4.5 -7.5,7.5 -4.5,7.5 	"/>
	<polygon fill="none" stroke="#ECECEC" stroke-miterlimit="10" points="1.5,4.5 -1.5,4.5 -1.5,7.5 1.5,7.5 	"/>
	<polygon fill="none" stroke="#ECECEC" stroke-miterlimit="10" points="7.5,4.5 4.5,4.5 4.5,7.5 7.5,7.5 	"/>
	<polygon fill="none" stroke="#ECECEC" stroke-miterlimit="10" points="-4.5,-1.5 -7.5,-1.5 -7.5,1.5 -4.5,1.5 	"/>
	<polygon fill="none" stroke="#ECECEC" stroke-miterlimit="10" points="1.5,-1.5 -1.5,-1.5 -1.5,1.5 1.5,1.5 	"/>
	<polygon fill="none" stroke="#ECECEC" stroke-miterlimit="10" points="7.5,-1.5 4.5,-1.5 4.5,1.5 7.5,1.5 	"/>
	<polygon fill="none" stroke="#ECECEC" stroke-miterlimit="10" points="-4.5,-7.5 -7.5,-7.5 -7.5,-4.5 -4.5,-4.5 	"/>
	<polygon fill="none" stroke="#ECECEC" stroke-miterlimit="10" points="1.5,-7.5 -1.5,-7.5 -1.5,-4.5 1.5,-4.5 	"/>
	<polygon fill="none" stroke="#ECECEC" stroke-miterlimit="10" points="7.5,-7.5 4.5,-7.5 4.5,-4.5 7.5,-4.5 	"/>
	<polygon display="none" fill="none" points="-11,11 11,11 11,-11 -11,-11 	"/>
</symbol>
<g id="Background">
</g>
<g id="grid">
</g>
<g id="_x31_st_ime_UX">
</g>
<g id="profile_pics">
	<g>
		<path fill="#FFFFFF" d="M32.1,39c0.2-0.2,0.3-0.5,0.3-0.8c-0.5-5.1-4.9-9-9.9-9c-5,0-9.4,4-9.9,9c0,0.3,0.1,0.6,0.3,0.8
			c0.2,0.2,0.4,0.3,0.6,0.3h18C31.7,39.3,31.9,39.2,32.1,39z M13.2,38.3c0.5-4.7,4.5-8.4,9.2-8.4c4.7,0,8.7,3.7,9.2,8.4
			c0,0.1,0,0.2-0.1,0.2c0,0-0.1,0.1-0.1,0.1h-18c0,0-0.1,0-0.1-0.1C13.2,38.5,13.2,38.4,13.2,38.3z"/>
		<path fill="#FFFFFF" d="M24.4,22.4h-3.6c-0.3,0-0.6,0.2-0.7,0.4c-0.1,0.2-0.2,0.5-0.1,0.7c0.3,0.6,1,1.7,2.6,1.7
			c1.6,0,2.4-1.1,2.6-1.7c0.1-0.2,0.1-0.5-0.1-0.7C25,22.5,24.7,22.4,24.4,22.4z M20.6,23.2C20.6,23.2,20.6,23.2,20.6,23.2
			c0.1-0.1,0.1-0.2,0.2-0.2h3.6c0.1,0,0.1,0,0.2,0.1c-0.3,0.6-0.8,1.3-2,1.3C21.4,24.5,20.8,23.8,20.6,23.2z"/>
		<path fill="#FFFFFF" d="M14.8,7.9c-0.1,0-0.2,0-0.3,0.1c-0.1,0.1-0.1,0.2-0.1,0.3V9c0,0-0.1,0-0.1,0c-0.1,0.1-0.2,0.2-0.2,0.4
			c0,0.2,0.7,6,2.4,9.3v3.5c0,3.5,2.7,6.3,6.1,6.4c0,0,0,0,0,0h0.1c0,0,0,0,0,0c3.6-0.1,6.4-2.7,6.4-6.1l0-3.7c0.3-1.6,1-5.3,1-7.1
			c0-0.1,0-0.1-0.1-0.2c-0.4-0.7-0.7-0.9-1-0.9c-0.1,0-0.3,0.1-0.3,0.1c0,0,0,0,0,0L26.7,9c-0.1-0.1-0.2-0.1-0.3-0.1
			c-0.1,0-0.2,0.1-0.2,0.2L26,9.6c-0.8-0.6-2.7-2-4-2.2c-0.1,0-0.2,0-0.3,0.1c0,0,0,0.1-0.1,0.1c-0.1,0-0.1,0-0.3,0
			c-0.6,0-1.5-0.2-2-0.2c-0.2,0-0.3-0.1-0.4-0.1c-0.2,0-0.3,0.1-0.4,0.3c0,0.1,0.1,0.3,0.2,0.4c0,0,0,0.1-0.1,0.1L14.8,7.9z
			 M19.2,8.7c0.1-0.1,0.2-0.3,0.2-0.6c0.5,0.1,1.3,0.2,1.9,0.2c0.3,0,0.6,0,0.8-0.2c1.2,0.3,3,1.7,3.7,2.2c0.1,0.1,0.2,0.1,0.3,0.1
			c0.1,0,0.2-0.1,0.2-0.2l0.2-0.5l2.2,1.7c0.1,0.1,0.3,0.1,0.4,0c0,0,0.1-0.1,0.1-0.1c0,0.1,0.1,0.1,0.2,0.2c0,1.4-0.4,3.9-0.7,5.6
			c-0.4-1.7-1.2-2.8-1.8-3.5c-0.2-0.3-0.4-0.6-0.5-0.8c0-0.1-0.1-0.2-0.2-0.2c0,0-0.1,0-0.1,0c-0.1,0-0.1,0-0.2,0
			c-0.9,0.5-4.6,0.9-7,0.9c-0.4,0-0.8,0-1.1,0c-0.1-0.1-0.3-0.1-0.5,0.3l-0.1,0c0,0.1,0,0.1,0,0.2c-0.3,0.7-0.5,2.2-0.7,3.3
			c-1-2.5-1.5-5.8-1.7-7.2c0,0,0,0,0,0c0.1-0.1,0.2-0.2,0.2-0.3v-1l3.8,0.2C19,8.9,19.2,8.8,19.2,8.7z M22.6,27.8
			c-3.4,0-5.5-3-5.5-5.7v-3.6c0.1-1.1,0.4-2.8,0.6-3.7c0.1-0.2,0.2-0.3,0.3-0.5c0.3,0,0.5,0,0.9,0c2,0,5.5-0.3,7-0.8
			c0.1,0.2,0.3,0.4,0.5,0.7c0.7,0.9,1.8,2.4,1.9,5.2c0,0.1,0.1,0.2,0.1,0.2l0,2.8C28.5,25.4,25.9,27.8,22.6,27.8z"/>
	</g>
</g>
<g id="create-Viz">
</g>
<g id="graph">
</g>
<g id="data_panel">
</g>
<g id="archive_panel">
</g>
<g id="appearance-panel">
</g>
<g id="cursors">
</g>
</svg>
