<?xml version="1.0" encoding="utf-8"?>
<!-- Generator: Adobe Illustrator 18.1.1, SVG Export Plug-In . SVG Version: 6.00 Build 0)  -->
<svg version="1.1" xmlns="http://www.w3.org/2000/svg" xmlns:xlink="http://www.w3.org/1999/xlink" x="0px" y="0px"
	 viewBox="0 0 45 45" enable-background="new 0 0 45 45" xml:space="preserve">
<symbol  id="close" viewBox="-7 -6.7 14 13.4">
	<line fill="none" stroke="#FFFFFF" stroke-width="0.5" stroke-miterlimit="10" x1="6.5" y1="-6.5" x2="-6.5" y2="6.5"/>
	<line fill="none" stroke="#FFFFFF" stroke-width="0.5" stroke-miterlimit="10" x1="6.5" y1="6.5" x2="-6.5" y2="-6.5"/>
	<polygon display="none" fill="none" points="-7,6 7,6 7,-6 -7,-6 	"/>
</symbol>
<symbol  id="expand" viewBox="-11 -11 22 22">
	<polygon fill="none" stroke="#ECECEC" stroke-miterlimit="10" points="-10.5,10.5 10.5,10.5 10.5,-10.5 -10.5,-10.5 	"/>
	<polyline fill="none" stroke="#ECECEC" stroke-miterlimit="10" points="7.5,-4 7.5,-7.5 4,-7.5 	"/>
	<polyline fill="none" stroke="#ECECEC" stroke-miterlimit="10" points="-4,7.5 -7.5,7.5 -7.5,4 	"/>
	<polyline fill="none" stroke="#ECECEC" stroke-miterlimit="10" points="7.5,4 7.5,7.5 4,7.5 	"/>
	<polyline fill="none" stroke="#ECECEC" stroke-miterlimit="10" points="-4,-7.5 -7.5,-7.5 -7.5,-4 	"/>
	<line fill="none" stroke="#ECECEC" stroke-miterlimit="10" x1="7" y1="-7" x2="3" y2="-3"/>
	<line fill="none" stroke="#ECECEC" stroke-miterlimit="10" x1="-7" y1="7" x2="-3" y2="3"/>
	<line fill="none" stroke="#ECECEC" stroke-miterlimit="10" x1="7" y1="7" x2="3" y2="3"/>
	<line fill="none" stroke="#ECECEC" stroke-miterlimit="10" x1="-7" y1="-7" x2="-3" y2="-3"/>
	<polygon display="none" fill="none" points="-11,11 11,11 11,-11 -11,-11 	"/>
</symbol>
<symbol  id="save" viewBox="-11 -11 22 22">
	<polygon fill="none" stroke="#ECECEC" stroke-miterlimit="10" points="10.5,-10.5 -10.5,-10.5 -10.5,10.5 10.5,10.5 	"/>
	<polygon fill="none" stroke="#ECECEC" stroke-miterlimit="10" points="-3.5,5.5 -5.5,5.5 -5.5,-5.5 5.5,-5.5 5.5,3 3,5.5 1.5,5.5 
		1.5,2.5 -3.5,2.5 	"/>
	<line fill="none" stroke="#ECECEC" stroke-miterlimit="10" x1="-0.5" y1="6" x2="-0.5" y2="4"/>
	<polygon display="none" fill="none" points="-11,11 11,11 11,-11 -11,-11 	"/>
</symbol>
<symbol  id="share" viewBox="-11 -11 22 22">
	<polygon fill="none" stroke="#FFFFFF" stroke-miterlimit="10" points="10.5,-10.5 -10.5,-10.5 -10.5,10.5 10.5,10.5 	"/>
	<path fill="none" stroke="#FFFFFF" stroke-miterlimit="10" d="M-4.4,0c0-1-0.8-1.8-1.8-1.8S-8-1-8,0s0.8,1.8,1.8,1.8S-4.4,1-4.4,0z
		"/>
	<path fill="none" stroke="#FFFFFF" stroke-miterlimit="10" d="M7.6,6c0-1-0.8-1.8-1.8-1.8S4,5,4,6s0.8,1.8,1.8,1.8S7.6,7,7.6,6z"/>
	<path fill="none" stroke="#FFFFFF" stroke-miterlimit="10" d="M7.6-6c0-1-0.8-1.8-1.8-1.8S4-7,4-6s0.8,1.8,1.8,1.8S7.6-5,7.6-6z"/>
	<line fill="none" stroke="#FFFFFF" stroke-miterlimit="10" x1="4.3" y1="-5" x2="-4.7" y2="-0.9"/>
	<line fill="none" stroke="#FFFFFF" stroke-miterlimit="10" x1="-4.8" y1="1.1" x2="4.2" y2="5.2"/>
</symbol>
<symbol  id="view" viewBox="-11 -11 22 22">
	<polygon fill="none" stroke="#ECECEC" stroke-miterlimit="10" points="-10.5,10.5 10.5,10.5 10.5,-10.5 -10.5,-10.5 	"/>
	<polygon fill="none" stroke="#ECECEC" stroke-miterlimit="10" points="-4.5,4.5 -7.5,4.5 -7.5,7.5 -4.5,7.5 	"/>
	<polygon fill="none" stroke="#ECECEC" stroke-miterlimit="10" points="1.5,4.5 -1.5,4.5 -1.5,7.5 1.5,7.5 	"/>
	<polygon fill="none" stroke="#ECECEC" stroke-miterlimit="10" points="7.5,4.5 4.5,4.5 4.5,7.5 7.5,7.5 	"/>
	<polygon fill="none" stroke="#ECECEC" stroke-miterlimit="10" points="-4.5,-1.5 -7.5,-1.5 -7.5,1.5 -4.5,1.5 	"/>
	<polygon fill="none" stroke="#ECECEC" stroke-miterlimit="10" points="1.5,-1.5 -1.5,-1.5 -1.5,1.5 1.5,1.5 	"/>
	<polygon fill="none" stroke="#ECECEC" stroke-miterlimit="10" points="7.5,-1.5 4.5,-1.5 4.5,1.5 7.5,1.5 	"/>
	<polygon fill="none" stroke="#ECECEC" stroke-miterlimit="10" points="-4.5,-7.5 -7.5,-7.5 -7.5,-4.5 -4.5,-4.5 	"/>
	<polygon fill="none" stroke="#ECECEC" stroke-miterlimit="10" points="1.5,-7.5 -1.5,-7.5 -1.5,-4.5 1.5,-4.5 	"/>
	<polygon fill="none" stroke="#ECECEC" stroke-miterlimit="10" points="7.5,-7.5 4.5,-7.5 4.5,-4.5 7.5,-4.5 	"/>
	<polygon display="none" fill="none" points="-11,11 11,11 11,-11 -11,-11 	"/>
</symbol>
<g id="Background">
</g>
<g id="grid">
</g>
<g id="_x31_st_ime_UX">
</g>
<g id="profile_pics">
	<g>
		<path fill="#FFFFFF" d="M21.5,25.8L21.5,25.8c3.6,0,6.3-3,6.3-7l0.1-2.8c0,0,0,0,0,0c0.5-3,0.1-5.2-1.1-6.7
			c-1.4-1.7-3.4-2-4.9-2.1c-0.7,0-1.2-0.1-1.7-0.1c-1.1-0.1-1.7-0.1-2.4,0.5l-0.1,0.1c-2.1,1.7-3.1,4.3-3,7.8c0,0,0,0,0,0
			c0,0,0,0,0,0.1V19C14.8,22.7,17.8,25.8,21.5,25.8z M15.7,12.5c0.6-2.7,2-3.9,2.5-4.3l0.1-0.1c0.7-0.6,1-0.4,1.8-0.3
			c0.4,0.1,1,0.1,1.7,0.2C23.2,8,25,8.2,26.2,9.7c0.8,1,1.2,2.4,1.2,4.2c-0.2-0.5-0.4-0.9-0.6-1.3c-0.3-0.7-0.6-1.2-0.7-2
			c0-0.1-0.1-0.2-0.1-0.2c-0.1,0-0.1-0.1-0.2-0.1c0,0,0,0-0.1,0c-0.6,0.1-1.5-0.2-2.3-0.5c-0.8-0.3-1.5-0.5-1.9-0.4
			c-0.4-0.2-0.9-0.3-1.3-0.3C18.2,9.2,16.7,10.8,15.7,12.5z M15.5,19v-3.5c0-0.1,0-0.2,0-0.3c0.2-1.7,2.1-5.2,4.6-5.2
			c0.4,0,0.8,0.1,1.2,0.3c0.1,0,0.2,0,0.3,0c0,0,0,0,0.1,0c0.3,0,0.8,0.2,1.3,0.4c0.8,0.3,1.6,0.6,2.3,0.6c0.2,0.7,0.4,1.3,0.7,1.8
			c0.4,0.8,0.8,1.6,1,3l-0.1,2.9c0,3.6-2.4,6.3-5.6,6.3h0C18.2,25.1,15.5,22.3,15.5,19z"/>
		<path fill="#FFFFFF" d="M22.8,16.2l2.8,0.3c0,0,0.1,0,0.1,0c0.4,0,0.7-0.3,0.8-0.7c0-0.2,0-0.4-0.2-0.6c-0.1-0.2-0.3-0.3-0.5-0.3
			l-2.9-0.3c-0.4,0-0.7,0.3-0.8,0.7C22,15.8,22.4,16.1,22.8,16.2z M25.7,15.7l-2.8-0.3c0,0-0.1,0-0.1-0.1c0,0,0-0.1,0.1-0.1h0
			l2.8,0.3C25.8,15.6,25.8,15.6,25.7,15.7C25.8,15.7,25.7,15.7,25.7,15.7l0,0.4L25.7,15.7z"/>
		<path fill="#FFFFFF" d="M20.8,15.9c0.1-0.2,0.2-0.4,0.2-0.6c0-0.4-0.4-0.7-0.8-0.7c0,0,0,0,0,0l-2.8,0.3c-0.2,0-0.4,0.1-0.5,0.3
			c-0.1,0.2-0.2,0.4-0.2,0.6c0,0.4,0.4,0.7,0.8,0.7c0,0,0.1,0,0.1,0l2.8-0.3C20.4,16.2,20.6,16.1,20.8,15.9z M17.3,15.7
			C17.3,15.7,17.2,15.7,17.3,15.7c-0.1-0.1,0-0.2,0-0.2l2.9-0.3c0,0,0.1,0,0.1,0.1c0,0,0,0.1-0.1,0.1L17.3,15.7v0.4V15.7z"/>
		<path fill="#FFFFFF" d="M31.1,37c0.2-0.3,0.4-0.7,0.3-1c-0.5-5.2-4.9-9.2-9.9-9.2c-5,0-9.4,4-9.9,9.2c0,0.3,0.1,0.7,0.3,1
			c0.2,0.2,0.4,0.3,0.6,0.3h18C30.7,37.3,30.9,37.2,31.1,37z M12.5,36.6c-0.1,0-0.2-0.3-0.2-0.5c0.5-4.8,4.6-8.6,9.2-8.6
			c4.7,0,8.7,3.8,9.2,8.6c0,0.2-0.1,0.4-0.2,0.5L12.5,36.6z"/>
		<path fill="#FFFFFF" d="M23.9,21.2c0.1-0.2,0.1-0.4-0.1-0.6c-0.1-0.2-0.4-0.3-0.7-0.3h-3.3c-0.3,0-0.6,0.1-0.7,0.3
			c-0.1,0.2-0.1,0.4,0,0.6c0.2,0.6,0.9,1.6,2.4,1.6C23.1,22.8,23.7,21.8,23.9,21.2z M19.8,21C19.8,21,19.8,21,19.8,21l3.4,0
			c0,0,0.1,0,0.1,0c-0.2,0.5-0.7,1.1-1.8,1.1C20.5,22.1,20,21.5,19.8,21z"/>
	</g>
</g>
<g id="create-Viz">
</g>
<g id="graph">
</g>
<g id="data_panel">
</g>
<g id="archive_panel">
</g>
<g id="appearance-panel">
</g>
<g id="cursors">
</g>
</svg>
