<?xml version="1.0" encoding="utf-8"?>
<!-- Generator: Adobe Illustrator 18.1.1, SVG Export Plug-In . SVG Version: 6.00 Build 0)  -->
<svg version="1.1" xmlns="http://www.w3.org/2000/svg" xmlns:xlink="http://www.w3.org/1999/xlink" x="0px" y="0px"
	 viewBox="0 0 45 45" enable-background="new 0 0 45 45" xml:space="preserve">
<symbol  id="close" viewBox="-7 -6.7 14 13.4">
	<line fill="none" stroke="#FFFFFF" stroke-width="0.5" stroke-miterlimit="10" x1="6.5" y1="-6.5" x2="-6.5" y2="6.5"/>
	<line fill="none" stroke="#FFFFFF" stroke-width="0.5" stroke-miterlimit="10" x1="6.5" y1="6.5" x2="-6.5" y2="-6.5"/>
	<polygon display="none" fill="none" points="-7,6 7,6 7,-6 -7,-6 	"/>
</symbol>
<symbol  id="expand" viewBox="-11 -11 22 22">
	<polygon fill="none" stroke="#ECECEC" stroke-miterlimit="10" points="-10.5,10.5 10.5,10.5 10.5,-10.5 -10.5,-10.5 	"/>
	<polyline fill="none" stroke="#ECECEC" stroke-miterlimit="10" points="7.5,-4 7.5,-7.5 4,-7.5 	"/>
	<polyline fill="none" stroke="#ECECEC" stroke-miterlimit="10" points="-4,7.5 -7.5,7.5 -7.5,4 	"/>
	<polyline fill="none" stroke="#ECECEC" stroke-miterlimit="10" points="7.5,4 7.5,7.5 4,7.5 	"/>
	<polyline fill="none" stroke="#ECECEC" stroke-miterlimit="10" points="-4,-7.5 -7.5,-7.5 -7.5,-4 	"/>
	<line fill="none" stroke="#ECECEC" stroke-miterlimit="10" x1="7" y1="-7" x2="3" y2="-3"/>
	<line fill="none" stroke="#ECECEC" stroke-miterlimit="10" x1="-7" y1="7" x2="-3" y2="3"/>
	<line fill="none" stroke="#ECECEC" stroke-miterlimit="10" x1="7" y1="7" x2="3" y2="3"/>
	<line fill="none" stroke="#ECECEC" stroke-miterlimit="10" x1="-7" y1="-7" x2="-3" y2="-3"/>
	<polygon display="none" fill="none" points="-11,11 11,11 11,-11 -11,-11 	"/>
</symbol>
<symbol  id="save" viewBox="-11 -11 22 22">
	<polygon fill="none" stroke="#ECECEC" stroke-miterlimit="10" points="10.5,-10.5 -10.5,-10.5 -10.5,10.5 10.5,10.5 	"/>
	<polygon fill="none" stroke="#ECECEC" stroke-miterlimit="10" points="-3.5,5.5 -5.5,5.5 -5.5,-5.5 5.5,-5.5 5.5,3 3,5.5 1.5,5.5 
		1.5,2.5 -3.5,2.5 	"/>
	<line fill="none" stroke="#ECECEC" stroke-miterlimit="10" x1="-0.5" y1="6" x2="-0.5" y2="4"/>
	<polygon display="none" fill="none" points="-11,11 11,11 11,-11 -11,-11 	"/>
</symbol>
<symbol  id="share" viewBox="-11 -11 22 22">
	<polygon fill="none" stroke="#FFFFFF" stroke-miterlimit="10" points="10.5,-10.5 -10.5,-10.5 -10.5,10.5 10.5,10.5 	"/>
	<path fill="none" stroke="#FFFFFF" stroke-miterlimit="10" d="M-4.4,0c0-1-0.8-1.8-1.8-1.8S-8-1-8,0s0.8,1.8,1.8,1.8S-4.4,1-4.4,0z
		"/>
	<path fill="none" stroke="#FFFFFF" stroke-miterlimit="10" d="M7.6,6c0-1-0.8-1.8-1.8-1.8S4,5,4,6s0.8,1.8,1.8,1.8S7.6,7,7.6,6z"/>
	<path fill="none" stroke="#FFFFFF" stroke-miterlimit="10" d="M7.6-6c0-1-0.8-1.8-1.8-1.8S4-7,4-6s0.8,1.8,1.8,1.8S7.6-5,7.6-6z"/>
	<line fill="none" stroke="#FFFFFF" stroke-miterlimit="10" x1="4.3" y1="-5" x2="-4.7" y2="-0.9"/>
	<line fill="none" stroke="#FFFFFF" stroke-miterlimit="10" x1="-4.8" y1="1.1" x2="4.2" y2="5.2"/>
</symbol>
<symbol  id="view" viewBox="-11 -11 22 22">
	<polygon fill="none" stroke="#ECECEC" stroke-miterlimit="10" points="-10.5,10.5 10.5,10.5 10.5,-10.5 -10.5,-10.5 	"/>
	<polygon fill="none" stroke="#ECECEC" stroke-miterlimit="10" points="-4.5,4.5 -7.5,4.5 -7.5,7.5 -4.5,7.5 	"/>
	<polygon fill="none" stroke="#ECECEC" stroke-miterlimit="10" points="1.5,4.5 -1.5,4.5 -1.5,7.5 1.5,7.5 	"/>
	<polygon fill="none" stroke="#ECECEC" stroke-miterlimit="10" points="7.5,4.5 4.5,4.5 4.5,7.5 7.5,7.5 	"/>
	<polygon fill="none" stroke="#ECECEC" stroke-miterlimit="10" points="-4.5,-1.5 -7.5,-1.5 -7.5,1.5 -4.5,1.5 	"/>
	<polygon fill="none" stroke="#ECECEC" stroke-miterlimit="10" points="1.5,-1.5 -1.5,-1.5 -1.5,1.5 1.5,1.5 	"/>
	<polygon fill="none" stroke="#ECECEC" stroke-miterlimit="10" points="7.5,-1.5 4.5,-1.5 4.5,1.5 7.5,1.5 	"/>
	<polygon fill="none" stroke="#ECECEC" stroke-miterlimit="10" points="-4.5,-7.5 -7.5,-7.5 -7.5,-4.5 -4.5,-4.5 	"/>
	<polygon fill="none" stroke="#ECECEC" stroke-miterlimit="10" points="1.5,-7.5 -1.5,-7.5 -1.5,-4.5 1.5,-4.5 	"/>
	<polygon fill="none" stroke="#ECECEC" stroke-miterlimit="10" points="7.5,-7.5 4.5,-7.5 4.5,-4.5 7.5,-4.5 	"/>
	<polygon display="none" fill="none" points="-11,11 11,11 11,-11 -11,-11 	"/>
</symbol>
<g id="Background">
</g>
<g id="grid">
</g>
<g id="_x31_st_ime_UX">
</g>
<g id="profile_pics">
	<g>
		<path fill="#FFFFFF" d="M16.6,11.5c-0.9,0.8-0.9,2.9-0.8,4.9c0,0.3-0.1,0.5-0.1,0.8v4.9c0,3.4,3.1,6.4,6.7,6.4c0,0,0,0,0,0h0
			c0,0,0,0,0,0c3.7,0,6.5-2.7,6.5-6.1l0-4.3c0.3-1.6,0-5.2-1.6-6c-1.3-2-3-3-5.1-3C19.9,9.1,17.7,10.6,16.6,11.5z M27.1,12.7
			c1,0.4,1.5,3.1,1.3,4.8c-0.5-0.8-1.1-2.3-1.5-4c0-0.1-0.1-0.2-0.2-0.2c-0.1,0-0.1,0-0.2,0c0,0-0.1,0-0.1,0
			c-0.6,0.2-1.4-0.1-2.3-0.3c-0.8-0.3-1.7-0.6-2.7-0.6c-1.6,0-3.2,0.8-4.8,2.4c0,0-0.1,0.1-0.1,0.1c-0.1,0.2-0.2,0.4-0.2,0.6
			c0-1.4,0.1-2.9,0.6-3.4c1-0.8,3.1-2.2,5.3-2.2c1.8,0,3.3,0.9,4.5,2.7C27,12.6,27,12.7,27.1,12.7z M22.4,27.8c-3.2,0-6-2.7-6-5.7
			v-3.6c0.1,0,0.1-0.1,0.1-0.2c0.1-0.4,0.2-0.8,0.2-1.1c0.1-0.7,0.2-1.2,0.5-2c1.5-1.5,2.8-2.1,4.2-2.1c0.9,0,1.7,0.3,2.5,0.5
			c0.8,0.3,1.6,0.5,2.4,0.4c0.3,1,1.1,3.6,2,4.4l0,4C28.3,25.4,25.7,27.8,22.4,27.8z"/>
		<path fill="#FFFFFF" d="M22.4,29.2c-5,0-9.4,4-9.9,9c0,0.3,0.1,0.6,0.3,0.8c0.2,0.2,0.4,0.3,0.6,0.3h18c0.2,0,0.5-0.1,0.6-0.3
			c0.2-0.2,0.3-0.5,0.3-0.8C31.8,33.2,27.5,29.2,22.4,29.2z M31.6,38.6c0,0-0.1,0.1-0.1,0.1h-18c0,0-0.1,0-0.1-0.1
			c-0.1-0.1-0.1-0.2-0.1-0.2c0.5-4.7,4.5-8.4,9.2-8.4c4.7,0,8.7,3.7,9.2,8.4C31.7,38.4,31.6,38.5,31.6,38.6z"/>
		<path fill="#FFFFFF" d="M26.1,18l-2.6-0.2c-0.4,0-0.7,0.3-0.7,0.7c0,0.2,0,0.4,0.2,0.5s0.3,0.2,0.5,0.3l2.5,0.2c0,0,0.1,0,0.1,0
			c0.4,0,0.7-0.3,0.7-0.7C26.8,18.4,26.5,18.1,26.1,18z M26,18.8l-2.5-0.3L26,18.8C26.1,18.8,26,18.8,26,18.8l0,0.4L26,18.8z"/>
		<path fill="#FFFFFF" d="M22.1,18.5c0-0.4-0.4-0.7-0.8-0.7c0,0,0,0,0,0L18.8,18c-0.4,0-0.7,0.4-0.7,0.8c0,0.4,0.4,0.7,0.7,0.7
			c0,0,0.1,0,0.1,0l2.5-0.2C21.8,19.2,22.1,18.9,22.1,18.5z M18.8,18.7l2.5-0.2L18.8,18.7l0,0.4L18.8,18.7z"/>
		<path fill="#FFFFFF" d="M24.3,22.4h-3.6c-0.3,0-0.6,0.1-0.8,0.4c-0.1,0.2-0.2,0.4-0.1,0.7c0.3,0.6,1,1.7,2.6,1.7
			c1.7,0,2.4-1,2.6-1.7c0.1-0.2,0.1-0.5-0.1-0.7C24.9,22.5,24.6,22.4,24.3,22.4z M20.4,23.1c0,0,0.1-0.1,0.2-0.1h3.6
			c0.1,0,0.2,0.1,0.2,0.1c-0.2,0.6-0.8,1.2-2,1.2C21.2,24.4,20.7,23.7,20.4,23.1z"/>
	</g>
</g>
<g id="create-Viz">
</g>
<g id="graph">
</g>
<g id="data_panel">
</g>
<g id="archive_panel">
</g>
<g id="appearance-panel">
</g>
<g id="cursors">
</g>
</svg>
