<?xml version="1.0" encoding="utf-8"?>
<!-- Generator: Adobe Illustrator 18.1.1, SVG Export Plug-In . SVG Version: 6.00 Build 0)  -->
<svg version="1.1" xmlns="http://www.w3.org/2000/svg" xmlns:xlink="http://www.w3.org/1999/xlink" x="0px" y="0px"
	 viewBox="0 0 45 45" enable-background="new 0 0 45 45" xml:space="preserve">
<symbol  id="close" viewBox="-7 -6.7 14 13.4">
	<line fill="none" stroke="#FFFFFF" stroke-width="0.5" stroke-miterlimit="10" x1="6.5" y1="-6.5" x2="-6.5" y2="6.5"/>
	<line fill="none" stroke="#FFFFFF" stroke-width="0.5" stroke-miterlimit="10" x1="6.5" y1="6.5" x2="-6.5" y2="-6.5"/>
	<polygon display="none" fill="none" points="-7,6 7,6 7,-6 -7,-6 	"/>
</symbol>
<symbol  id="expand" viewBox="-11 -11 22 22">
	<polygon fill="none" stroke="#ECECEC" stroke-miterlimit="10" points="-10.5,10.5 10.5,10.5 10.5,-10.5 -10.5,-10.5 	"/>
	<polyline fill="none" stroke="#ECECEC" stroke-miterlimit="10" points="7.5,-4 7.5,-7.5 4,-7.5 	"/>
	<polyline fill="none" stroke="#ECECEC" stroke-miterlimit="10" points="-4,7.5 -7.5,7.5 -7.5,4 	"/>
	<polyline fill="none" stroke="#ECECEC" stroke-miterlimit="10" points="7.5,4 7.5,7.5 4,7.5 	"/>
	<polyline fill="none" stroke="#ECECEC" stroke-miterlimit="10" points="-4,-7.5 -7.5,-7.5 -7.5,-4 	"/>
	<line fill="none" stroke="#ECECEC" stroke-miterlimit="10" x1="7" y1="-7" x2="3" y2="-3"/>
	<line fill="none" stroke="#ECECEC" stroke-miterlimit="10" x1="-7" y1="7" x2="-3" y2="3"/>
	<line fill="none" stroke="#ECECEC" stroke-miterlimit="10" x1="7" y1="7" x2="3" y2="3"/>
	<line fill="none" stroke="#ECECEC" stroke-miterlimit="10" x1="-7" y1="-7" x2="-3" y2="-3"/>
	<polygon display="none" fill="none" points="-11,11 11,11 11,-11 -11,-11 	"/>
</symbol>
<symbol  id="save" viewBox="-11 -11 22 22">
	<polygon fill="none" stroke="#ECECEC" stroke-miterlimit="10" points="10.5,-10.5 -10.5,-10.5 -10.5,10.5 10.5,10.5 	"/>
	<polygon fill="none" stroke="#ECECEC" stroke-miterlimit="10" points="-3.5,5.5 -5.5,5.5 -5.5,-5.5 5.5,-5.5 5.5,3 3,5.5 1.5,5.5 
		1.5,2.5 -3.5,2.5 	"/>
	<line fill="none" stroke="#ECECEC" stroke-miterlimit="10" x1="-0.5" y1="6" x2="-0.5" y2="4"/>
	<polygon display="none" fill="none" points="-11,11 11,11 11,-11 -11,-11 	"/>
</symbol>
<symbol  id="share" viewBox="-11 -11 22 22">
	<polygon fill="none" stroke="#FFFFFF" stroke-miterlimit="10" points="10.5,-10.5 -10.5,-10.5 -10.5,10.5 10.5,10.5 	"/>
	<path fill="none" stroke="#FFFFFF" stroke-miterlimit="10" d="M-4.4,0c0-1-0.8-1.8-1.8-1.8S-8-1-8,0s0.8,1.8,1.8,1.8S-4.4,1-4.4,0z
		"/>
	<path fill="none" stroke="#FFFFFF" stroke-miterlimit="10" d="M7.6,6c0-1-0.8-1.8-1.8-1.8S4,5,4,6s0.8,1.8,1.8,1.8S7.6,7,7.6,6z"/>
	<path fill="none" stroke="#FFFFFF" stroke-miterlimit="10" d="M7.6-6c0-1-0.8-1.8-1.8-1.8S4-7,4-6s0.8,1.8,1.8,1.8S7.6-5,7.6-6z"/>
	<line fill="none" stroke="#FFFFFF" stroke-miterlimit="10" x1="4.3" y1="-5" x2="-4.7" y2="-0.9"/>
	<line fill="none" stroke="#FFFFFF" stroke-miterlimit="10" x1="-4.8" y1="1.1" x2="4.2" y2="5.2"/>
</symbol>
<symbol  id="view" viewBox="-11 -11 22 22">
	<polygon fill="none" stroke="#ECECEC" stroke-miterlimit="10" points="-10.5,10.5 10.5,10.5 10.5,-10.5 -10.5,-10.5 	"/>
	<polygon fill="none" stroke="#ECECEC" stroke-miterlimit="10" points="-4.5,4.5 -7.5,4.5 -7.5,7.5 -4.5,7.5 	"/>
	<polygon fill="none" stroke="#ECECEC" stroke-miterlimit="10" points="1.5,4.5 -1.5,4.5 -1.5,7.5 1.5,7.5 	"/>
	<polygon fill="none" stroke="#ECECEC" stroke-miterlimit="10" points="7.5,4.5 4.5,4.5 4.5,7.5 7.5,7.5 	"/>
	<polygon fill="none" stroke="#ECECEC" stroke-miterlimit="10" points="-4.5,-1.5 -7.5,-1.5 -7.5,1.5 -4.5,1.5 	"/>
	<polygon fill="none" stroke="#ECECEC" stroke-miterlimit="10" points="1.5,-1.5 -1.5,-1.5 -1.5,1.5 1.5,1.5 	"/>
	<polygon fill="none" stroke="#ECECEC" stroke-miterlimit="10" points="7.5,-1.5 4.5,-1.5 4.5,1.5 7.5,1.5 	"/>
	<polygon fill="none" stroke="#ECECEC" stroke-miterlimit="10" points="-4.5,-7.5 -7.5,-7.5 -7.5,-4.5 -4.5,-4.5 	"/>
	<polygon fill="none" stroke="#ECECEC" stroke-miterlimit="10" points="1.5,-7.5 -1.5,-7.5 -1.5,-4.5 1.5,-4.5 	"/>
	<polygon fill="none" stroke="#ECECEC" stroke-miterlimit="10" points="7.5,-7.5 4.5,-7.5 4.5,-4.5 7.5,-4.5 	"/>
	<polygon display="none" fill="none" points="-11,11 11,11 11,-11 -11,-11 	"/>
</symbol>
<g id="Background">
</g>
<g id="grid">
</g>
<g id="_x31_st_ime_UX">
</g>
<g id="profile_pics">
	<g>
		<path fill="#FFFFFF" d="M32.1,39.1c0.1-0.2,0.2-0.4,0.2-0.6c-0.5-5-4.8-8.8-9.9-8.8s-9.4,3.8-9.9,8.8c0,0.2,0,0.4,0.2,0.6
			c0.2,0.2,0.4,0.3,0.7,0.3h18C31.7,39.3,31.9,39.2,32.1,39.1z M13.1,38.5c0.5-4.7,4.5-8.2,9.2-8.2s8.7,3.5,9.2,8.3
			c0,0-0.1,0.1-0.2,0.1h-18C13.2,38.6,13.2,38.6,13.1,38.5z"/>
		<path fill="#FFFFFF" d="M27.5,10.4c-1.2-1.6-3.1-2.5-5.2-2.5c-2.8,0-5.4,1.5-6.7,3.6c-0.8,1.4-0.9,3.3-1,5c0,0,0,0,0,0v5.6
			c0,0,0,0,0,0c0,0,0,0,0,0c0.4,3.6,3.8,6.8,7.4,6.8c3.7,0,6.7-2.7,7-6.3c0,0,0,0,0,0c0-0.2,0-0.3,0-0.5l0.1-4.7
			c0-0.1,0.1-0.1,0.1-0.2c0-0.1,0-0.1,0-0.2l0-0.6c0,0,0,0,0,0C29.7,14.9,29.7,11.2,27.5,10.4z M22.1,28.3c-3.1,0-6.1-2.6-6.7-5.7
			c0.6,0.1,1.4,0.2,2,0.2c0.7,0,1.3-0.2,1.6-0.5c0.7-0.7,1.9-1.1,3-1.2c1.2,0,2.3,0.4,3,1.2c0.7,0.7,1.9,0.8,2.6,0.8
			c0.2,0,0.5,0,0.7,0C27.9,26.1,25.3,28.3,22.1,28.3z M16.3,11.9c1.1-2,3.5-3.3,6.1-3.3c2,0,3.6,0.8,4.7,2.3c0,0.1,0.1,0.1,0.2,0.1
			c1.5,0.5,1.7,2.9,1.5,4.5c0-0.1,0-0.1,0-0.2c-0.3-1.2-0.7-3.1-2.9-4.6c0,0-0.1,0-0.1-0.1c-0.8-0.2-1.5-0.3-2.2-0.3
			c-0.9,0-1.7,0.2-2.5,0.4c-0.9,0.2-1.8,0.4-3.1,0.4c-0.1,0-0.2,0.1-0.3,0.1c-0.7,0.7-1.5,1.5-2.2,2.8
			C15.7,13.3,15.9,12.5,16.3,11.9z M22.2,18.2c0-0.2-0.1-0.4-0.1-0.6c0.1-0.1,0.1-0.1,0.2-0.1c0,0,0.1,0,0.1,0
			C22.2,17.7,22.2,18,22.2,18.2z M18.1,11.9c1.3,0,2.2-0.3,3.1-0.5c0.8-0.2,1.5-0.3,2.3-0.3c0.6,0,1.1,0.1,1.8,0.2
			c0.3,0.2,0.6,0.3,0.8,0.6c1.3,1.2,1.6,2.6,1.9,3.6c0.1,0.6,0.3,1.1,0.5,1.3l0,0.1h-2.2c-0.4-0.4-0.9-0.7-1.5-0.7h-0.7
			c-0.6,0-1.1,0.2-1.5,0.6c-0.1-0.1-0.3-0.1-0.5-0.1c-0.1,0-0.3,0.1-0.5,0.2c-0.4-0.4-0.9-0.7-1.5-0.7h-0.7c-0.6,0-1.1,0.3-1.5,0.7
			c0,0,0,0,0,0h-2.5v-0.3C16,14,17.1,12.9,18.1,11.9z M24.2,17h0.7c0.7,0,1.3,0.6,1.3,1.3s-0.6,1.3-1.3,1.3h-0.7
			c-0.7,0-1.3-0.6-1.3-1.3S23.5,17,24.2,17z M19.4,17h0.7c0.7,0,1.3,0.6,1.3,1.3s-0.6,1.3-1.3,1.3h-0.7c-0.7,0-1.3-0.6-1.3-1.3
			S18.7,17,19.4,17z M28.5,22.2c0,0,0,0.1,0,0.2c-0.3,0-0.5,0.1-0.8,0.1c-0.9,0-1.7-0.2-2.1-0.6c-0.9-0.8-2.1-1.3-3.5-1.4
			c-1.4,0-2.7,0.5-3.5,1.4c-0.2,0.2-0.6,0.3-1.1,0.3c-0.6,0-1.3-0.1-1.9-0.2l-0.1,0v-4.2h2.1c-0.1,0.2-0.1,0.4-0.1,0.7
			c0,1.1,0.9,2,2,2h0.7c1.1,0,2-0.9,2-1.9c0.1,1.1,0.9,1.9,2,1.9h0.7c1.1,0,2-0.9,2-2c0-0.2,0-0.5-0.1-0.7h1.7L28.5,22.2z"/>
		<path fill="#FFFFFF" d="M23.9,23.1h-3.6c-0.3,0-0.6,0-0.8,0.3c-0.1,0.1-0.1,0.3,0,0.5c0.2,0.6,0.9,1.5,2.6,1.5
			c1.7,0,2.4-0.9,2.6-1.5c0.1-0.3,0-0.5,0-0.6C24.6,23.2,24.4,23.1,23.9,23.1z M22.1,24.7c-1.1,0-1.7-0.5-1.9-0.9c0,0,0.1,0,0.1,0
			h3.6c0,0,0.1,0,0.1,0C23.8,24.2,23.2,24.7,22.1,24.7z"/>
	</g>
</g>
<g id="create-Viz">
</g>
<g id="graph">
</g>
<g id="data_panel">
</g>
<g id="archive_panel">
</g>
<g id="appearance-panel">
</g>
<g id="cursors">
</g>
</svg>
