<?xml version="1.0" encoding="utf-8"?>
<!-- Generator: Adobe Illustrator 18.1.1, SVG Export Plug-In . SVG Version: 6.00 Build 0)  -->
<svg version="1.1" xmlns="http://www.w3.org/2000/svg" xmlns:xlink="http://www.w3.org/1999/xlink" x="0px" y="0px"
	 viewBox="0 0 45 45" enable-background="new 0 0 45 45" xml:space="preserve">
<symbol  id="close" viewBox="-7 -6.7 14 13.4">
	<line fill="none" stroke="#FFFFFF" stroke-width="0.5" stroke-miterlimit="10" x1="6.5" y1="-6.5" x2="-6.5" y2="6.5"/>
	<line fill="none" stroke="#FFFFFF" stroke-width="0.5" stroke-miterlimit="10" x1="6.5" y1="6.5" x2="-6.5" y2="-6.5"/>
	<polygon display="none" fill="none" points="-7,6 7,6 7,-6 -7,-6 	"/>
</symbol>
<symbol  id="expand" viewBox="-11 -11 22 22">
	<polygon fill="none" stroke="#ECECEC" stroke-miterlimit="10" points="-10.5,10.5 10.5,10.5 10.5,-10.5 -10.5,-10.5 	"/>
	<polyline fill="none" stroke="#ECECEC" stroke-miterlimit="10" points="7.5,-4 7.5,-7.5 4,-7.5 	"/>
	<polyline fill="none" stroke="#ECECEC" stroke-miterlimit="10" points="-4,7.5 -7.5,7.5 -7.5,4 	"/>
	<polyline fill="none" stroke="#ECECEC" stroke-miterlimit="10" points="7.5,4 7.5,7.5 4,7.5 	"/>
	<polyline fill="none" stroke="#ECECEC" stroke-miterlimit="10" points="-4,-7.5 -7.5,-7.5 -7.5,-4 	"/>
	<line fill="none" stroke="#ECECEC" stroke-miterlimit="10" x1="7" y1="-7" x2="3" y2="-3"/>
	<line fill="none" stroke="#ECECEC" stroke-miterlimit="10" x1="-7" y1="7" x2="-3" y2="3"/>
	<line fill="none" stroke="#ECECEC" stroke-miterlimit="10" x1="7" y1="7" x2="3" y2="3"/>
	<line fill="none" stroke="#ECECEC" stroke-miterlimit="10" x1="-7" y1="-7" x2="-3" y2="-3"/>
	<polygon display="none" fill="none" points="-11,11 11,11 11,-11 -11,-11 	"/>
</symbol>
<symbol  id="save" viewBox="-11 -11 22 22">
	<polygon fill="none" stroke="#ECECEC" stroke-miterlimit="10" points="10.5,-10.5 -10.5,-10.5 -10.5,10.5 10.5,10.5 	"/>
	<polygon fill="none" stroke="#ECECEC" stroke-miterlimit="10" points="-3.5,5.5 -5.5,5.5 -5.5,-5.5 5.5,-5.5 5.5,3 3,5.5 1.5,5.5 
		1.5,2.5 -3.5,2.5 	"/>
	<line fill="none" stroke="#ECECEC" stroke-miterlimit="10" x1="-0.5" y1="6" x2="-0.5" y2="4"/>
	<polygon display="none" fill="none" points="-11,11 11,11 11,-11 -11,-11 	"/>
</symbol>
<symbol  id="share" viewBox="-11 -11 22 22">
	<polygon fill="none" stroke="#FFFFFF" stroke-miterlimit="10" points="10.5,-10.5 -10.5,-10.5 -10.5,10.5 10.5,10.5 	"/>
	<path fill="none" stroke="#FFFFFF" stroke-miterlimit="10" d="M-4.4,0c0-1-0.8-1.8-1.8-1.8S-8-1-8,0s0.8,1.8,1.8,1.8S-4.4,1-4.4,0z
		"/>
	<path fill="none" stroke="#FFFFFF" stroke-miterlimit="10" d="M7.6,6c0-1-0.8-1.8-1.8-1.8S4,5,4,6s0.8,1.8,1.8,1.8S7.6,7,7.6,6z"/>
	<path fill="none" stroke="#FFFFFF" stroke-miterlimit="10" d="M7.6-6c0-1-0.8-1.8-1.8-1.8S4-7,4-6s0.8,1.8,1.8,1.8S7.6-5,7.6-6z"/>
	<line fill="none" stroke="#FFFFFF" stroke-miterlimit="10" x1="4.3" y1="-5" x2="-4.7" y2="-0.9"/>
	<line fill="none" stroke="#FFFFFF" stroke-miterlimit="10" x1="-4.8" y1="1.1" x2="4.2" y2="5.2"/>
</symbol>
<symbol  id="view" viewBox="-11 -11 22 22">
	<polygon fill="none" stroke="#ECECEC" stroke-miterlimit="10" points="-10.5,10.5 10.5,10.5 10.5,-10.5 -10.5,-10.5 	"/>
	<polygon fill="none" stroke="#ECECEC" stroke-miterlimit="10" points="-4.5,4.5 -7.5,4.5 -7.5,7.5 -4.5,7.5 	"/>
	<polygon fill="none" stroke="#ECECEC" stroke-miterlimit="10" points="1.5,4.5 -1.5,4.5 -1.5,7.5 1.5,7.5 	"/>
	<polygon fill="none" stroke="#ECECEC" stroke-miterlimit="10" points="7.5,4.5 4.5,4.5 4.5,7.5 7.5,7.5 	"/>
	<polygon fill="none" stroke="#ECECEC" stroke-miterlimit="10" points="-4.5,-1.5 -7.5,-1.5 -7.5,1.5 -4.5,1.5 	"/>
	<polygon fill="none" stroke="#ECECEC" stroke-miterlimit="10" points="1.5,-1.5 -1.5,-1.5 -1.5,1.5 1.5,1.5 	"/>
	<polygon fill="none" stroke="#ECECEC" stroke-miterlimit="10" points="7.5,-1.5 4.5,-1.5 4.5,1.5 7.5,1.5 	"/>
	<polygon fill="none" stroke="#ECECEC" stroke-miterlimit="10" points="-4.5,-7.5 -7.5,-7.5 -7.5,-4.5 -4.5,-4.5 	"/>
	<polygon fill="none" stroke="#ECECEC" stroke-miterlimit="10" points="1.5,-7.5 -1.5,-7.5 -1.5,-4.5 1.5,-4.5 	"/>
	<polygon fill="none" stroke="#ECECEC" stroke-miterlimit="10" points="7.5,-7.5 4.5,-7.5 4.5,-4.5 7.5,-4.5 	"/>
	<polygon display="none" fill="none" points="-11,11 11,11 11,-11 -11,-11 	"/>
</symbol>
<g id="Background">
</g>
<g id="grid">
</g>
<g id="_x31_st_ime_UX">
</g>
<g id="profile_pics">
	<g>
		<path fill="#FFFFFF" d="M22.2,28.9c-5,0-9.4,4-9.9,9.2c0,0.3,0.1,0.7,0.3,1c0.2,0.2,0.4,0.3,0.6,0.3h18c0.2,0,0.4-0.1,0.6-0.3
			c0.2-0.3,0.4-0.7,0.3-1C31.5,33,27.2,28.9,22.2,28.9z M31.2,38.7l-18,0c-0.1,0-0.2-0.3-0.2-0.5c0.5-4.8,4.6-8.6,9.2-8.6
			s8.7,3.8,9.2,8.6C31.4,38.4,31.3,38.7,31.2,38.7z"/>
		<path fill="#FFFFFF" d="M29.3,16c0-0.4,0-0.7-0.1-1c-0.5-5.3-3.7-6.4-6.5-7.2c-0.4-0.1-0.7-0.2-1.1-0.4c-0.5-0.2-1,0.3-1.8,1
			c-0.4,0.4-1,0.9-1.6,1.3c-1.5,1.1-2.2,2.8-2.4,5.6c0,0.2,0,0.5,0,0.7v0.4c0,0.1,0,0.1,0,0.1v5.1c0,0.6,0.1,1.1,0.2,1.6
			c0,0.1,0.1,0.2,0.2,0.2c0.9,2.8,3.5,4.7,6.4,4.7c3.1,0,5.6-1.9,6.4-4.8c0,0,0,0,0-0.1c0,0,0-0.1,0-0.1c0-0.1,0.1-0.2,0.1-0.3
			c0-0.1,0-0.1,0-0.2c0-0.3,0.1-0.6,0.1-0.9L29.3,16z M22.6,27.3c-2.6,0-5-1.8-5.8-4.3c0.3,0,0.5,0,0.8,0c0.6,0,1.7-0.1,2.3-0.8
			c0.6-0.7,1.6-1.1,2.7-1.1c1,0,2,0.4,2.7,1.1c0.6,0.7,1.7,0.8,2.3,0.8c0.3,0,0.5,0,0.8-0.1C27.6,25.7,25.3,27.3,22.6,27.3z
			 M18.6,10.2c0.7-0.5,1.2-1,1.6-1.4C20.7,8.5,21.2,8,21.4,8c0.4,0.1,0.7,0.2,1.1,0.4c2.4,0.8,4.8,1.5,5.7,4.6
			c-0.6-1.3-1.4-2.5-2.6-2.9c-0.1,0-0.1,0-0.2,0c-0.6,0-1,0.5-1.4,0.9c-0.4,0.4-0.8,0.9-1.3,0.9c-0.3,0-0.7-0.4-1.2-0.8
			c-0.6-0.6-1.3-1.1-2-1.1c0,0-0.1,0-0.1,0c-0.9,0.4-1.5,1-2,1.7C17.7,11.1,18.2,10.6,18.6,10.2z M28.4,22.3c-0.3,0-0.6,0.1-0.9,0.1
			c-0.8,0-1.5-0.2-1.8-0.5c-0.8-0.8-1.9-1.3-3.2-1.3c-1.2,0-2.4,0.5-3.2,1.3c-0.3,0.3-1,0.5-1.8,0.5c-0.3,0-0.7,0-1-0.1
			c0-0.2-0.1-0.5-0.1-0.8V17h0.8c-0.1,0.2-0.1,0.4-0.1,0.7c0,1.1,0.9,2,2,2h0.7c1.1,0,2-0.9,2-2c0-0.2,0-0.4-0.1-0.6
			c0.5-0.6,1.3-0.2,1.5-0.1c-0.1,0.2-0.1,0.4-0.1,0.7c0,1.1,0.9,2,2,2H26c1.1,0,2-0.9,2-2c0-0.2,0-0.5-0.1-0.7h0.6
			c0,0.1,0,0.2,0,0.2c0,0,0,0,0,0l-0.1,4.3C28.5,21.8,28.5,22.1,28.4,22.3z M28.4,16.3h-0.9c-0.4-0.4-0.9-0.7-1.5-0.7h-0.7
			c-0.6,0-1.2,0.3-1.6,0.8c-0.5-0.3-1.5-0.5-2.2,0.1c-0.4-0.5-1-0.8-1.6-0.8h-0.7c-0.6,0-1.1,0.3-1.5,0.7h-1.2l0-0.1
			c0-0.9,0.3-4.1,3.1-5.5c0.4,0,0.9,0.5,1.4,0.9c0.6,0.5,1.1,1,1.6,1c0.8,0,1.4-0.6,1.8-1.1c0.3-0.4,0.6-0.7,0.9-0.7
			C27.3,11.4,28.1,14.7,28.4,16.3z M19.2,16.4h0.7c0.7,0,1.3,0.6,1.3,1.3S20.6,19,19.9,19h-0.7c-0.7,0-1.3-0.6-1.3-1.3
			S18.5,16.4,19.2,16.4z M25.3,16.4H26c0.7,0,1.3,0.6,1.3,1.3S26.7,19,26,19h-0.7c-0.7,0-1.3-0.6-1.3-1.3S24.6,16.4,25.3,16.4z"/>
		<path fill="#FFFFFF" d="M24.2,23.1h-3.3c-0.3,0-0.6,0.1-0.7,0.3C20,23.6,20,23.8,20.1,24c0.2,0.6,0.9,1.6,2.4,1.6
			c1.6,0,2.2-1,2.4-1.6c0.1-0.2,0.1-0.4-0.1-0.6C24.7,23.2,24.5,23.1,24.2,23.1z M22.5,25c-1.1,0-1.6-0.6-1.8-1.1c0,0,0.1,0,0.1,0
			h3.3c0.1,0,0.1,0,0.1,0C24.1,24.3,23.6,25,22.5,25z"/>
	</g>
</g>
<g id="create-Viz">
</g>
<g id="graph">
</g>
<g id="data_panel">
</g>
<g id="archive_panel">
</g>
<g id="appearance-panel">
</g>
<g id="cursors">
</g>
</svg>
