<?xml version="1.0" encoding="utf-8"?>
<!-- Generator: Adobe Illustrator 18.1.1, SVG Export Plug-In . SVG Version: 6.00 Build 0)  -->
<svg version="1.1" xmlns="http://www.w3.org/2000/svg" xmlns:xlink="http://www.w3.org/1999/xlink" x="0px" y="0px"
	 viewBox="0 0 45 45" enable-background="new 0 0 45 45" xml:space="preserve">
<symbol  id="close" viewBox="-7 -6.7 14 13.4">
	<line fill="none" stroke="#FFFFFF" stroke-width="0.5" stroke-miterlimit="10" x1="6.5" y1="-6.5" x2="-6.5" y2="6.5"/>
	<line fill="none" stroke="#FFFFFF" stroke-width="0.5" stroke-miterlimit="10" x1="6.5" y1="6.5" x2="-6.5" y2="-6.5"/>
	<polygon display="none" fill="none" points="-7,6 7,6 7,-6 -7,-6 	"/>
</symbol>
<symbol  id="expand" viewBox="-11 -11 22 22">
	<polygon fill="none" stroke="#ECECEC" stroke-miterlimit="10" points="-10.5,10.5 10.5,10.5 10.5,-10.5 -10.5,-10.5 	"/>
	<polyline fill="none" stroke="#ECECEC" stroke-miterlimit="10" points="7.5,-4 7.5,-7.5 4,-7.5 	"/>
	<polyline fill="none" stroke="#ECECEC" stroke-miterlimit="10" points="-4,7.5 -7.5,7.5 -7.5,4 	"/>
	<polyline fill="none" stroke="#ECECEC" stroke-miterlimit="10" points="7.5,4 7.5,7.5 4,7.5 	"/>
	<polyline fill="none" stroke="#ECECEC" stroke-miterlimit="10" points="-4,-7.5 -7.5,-7.5 -7.5,-4 	"/>
	<line fill="none" stroke="#ECECEC" stroke-miterlimit="10" x1="7" y1="-7" x2="3" y2="-3"/>
	<line fill="none" stroke="#ECECEC" stroke-miterlimit="10" x1="-7" y1="7" x2="-3" y2="3"/>
	<line fill="none" stroke="#ECECEC" stroke-miterlimit="10" x1="7" y1="7" x2="3" y2="3"/>
	<line fill="none" stroke="#ECECEC" stroke-miterlimit="10" x1="-7" y1="-7" x2="-3" y2="-3"/>
	<polygon display="none" fill="none" points="-11,11 11,11 11,-11 -11,-11 	"/>
</symbol>
<symbol  id="save" viewBox="-11 -11 22 22">
	<polygon fill="none" stroke="#ECECEC" stroke-miterlimit="10" points="10.5,-10.5 -10.5,-10.5 -10.5,10.5 10.5,10.5 	"/>
	<polygon fill="none" stroke="#ECECEC" stroke-miterlimit="10" points="-3.5,5.5 -5.5,5.5 -5.5,-5.5 5.5,-5.5 5.5,3 3,5.5 1.5,5.5 
		1.5,2.5 -3.5,2.5 	"/>
	<line fill="none" stroke="#ECECEC" stroke-miterlimit="10" x1="-0.5" y1="6" x2="-0.5" y2="4"/>
	<polygon display="none" fill="none" points="-11,11 11,11 11,-11 -11,-11 	"/>
</symbol>
<symbol  id="share" viewBox="-11 -11 22 22">
	<polygon fill="none" stroke="#FFFFFF" stroke-miterlimit="10" points="10.5,-10.5 -10.5,-10.5 -10.5,10.5 10.5,10.5 	"/>
	<path fill="none" stroke="#FFFFFF" stroke-miterlimit="10" d="M-4.4,0c0-1-0.8-1.8-1.8-1.8S-8-1-8,0s0.8,1.8,1.8,1.8S-4.4,1-4.4,0z
		"/>
	<path fill="none" stroke="#FFFFFF" stroke-miterlimit="10" d="M7.6,6c0-1-0.8-1.8-1.8-1.8S4,5,4,6s0.8,1.8,1.8,1.8S7.6,7,7.6,6z"/>
	<path fill="none" stroke="#FFFFFF" stroke-miterlimit="10" d="M7.6-6c0-1-0.8-1.8-1.8-1.8S4-7,4-6s0.8,1.8,1.8,1.8S7.6-5,7.6-6z"/>
	<line fill="none" stroke="#FFFFFF" stroke-miterlimit="10" x1="4.3" y1="-5" x2="-4.7" y2="-0.9"/>
	<line fill="none" stroke="#FFFFFF" stroke-miterlimit="10" x1="-4.8" y1="1.1" x2="4.2" y2="5.2"/>
</symbol>
<symbol  id="view" viewBox="-11 -11 22 22">
	<polygon fill="none" stroke="#ECECEC" stroke-miterlimit="10" points="-10.5,10.5 10.5,10.5 10.5,-10.5 -10.5,-10.5 	"/>
	<polygon fill="none" stroke="#ECECEC" stroke-miterlimit="10" points="-4.5,4.5 -7.5,4.5 -7.5,7.5 -4.5,7.5 	"/>
	<polygon fill="none" stroke="#ECECEC" stroke-miterlimit="10" points="1.5,4.5 -1.5,4.5 -1.5,7.5 1.5,7.5 	"/>
	<polygon fill="none" stroke="#ECECEC" stroke-miterlimit="10" points="7.5,4.5 4.5,4.5 4.5,7.5 7.5,7.5 	"/>
	<polygon fill="none" stroke="#ECECEC" stroke-miterlimit="10" points="-4.5,-1.5 -7.5,-1.5 -7.5,1.5 -4.5,1.5 	"/>
	<polygon fill="none" stroke="#ECECEC" stroke-miterlimit="10" points="1.5,-1.5 -1.5,-1.5 -1.5,1.5 1.5,1.5 	"/>
	<polygon fill="none" stroke="#ECECEC" stroke-miterlimit="10" points="7.5,-1.5 4.5,-1.5 4.5,1.5 7.5,1.5 	"/>
	<polygon fill="none" stroke="#ECECEC" stroke-miterlimit="10" points="-4.5,-7.5 -7.5,-7.5 -7.5,-4.5 -4.5,-4.5 	"/>
	<polygon fill="none" stroke="#ECECEC" stroke-miterlimit="10" points="1.5,-7.5 -1.5,-7.5 -1.5,-4.5 1.5,-4.5 	"/>
	<polygon fill="none" stroke="#ECECEC" stroke-miterlimit="10" points="7.5,-7.5 4.5,-7.5 4.5,-4.5 7.5,-4.5 	"/>
	<polygon display="none" fill="none" points="-11,11 11,11 11,-11 -11,-11 	"/>
</symbol>
<g id="Background">
</g>
<g id="grid">
</g>
<g id="_x31_st_ime_UX">
</g>
<g id="profile_pics">
	<g>
		<path fill="#FFFFFF" d="M22.5,29.2c-5,0-9.4,4-9.9,9.1c0,0.3,0.1,0.6,0.3,0.8c0.2,0.2,0.4,0.3,0.6,0.3h18c0.2,0,0.5-0.1,0.6-0.3
			c0.2-0.2,0.3-0.5,0.3-0.8C31.9,33.2,27.5,29.2,22.5,29.2z M31.6,38.6c0,0.1-0.1,0.1-0.1,0.1h-18c0,0-0.1,0-0.1-0.1
			c-0.1-0.1-0.1-0.2-0.1-0.3c0.5-4.7,4.5-8.4,9.2-8.4c4.7,0,8.7,3.7,9.2,8.4C31.7,38.4,31.7,38.6,31.6,38.6z"/>
		<path fill="#FFFFFF" d="M23.9,23.1h-3.3c-0.3,0-0.5,0.1-0.7,0.4c-0.1,0.2-0.2,0.4-0.1,0.7c0.2,0.6,0.9,1.7,2.4,1.7
			c1.5,0,2.2-1,2.4-1.7c0.1-0.2,0.1-0.5-0.1-0.7C24.5,23.2,24.2,23.1,23.9,23.1z M20.5,23.9c0,0,0.1-0.1,0.1-0.1h3.3
			c0.1,0,0.1,0,0.1,0.1c-0.2,0.6-0.7,1.2-1.8,1.2C21.2,25.1,20.7,24.4,20.5,23.9z"/>
		<path fill="#FFFFFF" d="M14.5,23.4c0.1,0.1,0.3,0.3,0.6,0.3c0.4,0,0.8-0.2,1.2-0.4c0.5,3.2,2.9,5.7,5.9,5.7c3,0,5.4-2.3,5.9-5.5
			c0.2,0.1,0.6,0.2,0.9,0.2c0.4,0,0.7-0.1,0.9-0.4c0.4-0.5,0.5-1.5,0.1-3.1c-0.2-0.9-0.2-1.5-0.2-2.2c0-0.8,0-1.7-0.4-3.3
			c-1.2-3.9-3.9-6.4-6.9-6.4c-1.6,0-3.2,0.7-4.8,2.1c-1.4,0.5-2.4,2.7-3.1,6.8c-0.2,1.1-0.1,2.1-0.1,2.9c0.1,0.9,0.1,1.7-0.2,2.7
			C14.3,23.1,14.4,23.3,14.5,23.4z M18.2,11c1.4-1.3,2.9-2,4.4-2c2.7,0,5.1,2.3,6.2,5.9c0.4,1.5,0.4,2.3,0.4,3.1
			c0,0.6,0,1.3,0.2,2.3c0.4,1.7,0.2,2.3,0,2.5C29.3,22.9,29.2,23,29,23c-0.3,0-0.6-0.1-0.8-0.2c0.2-1,0.1-2,0.1-3.1c0-0.5,0-1,0-1.5
			c0,0,0,0,0,0c0,0,0-0.1,0-0.1c0-0.1-0.1-0.3-0.2-0.3c-0.2-0.5-0.4-1.2-0.6-1.9c-0.4-1.7-0.8-3.1-1.6-3.1c-0.1,0-0.1,0-0.2,0
			c-0.9,0.4-1.6,0.5-2.3,0.5c-0.6,0-1.1-0.2-1.5-0.3c-0.5-0.2-0.9-0.4-1.6-0.4c-0.4,0-0.7,0.1-1.2,0.2C18.2,13,17.9,14,17.5,15
			c-0.2,0.4-0.3,0.9-0.6,1.3c-0.3-0.1-0.7,0-0.9,0.2c-0.3,0.3-0.4,0.9,0,2.8c0.1,0.6,0.3,2.3,0.3,3.2c-0.4,0.3-1,0.5-1.3,0.5
			c0.3-1,0.2-1.9,0.2-2.9c-0.1-0.8-0.1-1.7,0.1-2.8c0.8-4.7,1.9-6,2.7-6.2C18.1,11,18.2,11,18.2,11z M17,22.8c0,0,0-0.1,0-0.2
			c0-0.8-0.2-2.8-0.3-3.5c-0.1-0.3-0.1-0.6-0.1-0.8h1.2c-0.1,0.2-0.1,0.4-0.1,0.7c0,1.1,0.9,2,2,2s2-0.9,2-2c0-0.3-0.1-0.5-0.1-0.8
			c0.3-0.2,0.7-0.1,1,0c-0.1,0.2-0.2,0.5-0.2,0.8c0,1.1,0.9,2,2,2s2-0.9,2-2c0-0.2,0-0.5-0.1-0.7h1.1c0,0.4,0,0.7,0,1l0,2.8
			c0,0,0,0,0,0c0,0.2,0,0.4-0.1,0.6c0,0.1,0,0.2,0,0.2c-0.3,3-2.5,5.2-5.2,5.2C19.5,28.2,17.3,25.9,17,22.8z M16.6,17
			c0.1,0,0.2,0,0.4,0.1c0.2,0,0.3,0,0.4-0.2c0.3-0.5,0.5-1.1,0.7-1.6c0.3-0.9,0.7-1.7,1.1-1.8c1-0.3,1.6-0.1,2.3,0.2
			c0.5,0.2,1,0.4,1.8,0.4c0.7,0,1.5-0.2,2.5-0.6c0.3,0.1,0.7,1.7,1,2.5c0.2,0.6,0.3,1.2,0.5,1.7H26c-0.4-0.4-0.9-0.7-1.5-0.7
			c-0.6,0-1.1,0.3-1.5,0.7c-0.4-0.2-1.1-0.4-1.7,0c-0.4-0.4-0.9-0.7-1.5-0.7c-0.6,0-1.1,0.3-1.5,0.7h-1.7C16.5,17.1,16.6,17,16.6,17
			z M24.5,17.7c0.7,0,1.3,0.6,1.3,1.3s-0.6,1.3-1.3,1.3s-1.3-0.6-1.3-1.3S23.8,17.7,24.5,17.7z M19.8,17.7c0.7,0,1.3,0.6,1.3,1.3
			s-0.6,1.3-1.3,1.3s-1.3-0.6-1.3-1.3S19,17.7,19.8,17.7z"/>
	</g>
</g>
<g id="create-Viz">
</g>
<g id="graph">
</g>
<g id="data_panel">
</g>
<g id="archive_panel">
</g>
<g id="appearance-panel">
</g>
<g id="cursors">
</g>
</svg>
