<?xml version="1.0" encoding="utf-8"?>
<!-- Generator: Adobe Illustrator 18.1.1, SVG Export Plug-In . SVG Version: 6.00 Build 0)  -->
<svg version="1.1" xmlns="http://www.w3.org/2000/svg" xmlns:xlink="http://www.w3.org/1999/xlink" x="0px" y="0px"
	 viewBox="0 0 45 45" enable-background="new 0 0 45 45" xml:space="preserve">
<symbol  id="close" viewBox="-7 -6.7 14 13.4">
	<line fill="none" stroke="#FFFFFF" stroke-width="0.5" stroke-miterlimit="10" x1="6.5" y1="-6.5" x2="-6.5" y2="6.5"/>
	<line fill="none" stroke="#FFFFFF" stroke-width="0.5" stroke-miterlimit="10" x1="6.5" y1="6.5" x2="-6.5" y2="-6.5"/>
	<polygon display="none" fill="none" points="-7,6 7,6 7,-6 -7,-6 	"/>
</symbol>
<symbol  id="expand" viewBox="-11 -11 22 22">
	<polygon fill="none" stroke="#ECECEC" stroke-miterlimit="10" points="-10.5,10.5 10.5,10.5 10.5,-10.5 -10.5,-10.5 	"/>
	<polyline fill="none" stroke="#ECECEC" stroke-miterlimit="10" points="7.5,-4 7.5,-7.5 4,-7.5 	"/>
	<polyline fill="none" stroke="#ECECEC" stroke-miterlimit="10" points="-4,7.5 -7.5,7.5 -7.5,4 	"/>
	<polyline fill="none" stroke="#ECECEC" stroke-miterlimit="10" points="7.5,4 7.5,7.5 4,7.5 	"/>
	<polyline fill="none" stroke="#ECECEC" stroke-miterlimit="10" points="-4,-7.5 -7.5,-7.5 -7.5,-4 	"/>
	<line fill="none" stroke="#ECECEC" stroke-miterlimit="10" x1="7" y1="-7" x2="3" y2="-3"/>
	<line fill="none" stroke="#ECECEC" stroke-miterlimit="10" x1="-7" y1="7" x2="-3" y2="3"/>
	<line fill="none" stroke="#ECECEC" stroke-miterlimit="10" x1="7" y1="7" x2="3" y2="3"/>
	<line fill="none" stroke="#ECECEC" stroke-miterlimit="10" x1="-7" y1="-7" x2="-3" y2="-3"/>
	<polygon display="none" fill="none" points="-11,11 11,11 11,-11 -11,-11 	"/>
</symbol>
<symbol  id="save" viewBox="-11 -11 22 22">
	<polygon fill="none" stroke="#ECECEC" stroke-miterlimit="10" points="10.5,-10.5 -10.5,-10.5 -10.5,10.5 10.5,10.5 	"/>
	<polygon fill="none" stroke="#ECECEC" stroke-miterlimit="10" points="-3.5,5.5 -5.5,5.5 -5.5,-5.5 5.5,-5.5 5.5,3 3,5.5 1.5,5.5 
		1.5,2.5 -3.5,2.5 	"/>
	<line fill="none" stroke="#ECECEC" stroke-miterlimit="10" x1="-0.5" y1="6" x2="-0.5" y2="4"/>
	<polygon display="none" fill="none" points="-11,11 11,11 11,-11 -11,-11 	"/>
</symbol>
<symbol  id="share" viewBox="-11 -11 22 22">
	<polygon fill="none" stroke="#FFFFFF" stroke-miterlimit="10" points="10.5,-10.5 -10.5,-10.5 -10.5,10.5 10.5,10.5 	"/>
	<path fill="none" stroke="#FFFFFF" stroke-miterlimit="10" d="M-4.4,0c0-1-0.8-1.8-1.8-1.8S-8-1-8,0s0.8,1.8,1.8,1.8S-4.4,1-4.4,0z
		"/>
	<path fill="none" stroke="#FFFFFF" stroke-miterlimit="10" d="M7.6,6c0-1-0.8-1.8-1.8-1.8S4,5,4,6s0.8,1.8,1.8,1.8S7.6,7,7.6,6z"/>
	<path fill="none" stroke="#FFFFFF" stroke-miterlimit="10" d="M7.6-6c0-1-0.8-1.8-1.8-1.8S4-7,4-6s0.8,1.8,1.8,1.8S7.6-5,7.6-6z"/>
	<line fill="none" stroke="#FFFFFF" stroke-miterlimit="10" x1="4.3" y1="-5" x2="-4.7" y2="-0.9"/>
	<line fill="none" stroke="#FFFFFF" stroke-miterlimit="10" x1="-4.8" y1="1.1" x2="4.2" y2="5.2"/>
</symbol>
<symbol  id="view" viewBox="-11 -11 22 22">
	<polygon fill="none" stroke="#ECECEC" stroke-miterlimit="10" points="-10.5,10.5 10.5,10.5 10.5,-10.5 -10.5,-10.5 	"/>
	<polygon fill="none" stroke="#ECECEC" stroke-miterlimit="10" points="-4.5,4.5 -7.5,4.5 -7.5,7.5 -4.5,7.5 	"/>
	<polygon fill="none" stroke="#ECECEC" stroke-miterlimit="10" points="1.5,4.5 -1.5,4.5 -1.5,7.5 1.5,7.5 	"/>
	<polygon fill="none" stroke="#ECECEC" stroke-miterlimit="10" points="7.5,4.5 4.5,4.5 4.5,7.5 7.5,7.5 	"/>
	<polygon fill="none" stroke="#ECECEC" stroke-miterlimit="10" points="-4.5,-1.5 -7.5,-1.5 -7.5,1.5 -4.5,1.5 	"/>
	<polygon fill="none" stroke="#ECECEC" stroke-miterlimit="10" points="1.5,-1.5 -1.5,-1.5 -1.5,1.5 1.5,1.5 	"/>
	<polygon fill="none" stroke="#ECECEC" stroke-miterlimit="10" points="7.5,-1.5 4.5,-1.5 4.5,1.5 7.5,1.5 	"/>
	<polygon fill="none" stroke="#ECECEC" stroke-miterlimit="10" points="-4.5,-7.5 -7.5,-7.5 -7.5,-4.5 -4.5,-4.5 	"/>
	<polygon fill="none" stroke="#ECECEC" stroke-miterlimit="10" points="1.5,-7.5 -1.5,-7.5 -1.5,-4.5 1.5,-4.5 	"/>
	<polygon fill="none" stroke="#ECECEC" stroke-miterlimit="10" points="7.5,-7.5 4.5,-7.5 4.5,-4.5 7.5,-4.5 	"/>
	<polygon display="none" fill="none" points="-11,11 11,11 11,-11 -11,-11 	"/>
</symbol>
<g id="Background">
</g>
<g id="grid">
</g>
<g id="_x31_st_ime_UX">
</g>
<g id="profile_pics">
	<g>
		<path fill="#FFFFFF" d="M22.5,29.2c-5.1,0-9.4,3.8-9.9,8.9c0,0.2,0,0.5,0.2,0.6c0.2,0.2,0.4,0.3,0.7,0.3h18c0.3,0,0.5-0.1,0.7-0.3
			c0.2-0.2,0.2-0.4,0.2-0.6C31.9,33,27.6,29.2,22.5,29.2z M31.5,38.3h-18c-0.1,0-0.2,0-0.2-0.1c0.5-4.7,4.5-8.2,9.2-8.2
			c4.8,0,8.7,3.5,9.2,8.3C31.7,38.2,31.6,38.3,31.5,38.3z"/>
		<path fill="#FFFFFF" d="M24.1,22h-3.3c-0.3,0-0.5,0.1-0.7,0.3c-0.1,0.2-0.2,0.4-0.1,0.7c0.2,0.6,0.9,1.7,2.4,1.7
			c1.5,0,2.2-1.1,2.4-1.7c0.1-0.2,0.1-0.5-0.1-0.7C24.7,22.1,24.4,22,24.1,22z M20.8,22.7c0,0,0.1,0,0.1,0h3.3c0.1,0,0.1,0,0.1,0.1
			C24,23.3,23.6,24,22.5,24C21.4,24,21,23.3,20.8,22.7z"/>
		<path fill="#FFFFFF" d="M22.6,7.4c-0.6,0-5.8,0.2-6.2,7.3c0,0.3,0,0.5,0,0.8v6c0,4.1,2.6,7.3,6.2,7.3c0,0,0,0,0,0h0.1c0,0,0,0,0,0
			c3.7-0.1,6.5-3.2,6.5-7.2l0-5.1c0.1-0.1,0.1-0.2,0.1-0.3c0-0.1,0-0.2-0.1-0.3l0-0.4c0,0,0-0.1,0-0.1c0,0,0-0.1,0-0.1
			C29.2,7.6,23.3,7.4,22.6,7.4z M22.6,28.1c-3.1,0-5.5-2.9-5.5-6.6v-4.9h0.7c0,0.1,0,0.2,0,0.3c0,0.9,0.8,1.7,1.7,1.7h1.4
			c0.9,0,1.6-0.7,1.7-1.6c0.1,0.9,0.8,1.6,1.7,1.6h1.4c0.9,0,1.7-0.8,1.7-1.7c0-0.1,0-0.2,0-0.3h1.2l0,5
			C28.5,25.3,26,28.1,22.6,28.1z M22.6,8.1c0.8,0,4.5,0.3,5.6,4.5c-0.8-1.5-1.9-3.2-3.7-3.7c-0.1,0-0.2,0-0.3,0
			c-0.5,0-0.8,0.2-1,0.4c-0.2,0.1-0.3,0.2-0.6,0.2c-0.3,0-0.4-0.1-0.6-0.2c-0.2-0.2-0.5-0.4-1-0.4c-0.1,0-0.2,0-0.3,0
			c-1.3,0.3-2.3,1.4-2.9,2.6C19.1,8.3,21.9,8.1,22.6,8.1z M22.5,16.8c0-0.1,0-0.1,0-0.2c0,0,0,0,0,0C22.5,16.6,22.5,16.7,22.5,16.8z
			 M21.8,16.9c0,0.6-0.5,1-1,1h-1.4c-0.6,0-1-0.5-1-1c0-0.6,0.5-1,1-1h1.4c0.4,0,0.7,0.2,0.9,0.6c0,0,0,0.1,0,0.1
			C21.8,16.7,21.8,16.8,21.8,16.9z M23.3,16.7c0.1-0.1,0.1-0.1,0.1-0.2c0.2-0.3,0.5-0.5,0.9-0.5h1.4c0.6,0,1,0.5,1,1
			c0,0.6-0.5,1-1,1h-1.4c-0.6,0-1-0.5-1-1C23.2,16.8,23.3,16.8,23.3,16.7z M26.9,15.9C26.9,15.9,26.9,15.9,26.9,15.9
			c-0.3-0.4-0.8-0.7-1.4-0.7h-1.4c-0.6,0-1.1,0.3-1.4,0.7c-0.1,0-0.2-0.1-0.2-0.1c-0.1,0-0.2,0-0.4,0.1c-0.3-0.4-0.8-0.7-1.4-0.7
			h-1.4c-0.6,0-1,0.3-1.4,0.7c0,0,0,0,0,0h-1v-0.4c0.1-0.3,1-5.1,3.7-5.8c0.4-0.1,0.5,0,0.8,0.2c0.2,0.2,0.5,0.4,1,0.4
			s0.8-0.2,1-0.4c0.2-0.1,0.3-0.2,0.6-0.2c0.1,0,0.1,0,0.2,0c2.5,0.7,3.8,4.7,4.1,5.7c0,0.1,0,0.2,0,0.3l0,0.3H26.9z"/>
	</g>
</g>
<g id="create-Viz">
</g>
<g id="graph">
</g>
<g id="data_panel">
</g>
<g id="archive_panel">
</g>
<g id="appearance-panel">
</g>
<g id="cursors">
</g>
</svg>
