<?xml version="1.0" encoding="utf-8"?>
<!-- Generator: Adobe Illustrator 18.1.1, SVG Export Plug-In . SVG Version: 6.00 Build 0)  -->
<svg version="1.1" xmlns="http://www.w3.org/2000/svg" xmlns:xlink="http://www.w3.org/1999/xlink" x="0px" y="0px"
	 viewBox="0 0 45 45" enable-background="new 0 0 45 45" xml:space="preserve">
<symbol  id="close" viewBox="-7 -6.7 14 13.4">
	<line fill="none" stroke="#FFFFFF" stroke-width="0.5" stroke-miterlimit="10" x1="6.5" y1="-6.5" x2="-6.5" y2="6.5"/>
	<line fill="none" stroke="#FFFFFF" stroke-width="0.5" stroke-miterlimit="10" x1="6.5" y1="6.5" x2="-6.5" y2="-6.5"/>
	<polygon display="none" fill="none" points="-7,6 7,6 7,-6 -7,-6 	"/>
</symbol>
<symbol  id="expand" viewBox="-11 -11 22 22">
	<polygon fill="none" stroke="#ECECEC" stroke-miterlimit="10" points="-10.5,10.5 10.5,10.5 10.5,-10.5 -10.5,-10.5 	"/>
	<polyline fill="none" stroke="#ECECEC" stroke-miterlimit="10" points="7.5,-4 7.5,-7.5 4,-7.5 	"/>
	<polyline fill="none" stroke="#ECECEC" stroke-miterlimit="10" points="-4,7.5 -7.5,7.5 -7.5,4 	"/>
	<polyline fill="none" stroke="#ECECEC" stroke-miterlimit="10" points="7.5,4 7.5,7.5 4,7.5 	"/>
	<polyline fill="none" stroke="#ECECEC" stroke-miterlimit="10" points="-4,-7.5 -7.5,-7.5 -7.5,-4 	"/>
	<line fill="none" stroke="#ECECEC" stroke-miterlimit="10" x1="7" y1="-7" x2="3" y2="-3"/>
	<line fill="none" stroke="#ECECEC" stroke-miterlimit="10" x1="-7" y1="7" x2="-3" y2="3"/>
	<line fill="none" stroke="#ECECEC" stroke-miterlimit="10" x1="7" y1="7" x2="3" y2="3"/>
	<line fill="none" stroke="#ECECEC" stroke-miterlimit="10" x1="-7" y1="-7" x2="-3" y2="-3"/>
	<polygon display="none" fill="none" points="-11,11 11,11 11,-11 -11,-11 	"/>
</symbol>
<symbol  id="save" viewBox="-11 -11 22 22">
	<polygon fill="none" stroke="#ECECEC" stroke-miterlimit="10" points="10.5,-10.5 -10.5,-10.5 -10.5,10.5 10.5,10.5 	"/>
	<polygon fill="none" stroke="#ECECEC" stroke-miterlimit="10" points="-3.5,5.5 -5.5,5.5 -5.5,-5.5 5.5,-5.5 5.5,3 3,5.5 1.5,5.5 
		1.5,2.5 -3.5,2.5 	"/>
	<line fill="none" stroke="#ECECEC" stroke-miterlimit="10" x1="-0.5" y1="6" x2="-0.5" y2="4"/>
	<polygon display="none" fill="none" points="-11,11 11,11 11,-11 -11,-11 	"/>
</symbol>
<symbol  id="share" viewBox="-11 -11 22 22">
	<polygon fill="none" stroke="#FFFFFF" stroke-miterlimit="10" points="10.5,-10.5 -10.5,-10.5 -10.5,10.5 10.5,10.5 	"/>
	<path fill="none" stroke="#FFFFFF" stroke-miterlimit="10" d="M-4.4,0c0-1-0.8-1.8-1.8-1.8S-8-1-8,0s0.8,1.8,1.8,1.8S-4.4,1-4.4,0z
		"/>
	<path fill="none" stroke="#FFFFFF" stroke-miterlimit="10" d="M7.6,6c0-1-0.8-1.8-1.8-1.8S4,5,4,6s0.8,1.8,1.8,1.8S7.6,7,7.6,6z"/>
	<path fill="none" stroke="#FFFFFF" stroke-miterlimit="10" d="M7.6-6c0-1-0.8-1.8-1.8-1.8S4-7,4-6s0.8,1.8,1.8,1.8S7.6-5,7.6-6z"/>
	<line fill="none" stroke="#FFFFFF" stroke-miterlimit="10" x1="4.3" y1="-5" x2="-4.7" y2="-0.9"/>
	<line fill="none" stroke="#FFFFFF" stroke-miterlimit="10" x1="-4.8" y1="1.1" x2="4.2" y2="5.2"/>
</symbol>
<symbol  id="view" viewBox="-11 -11 22 22">
	<polygon fill="none" stroke="#ECECEC" stroke-miterlimit="10" points="-10.5,10.5 10.5,10.5 10.5,-10.5 -10.5,-10.5 	"/>
	<polygon fill="none" stroke="#ECECEC" stroke-miterlimit="10" points="-4.5,4.5 -7.5,4.5 -7.5,7.5 -4.5,7.5 	"/>
	<polygon fill="none" stroke="#ECECEC" stroke-miterlimit="10" points="1.5,4.5 -1.5,4.5 -1.5,7.5 1.5,7.5 	"/>
	<polygon fill="none" stroke="#ECECEC" stroke-miterlimit="10" points="7.5,4.5 4.5,4.5 4.5,7.5 7.5,7.5 	"/>
	<polygon fill="none" stroke="#ECECEC" stroke-miterlimit="10" points="-4.5,-1.5 -7.5,-1.5 -7.5,1.5 -4.5,1.5 	"/>
	<polygon fill="none" stroke="#ECECEC" stroke-miterlimit="10" points="1.5,-1.5 -1.5,-1.5 -1.5,1.5 1.5,1.5 	"/>
	<polygon fill="none" stroke="#ECECEC" stroke-miterlimit="10" points="7.5,-1.5 4.5,-1.5 4.5,1.5 7.5,1.5 	"/>
	<polygon fill="none" stroke="#ECECEC" stroke-miterlimit="10" points="-4.5,-7.5 -7.5,-7.5 -7.5,-4.5 -4.5,-4.5 	"/>
	<polygon fill="none" stroke="#ECECEC" stroke-miterlimit="10" points="1.5,-7.5 -1.5,-7.5 -1.5,-4.5 1.5,-4.5 	"/>
	<polygon fill="none" stroke="#ECECEC" stroke-miterlimit="10" points="7.5,-7.5 4.5,-7.5 4.5,-4.5 7.5,-4.5 	"/>
	<polygon display="none" fill="none" points="-11,11 11,11 11,-11 -11,-11 	"/>
</symbol>
<g id="Background">
</g>
<g id="grid">
</g>
<g id="_x31_st_ime_UX">
</g>
<g id="profile_pics">
	<g>
		<path fill="#FFFFFF" d="M22.5,29c3.7,0,6.5-2.6,6.6-6l0-0.2c0.8-1.4,2.8-6,0.3-8.7c-0.8-0.8-1.4-1.5-1.9-2.1
			c-1.9-2.2-2.6-3.1-4.9-1.2c-2.3-1.9-3-1-4.9,1.2c-0.5,0.6-1.1,1.3-1.9,2.1c-2.5,2.6-0.8,7.3,0.2,8.9C15.9,26.4,18.9,29,22.5,29z
			 M18.1,12.5c1.1-1.2,1.7-2,2.4-2c0.4,0,1,0.3,1.8,1c0.1,0.1,0.3,0.1,0.5,0c0.8-0.7,1.4-1,1.8-1c0.7,0,1.3,0.8,2.4,2
			c0.5,0.6,1.1,1.3,1.9,2.1c1,1.1,1.2,2.5,1,3.9c0,0,0,0,0-0.1c-0.2-0.2-0.4-0.3-0.8-0.3c-0.4-2.6-1.5-4.5-2.8-4.8
			c-1.1-0.3-1.8-0.1-2.5,0c-0.4,0.1-0.8,0.2-1.3,0.2c-0.6,0-1.2-0.2-1.8-0.3c-0.9-0.2-1.7-0.4-2.3-0.1c-0.7,0.4-1.1,1.6-1.5,2.9
			c-0.2,0.8-0.5,1.5-0.8,2.1c-0.4,0-0.6,0.1-0.7,0.3c0,0.1-0.1,0.1-0.1,0.2c-0.2-1.5,0-3,1-4.1C17,13.8,17.6,13.1,18.1,12.5z
			 M22.5,28.3c-3.2,0-5.8-2.3-5.9-5.3c0,0,0-0.1,0-0.1c0,0,0-0.1,0-0.1c0-0.7-0.1-1.3-0.3-1.9c-0.5-1.5-0.5-1.9-0.4-1.9
			c0.1,0,0.1,0,0.2,0c0,0,0,0,0,0l1.8,0.4c-0.2,0.3-0.2,0.6-0.2,0.9c0,1.1,0.9,2,2,2h0.7c1.1,0,2-0.9,2-1.9c0.1,1.1,0.9,1.9,2,1.9
			h0.7c1.1,0,2-0.9,2-2c0-0.3-0.1-0.6-0.2-0.9c0,0,0,0,0,0l1.8-0.5c0.1,0,0.3,0,0.4,0c0.1,0,0.1,0,0.1,0c0,0,0.1,0.3-0.3,1.3
			c-0.3,0.7-0.6,1.9-0.6,2.7c0,0,0,0,0,0c0,0,0,0.1,0,0.1C28.3,26,25.8,28.3,22.5,28.3z M22.4,20.2c0-0.3-0.1-0.6-0.2-0.8
			c0.1-0.1,0.2-0.1,0.4-0.1c0,0,0.1,0,0.1,0C22.5,19.6,22.4,19.9,22.4,20.2z M23.3,19.6c0,0,0.1,0,0.1,0c0.1-0.1,0.1-0.1,0.1-0.2
			c0.2-0.2,0.5-0.3,0.9-0.3h0.7c0.7,0,1.3,0.6,1.3,1.3c0,0.7-0.6,1.3-1.3,1.3h-0.7c-0.7,0-1.3-0.6-1.3-1.3
			C23.1,20.1,23.2,19.8,23.3,19.6z M19.7,19h0.7c0.7,0,1.3,0.6,1.3,1.3c0,0.7-0.6,1.3-1.3,1.3h-0.7c-0.7,0-1.3-0.6-1.3-1.3
			C18.3,19.6,19,19,19.7,19z M25.1,18.3h-0.7c-0.5,0-0.9,0.2-1.3,0.5c-0.1-0.1-0.3-0.2-0.6-0.2c-0.3,0-0.6,0.1-0.8,0.3
			c-0.4-0.3-0.9-0.6-1.4-0.6h-0.7c-0.5,0-1,0.2-1.3,0.5c0,0-0.1-0.1-0.1-0.1l-1.5-0.3c0.3-0.6,0.5-1.3,0.8-2
			c0.3-1.1,0.7-2.2,1.2-2.5c0.4-0.2,1.1-0.1,1.8,0.1c0.6,0.2,1.2,0.3,2,0.3c0.6,0,1.1-0.1,1.5-0.2c0.6-0.2,1.2-0.3,2.1,0
			c0.8,0.2,1.8,1.6,2.2,4.2l-1.5,0.4c-0.1,0-0.2,0.1-0.2,0.2C26.2,18.5,25.7,18.3,25.1,18.3z"/>
		<path fill="#FFFFFF" d="M22.5,29.2c-5,0-9.4,4-9.9,9c0,0.3,0.1,0.6,0.3,0.8c0.2,0.2,0.4,0.3,0.6,0.3h18c0.2,0,0.5-0.1,0.6-0.3
			c0.2-0.2,0.3-0.5,0.3-0.8C31.9,33.2,27.5,29.2,22.5,29.2z M31.6,38.6c0,0-0.1,0.1-0.1,0.1h-18c0,0-0.1,0-0.1-0.1
			c-0.1-0.1-0.1-0.2-0.1-0.2c0.5-4.7,4.5-8.4,9.2-8.4c4.7,0,8.7,3.7,9.2,8.4C31.7,38.4,31.7,38.5,31.6,38.6z"/>
		<path fill="#FFFFFF" d="M24.3,23.1h-3.6c-0.3,0-0.6,0.2-0.7,0.4c-0.2,0.2-0.2,0.5-0.1,0.7c0.3,0.6,1,1.7,2.6,1.7
			c1.6,0,2.4-1.1,2.6-1.7c0.1-0.2,0.1-0.5-0.1-0.7C24.9,23.2,24.6,23.1,24.3,23.1z M20.5,23.9C20.5,23.9,20.5,23.9,20.5,23.9
			c0.1-0.1,0.1-0.2,0.2-0.2h3.6c0.1,0,0.1,0,0.2,0.1c-0.3,0.6-0.8,1.3-2,1.3C21.3,25.2,20.7,24.5,20.5,23.9z"/>
	</g>
</g>
<g id="create-Viz">
</g>
<g id="graph">
</g>
<g id="data_panel">
</g>
<g id="archive_panel">
</g>
<g id="appearance-panel">
</g>
<g id="cursors">
</g>
</svg>
