<?xml version="1.0" encoding="utf-8"?>
<!-- Generator: Adobe Illustrator 18.1.1, SVG Export Plug-In . SVG Version: 6.00 Build 0)  -->
<svg version="1.1" xmlns="http://www.w3.org/2000/svg" xmlns:xlink="http://www.w3.org/1999/xlink" x="0px" y="0px"
	 viewBox="0 0 45 45" enable-background="new 0 0 45 45" xml:space="preserve">
<symbol  id="close" viewBox="-7 -6.7 14 13.4">
	<line fill="none" stroke="#FFFFFF" stroke-width="0.5" stroke-miterlimit="10" x1="6.5" y1="-6.5" x2="-6.5" y2="6.5"/>
	<line fill="none" stroke="#FFFFFF" stroke-width="0.5" stroke-miterlimit="10" x1="6.5" y1="6.5" x2="-6.5" y2="-6.5"/>
	<polygon display="none" fill="none" points="-7,6 7,6 7,-6 -7,-6 	"/>
</symbol>
<symbol  id="expand" viewBox="-11 -11 22 22">
	<polygon fill="none" stroke="#ECECEC" stroke-miterlimit="10" points="-10.5,10.5 10.5,10.5 10.5,-10.5 -10.5,-10.5 	"/>
	<polyline fill="none" stroke="#ECECEC" stroke-miterlimit="10" points="7.5,-4 7.5,-7.5 4,-7.5 	"/>
	<polyline fill="none" stroke="#ECECEC" stroke-miterlimit="10" points="-4,7.5 -7.5,7.5 -7.5,4 	"/>
	<polyline fill="none" stroke="#ECECEC" stroke-miterlimit="10" points="7.5,4 7.5,7.5 4,7.5 	"/>
	<polyline fill="none" stroke="#ECECEC" stroke-miterlimit="10" points="-4,-7.5 -7.5,-7.5 -7.5,-4 	"/>
	<line fill="none" stroke="#ECECEC" stroke-miterlimit="10" x1="7" y1="-7" x2="3" y2="-3"/>
	<line fill="none" stroke="#ECECEC" stroke-miterlimit="10" x1="-7" y1="7" x2="-3" y2="3"/>
	<line fill="none" stroke="#ECECEC" stroke-miterlimit="10" x1="7" y1="7" x2="3" y2="3"/>
	<line fill="none" stroke="#ECECEC" stroke-miterlimit="10" x1="-7" y1="-7" x2="-3" y2="-3"/>
	<polygon display="none" fill="none" points="-11,11 11,11 11,-11 -11,-11 	"/>
</symbol>
<symbol  id="save" viewBox="-11 -11 22 22">
	<polygon fill="none" stroke="#ECECEC" stroke-miterlimit="10" points="10.5,-10.5 -10.5,-10.5 -10.5,10.5 10.5,10.5 	"/>
	<polygon fill="none" stroke="#ECECEC" stroke-miterlimit="10" points="-3.5,5.5 -5.5,5.5 -5.5,-5.5 5.5,-5.5 5.5,3 3,5.5 1.5,5.5 
		1.5,2.5 -3.5,2.5 	"/>
	<line fill="none" stroke="#ECECEC" stroke-miterlimit="10" x1="-0.5" y1="6" x2="-0.5" y2="4"/>
	<polygon display="none" fill="none" points="-11,11 11,11 11,-11 -11,-11 	"/>
</symbol>
<symbol  id="share" viewBox="-11 -11 22 22">
	<polygon fill="none" stroke="#FFFFFF" stroke-miterlimit="10" points="10.5,-10.5 -10.5,-10.5 -10.5,10.5 10.5,10.5 	"/>
	<path fill="none" stroke="#FFFFFF" stroke-miterlimit="10" d="M-4.4,0c0-1-0.8-1.8-1.8-1.8S-8-1-8,0s0.8,1.8,1.8,1.8S-4.4,1-4.4,0z
		"/>
	<path fill="none" stroke="#FFFFFF" stroke-miterlimit="10" d="M7.6,6c0-1-0.8-1.8-1.8-1.8S4,5,4,6s0.8,1.8,1.8,1.8S7.6,7,7.6,6z"/>
	<path fill="none" stroke="#FFFFFF" stroke-miterlimit="10" d="M7.6-6c0-1-0.8-1.8-1.8-1.8S4-7,4-6s0.8,1.8,1.8,1.8S7.6-5,7.6-6z"/>
	<line fill="none" stroke="#FFFFFF" stroke-miterlimit="10" x1="4.3" y1="-5" x2="-4.7" y2="-0.9"/>
	<line fill="none" stroke="#FFFFFF" stroke-miterlimit="10" x1="-4.8" y1="1.1" x2="4.2" y2="5.2"/>
</symbol>
<symbol  id="view" viewBox="-11 -11 22 22">
	<polygon fill="none" stroke="#ECECEC" stroke-miterlimit="10" points="-10.5,10.5 10.5,10.5 10.5,-10.5 -10.5,-10.5 	"/>
	<polygon fill="none" stroke="#ECECEC" stroke-miterlimit="10" points="-4.5,4.5 -7.5,4.5 -7.5,7.5 -4.5,7.5 	"/>
	<polygon fill="none" stroke="#ECECEC" stroke-miterlimit="10" points="1.5,4.5 -1.5,4.5 -1.5,7.5 1.5,7.5 	"/>
	<polygon fill="none" stroke="#ECECEC" stroke-miterlimit="10" points="7.5,4.5 4.5,4.5 4.5,7.5 7.5,7.5 	"/>
	<polygon fill="none" stroke="#ECECEC" stroke-miterlimit="10" points="-4.5,-1.5 -7.5,-1.5 -7.5,1.5 -4.5,1.5 	"/>
	<polygon fill="none" stroke="#ECECEC" stroke-miterlimit="10" points="1.5,-1.5 -1.5,-1.5 -1.5,1.5 1.5,1.5 	"/>
	<polygon fill="none" stroke="#ECECEC" stroke-miterlimit="10" points="7.5,-1.5 4.5,-1.5 4.5,1.5 7.5,1.5 	"/>
	<polygon fill="none" stroke="#ECECEC" stroke-miterlimit="10" points="-4.5,-7.5 -7.5,-7.5 -7.5,-4.5 -4.5,-4.5 	"/>
	<polygon fill="none" stroke="#ECECEC" stroke-miterlimit="10" points="1.5,-7.5 -1.5,-7.5 -1.5,-4.5 1.5,-4.5 	"/>
	<polygon fill="none" stroke="#ECECEC" stroke-miterlimit="10" points="7.5,-7.5 4.5,-7.5 4.5,-4.5 7.5,-4.5 	"/>
	<polygon display="none" fill="none" points="-11,11 11,11 11,-11 -11,-11 	"/>
</symbol>
<g id="Background">
</g>
<g id="grid">
</g>
<g id="_x31_st_ime_UX">
</g>
<g id="profile_pics">
	<g>
		<path fill="#FFFFFF" d="M13.4,39.3h18c0.3,0,0.6-0.1,0.7-0.3c0.1-0.2,0.2-0.4,0.2-0.6c-0.5-5-4.8-8.8-9.9-8.8
			c-5.1,0-9.4,3.8-9.9,8.8c0,0.2,0,0.4,0.2,0.6C12.8,39.2,13.1,39.3,13.4,39.3z M22.4,30.3c4.8,0,8.7,3.5,9.2,8.3
			c0,0-0.1,0.1-0.2,0.1h-18c-0.1,0-0.2,0-0.2-0.1C13.6,33.8,17.6,30.3,22.4,30.3z"/>
		<path fill="#FFFFFF" d="M24.1,21.7h-3.6c-0.3,0-0.5,0.1-0.7,0.4c-0.2,0.3-0.2,0.6-0.1,0.8c0.5,1.1,1.4,1.7,2.6,1.7
			c1.2,0,2.1-0.6,2.6-1.8c0.1-0.2,0.1-0.5-0.1-0.8C24.7,21.8,24.4,21.7,24.1,21.7z M20.5,22.5C20.5,22.4,20.6,22.4,20.5,22.5
			l3.6-0.1c0,0,0.1,0,0.1,0.1c0,0.1,0.1,0.1,0.1,0.1c-0.4,0.9-1,1.4-1.9,1.4c-1.1,0-1.7-0.7-1.9-1.3C20.4,22.6,20.4,22.5,20.5,22.5z
			"/>
		<path fill="#FFFFFF" d="M27,9.2l-0.1-0.6c0-0.2-0.2-0.3-0.3-0.3c-0.1,0-0.3,0.1-0.3,0.3c0,0,0,0-0.1,0.1C24.8,7.5,23.8,7,21.3,7
			c0,0,0,0,0,0c-1.9,0.1-3.4,0.7-4.5,1.8c-1.9,2.2-1.6,5.7-1.5,7.1l0,0.2v5.3c0,3.9,3.1,7,7,7h0.1c3.8,0,6.6-3,6.6-7.2l0.1-4.4
			c0.1-0.1,0.2-0.2,0.2-0.3c0-0.1-0.1-0.3-0.2-0.3l0-0.8c0-0.1,0-0.1,0-0.2C29.9,11.1,27.6,9.5,27,9.2z M22.4,27.8L22.4,27.8
			c-3.6,0-6.4-2.8-6.4-6.3V17h1.5c-0.1,0.2-0.1,0.4-0.1,0.7c0,1.1,0.9,2,2,2H20c1.1,0,2-0.9,2-2c0-0.3-0.1-0.5-0.1-0.7
			c0.2-0.1,0.3-0.2,0.4-0.2c0.2,0,0.4,0.2,0.4,0.2c0,0,0,0,0,0c-0.1,0.2-0.1,0.4-0.1,0.7c0,1.1,0.9,2,2,2h0.7c1.1,0,2-0.9,2-2
			c0-0.2,0-0.5-0.1-0.7h0.9l-0.1,4.4C28.2,25.1,25.8,27.8,22.4,27.8z M21.3,7.7c2.3,0,3.2,0.4,4.4,1.6c0.1,0.1,0.1,0.1,0.2,0.1
			c0,0,0.1,0,0.1,0c0.1,0,0.2,0,0.3,0l0,0.2c0,0.1,0.1,0.2,0.2,0.2c0.1,0,2.5,1,1.9,4.9c-0.6-1-1.7-2.9-2-4c0-0.1-0.1-0.2-0.3-0.2
			c0,0-0.1,0-0.1,0c-0.1,0-0.2,0-0.3,0.1c-0.1,0.1-0.4,0.3-0.6,0.4c-0.1,0.1-0.3,0.2-0.4,0.2c0.1-0.4,0.2-0.7,0.2-0.7
			c0.1-0.1,0-0.3-0.1-0.4c-0.1-0.1-0.3-0.1-0.4,0c-0.1,0.1-0.5,0.4-0.9,0.8c0.1-0.2,0.1-0.4,0.1-0.4c0-0.1,0-0.3-0.1-0.4
			c-0.1-0.1-0.3-0.1-0.4,0c-0.3,0.2-1.2,0.9-1.9,1.5c0.1-0.5,0.3-0.7,0.4-0.7c0.1-0.1,0.1-0.3,0-0.4c-0.1-0.1-0.3-0.2-0.4-0.1
			c-0.2,0.1-1.2,0.5-2.1,1.1c0.1-0.1,0.1-0.2,0.1-0.2c0.1-0.1,0.1-0.2,0-0.4s-0.2-0.2-0.3-0.2c-0.3,0-2,0.1-3,2.3
			c0.1-1.3,0.5-2.6,1.4-3.6C18.2,8.3,19.5,7.8,21.3,7.7z M19.4,16.3H20c0.7,0,1.3,0.6,1.3,1.3S20.8,19,20,19h-0.7
			c-0.7,0-1.3-0.6-1.3-1.3S18.6,16.3,19.4,16.3z M26.8,17.6c0,0.7-0.6,1.3-1.3,1.3h-0.7c-0.7,0-1.3-0.6-1.3-1.3s0.6-1.3,1.3-1.3h0.7
			C26.2,16.3,26.8,16.9,26.8,17.6z M27,16.3c-0.4-0.4-0.9-0.7-1.5-0.7h-0.7c-0.6,0-1.2,0.3-1.6,0.8c-0.2-0.1-0.4-0.3-0.8-0.3
			c-0.3,0-0.6,0.1-0.9,0.3c-0.4-0.4-0.9-0.7-1.5-0.7h-0.7c-0.6,0-1.1,0.3-1.5,0.7H16v-0.1c0.1-3.5,1.5-4.5,2.3-4.8
			c-0.2,0.4-0.3,0.9-0.4,1.3c0,0.2,0.1,0.3,0.3,0.4c0.2,0,0.3-0.1,0.4-0.2c0.2-0.5,1.1-1.1,1.9-1.5c-0.1,0.4-0.2,0.9-0.2,1.5
			c0,0.2,0.2,0.3,0.3,0.3c0.2,0,0.3-0.1,0.4-0.3c0.1-0.3,0.8-1.1,1.7-1.7c0,0.3-0.1,0.7-0.1,1.1c0,0.2,0.1,0.3,0.3,0.3
			c0.2,0,0.3-0.1,0.4-0.3c0.1-0.3,0.3-0.7,0.6-1c0,0.3,0,0.5,0,0.8c0,0.2,0.1,0.3,0.3,0.3c0.2,0,0.3-0.1,0.4-0.3
			c0.1-0.2,0.5-0.5,0.8-0.7c0.1-0.1,0.2-0.1,0.3-0.2c0.7,1.7,2.3,4.3,2.4,4.4c0,0,0,0,0,0l0,0.5H27z"/>
	</g>
</g>
<g id="create-Viz">
</g>
<g id="graph">
</g>
<g id="data_panel">
</g>
<g id="archive_panel">
</g>
<g id="appearance-panel">
</g>
<g id="cursors">
</g>
</svg>
