<?xml version="1.0" encoding="utf-8"?>
<!-- Generator: Adobe Illustrator 18.1.1, SVG Export Plug-In . SVG Version: 6.00 Build 0)  -->
<svg version="1.1" xmlns="http://www.w3.org/2000/svg" xmlns:xlink="http://www.w3.org/1999/xlink" x="0px" y="0px"
	 viewBox="0 0 45 45" enable-background="new 0 0 45 45" xml:space="preserve">
<symbol  id="close" viewBox="-7 -6.7 14 13.4">
	<line fill="none" stroke="#FFFFFF" stroke-width="0.5" stroke-miterlimit="10" x1="6.5" y1="-6.5" x2="-6.5" y2="6.5"/>
	<line fill="none" stroke="#FFFFFF" stroke-width="0.5" stroke-miterlimit="10" x1="6.5" y1="6.5" x2="-6.5" y2="-6.5"/>
	<polygon display="none" fill="none" points="-7,6 7,6 7,-6 -7,-6 	"/>
</symbol>
<symbol  id="expand" viewBox="-11 -11 22 22">
	<polygon fill="none" stroke="#ECECEC" stroke-miterlimit="10" points="-10.5,10.5 10.5,10.5 10.5,-10.5 -10.5,-10.5 	"/>
	<polyline fill="none" stroke="#ECECEC" stroke-miterlimit="10" points="7.5,-4 7.5,-7.5 4,-7.5 	"/>
	<polyline fill="none" stroke="#ECECEC" stroke-miterlimit="10" points="-4,7.5 -7.5,7.5 -7.5,4 	"/>
	<polyline fill="none" stroke="#ECECEC" stroke-miterlimit="10" points="7.5,4 7.5,7.5 4,7.5 	"/>
	<polyline fill="none" stroke="#ECECEC" stroke-miterlimit="10" points="-4,-7.5 -7.5,-7.5 -7.5,-4 	"/>
	<line fill="none" stroke="#ECECEC" stroke-miterlimit="10" x1="7" y1="-7" x2="3" y2="-3"/>
	<line fill="none" stroke="#ECECEC" stroke-miterlimit="10" x1="-7" y1="7" x2="-3" y2="3"/>
	<line fill="none" stroke="#ECECEC" stroke-miterlimit="10" x1="7" y1="7" x2="3" y2="3"/>
	<line fill="none" stroke="#ECECEC" stroke-miterlimit="10" x1="-7" y1="-7" x2="-3" y2="-3"/>
	<polygon display="none" fill="none" points="-11,11 11,11 11,-11 -11,-11 	"/>
</symbol>
<symbol  id="save" viewBox="-11 -11 22 22">
	<polygon fill="none" stroke="#ECECEC" stroke-miterlimit="10" points="10.5,-10.5 -10.5,-10.5 -10.5,10.5 10.5,10.5 	"/>
	<polygon fill="none" stroke="#ECECEC" stroke-miterlimit="10" points="-3.5,5.5 -5.5,5.5 -5.5,-5.5 5.5,-5.5 5.5,3 3,5.5 1.5,5.5 
		1.5,2.5 -3.5,2.5 	"/>
	<line fill="none" stroke="#ECECEC" stroke-miterlimit="10" x1="-0.5" y1="6" x2="-0.5" y2="4"/>
	<polygon display="none" fill="none" points="-11,11 11,11 11,-11 -11,-11 	"/>
</symbol>
<symbol  id="share" viewBox="-11 -11 22 22">
	<polygon fill="none" stroke="#FFFFFF" stroke-miterlimit="10" points="10.5,-10.5 -10.5,-10.5 -10.5,10.5 10.5,10.5 	"/>
	<path fill="none" stroke="#FFFFFF" stroke-miterlimit="10" d="M-4.4,0c0-1-0.8-1.8-1.8-1.8S-8-1-8,0s0.8,1.8,1.8,1.8S-4.4,1-4.4,0z
		"/>
	<path fill="none" stroke="#FFFFFF" stroke-miterlimit="10" d="M7.6,6c0-1-0.8-1.8-1.8-1.8S4,5,4,6s0.8,1.8,1.8,1.8S7.6,7,7.6,6z"/>
	<path fill="none" stroke="#FFFFFF" stroke-miterlimit="10" d="M7.6-6c0-1-0.8-1.8-1.8-1.8S4-7,4-6s0.8,1.8,1.8,1.8S7.6-5,7.6-6z"/>
	<line fill="none" stroke="#FFFFFF" stroke-miterlimit="10" x1="4.3" y1="-5" x2="-4.7" y2="-0.9"/>
	<line fill="none" stroke="#FFFFFF" stroke-miterlimit="10" x1="-4.8" y1="1.1" x2="4.2" y2="5.2"/>
</symbol>
<symbol  id="view" viewBox="-11 -11 22 22">
	<polygon fill="none" stroke="#ECECEC" stroke-miterlimit="10" points="-10.5,10.5 10.5,10.5 10.5,-10.5 -10.5,-10.5 	"/>
	<polygon fill="none" stroke="#ECECEC" stroke-miterlimit="10" points="-4.5,4.5 -7.5,4.5 -7.5,7.5 -4.5,7.5 	"/>
	<polygon fill="none" stroke="#ECECEC" stroke-miterlimit="10" points="1.5,4.5 -1.5,4.5 -1.5,7.5 1.5,7.5 	"/>
	<polygon fill="none" stroke="#ECECEC" stroke-miterlimit="10" points="7.5,4.5 4.5,4.5 4.5,7.5 7.5,7.5 	"/>
	<polygon fill="none" stroke="#ECECEC" stroke-miterlimit="10" points="-4.5,-1.5 -7.5,-1.5 -7.5,1.5 -4.5,1.5 	"/>
	<polygon fill="none" stroke="#ECECEC" stroke-miterlimit="10" points="1.5,-1.5 -1.5,-1.5 -1.5,1.5 1.5,1.5 	"/>
	<polygon fill="none" stroke="#ECECEC" stroke-miterlimit="10" points="7.5,-1.5 4.5,-1.5 4.5,1.5 7.5,1.5 	"/>
	<polygon fill="none" stroke="#ECECEC" stroke-miterlimit="10" points="-4.5,-7.5 -7.5,-7.5 -7.5,-4.5 -4.5,-4.5 	"/>
	<polygon fill="none" stroke="#ECECEC" stroke-miterlimit="10" points="1.5,-7.5 -1.5,-7.5 -1.5,-4.5 1.5,-4.5 	"/>
	<polygon fill="none" stroke="#ECECEC" stroke-miterlimit="10" points="7.5,-7.5 4.5,-7.5 4.5,-4.5 7.5,-4.5 	"/>
	<polygon display="none" fill="none" points="-11,11 11,11 11,-11 -11,-11 	"/>
</symbol>
<g id="Background">
</g>
<g id="grid">
</g>
<g id="_x31_st_ime_UX">
</g>
<g id="profile_pics">
	<g>
		<path fill="#FFFFFF" d="M29.7,13.3c-0.1-0.5-0.4-0.9-0.7-1.1c0-0.5-0.2-1.2-0.6-1.7c-0.3-0.5-0.8-0.8-1.2-0.8
			C27,9,26.5,8.4,25.7,8.4c-0.2,0-0.4,0-0.6,0.1c-0.8-0.9-1.7-1-2.6-0.3c-0.9-0.7-1.8-0.5-2.6,0.3c-0.2-0.1-0.4-0.1-0.6-0.1
			c-0.8,0-1.3,0.6-1.6,1.3c-0.4,0.1-0.9,0.3-1.2,0.8c-0.4,0.5-0.6,1.2-0.6,1.7c-0.3,0.2-0.6,0.6-0.7,1.1c-0.1,0.5-0.1,1.1,0.2,1.5
			c-0.6,1.1,0,2.5,0.3,3V21c0,0.7,0.1,1.3,0.2,1.8c0,0,0,0.1,0.1,0.1c0.8,3.2,3.4,5.5,6.4,5.5c3.1,0,5.8-2.3,6.4-5.6l0,0l0,0
			c0.1-0.6,0.2-1.2,0.2-1.7l0-2.9c0,0,0.1,0,0.1-0.1c0-0.1,1-2,0.4-3.2C29.8,14.4,29.8,13.8,29.7,13.3z M18.5,13.9
			c0.3-0.2,0.6-0.6,0.7-1.2c0.3,0.1,0.6,0,1-0.2c0.4,0.2,1,0.3,1.4,0.3c0.3,0,0.8,0,1.2-0.3c0.3,0.2,0.7,0.3,1.1,0.3
			c0.4,0,0.8-0.1,1.2-0.3c0.3,0.2,0.7,0.2,1,0.2c0.1,0.6,0.4,0.9,0.7,1.2c-0.1,0.6,0,1.6,1,2.3c-0.1,0.9,0.4,1.4,0.7,1.7
			c0,0,0,0,0,0l0,3.1c0,0.4,0,0.9-0.1,1.4c-0.3,0.1-0.7,0.1-1,0.1c-0.8,0-1.4-0.2-1.7-0.5c-0.8-0.8-1.9-1.3-3.1-1.3
			c-0.3,0-0.6,0-0.9,0.1c-0.9,0.2-1.6,0.6-2.2,1.2c-0.3,0.3-0.9,0.5-1.8,0.5c-0.3,0-0.6,0-0.9-0.1c-0.1-0.4-0.2-0.9-0.2-1.4v-2.9
			c0,0,0,0,0,0c0,0,0.1-0.1,0.2-0.2c0.3-0.3,0.8-0.8,0.7-1.7C18.5,15.5,18.6,14.5,18.5,13.9z M16.9,23.1c0.2,0,0.5,0,0.7,0
			c0,0,0,0,0,0c0,0,0,0,0,0s0,0,0,0c0,0,0,0,0,0c0.2,0,0.3,0,0.5,0c0.1,0,0.2,0,0.3-0.1c0.1,0,0.2,0,0.3-0.1c0.1,0,0.3-0.1,0.4-0.1
			c0.1,0,0.1-0.1,0.2-0.1c0.2-0.1,0.4-0.2,0.5-0.4c0.6-0.7,1.6-1.1,2.6-1.1c1,0,2,0.4,2.6,1.1c0.4,0.5,1.2,0.8,2.3,0.8
			c0.3,0,0.5,0,0.8-0.1c0,0,0,0,0.1,0c-0.8,2.7-3,4.6-5.6,4.6C20,27.7,17.7,25.8,16.9,23.1z M28.8,17.3c-0.3-0.3-0.5-0.6-0.4-1.2
			c0-0.1,0-0.3-0.2-0.4C27,15,27.3,14,27.4,13.9c0.1-0.2,0-0.4-0.2-0.4c-0.1,0-0.7-0.4-0.4-1.3c0-0.2,0-0.3-0.2-0.4
			c-0.1-0.1-0.3,0-0.4,0.1c-0.3,0.4-0.6,0.4-0.9,0.1c-0.1-0.1-0.2-0.1-0.3-0.1c-0.1,0-0.2,0.1-0.2,0.1c-0.1,0.1-0.5,0.3-0.9,0.3
			c-0.4,0-0.7-0.1-0.8-0.2c-0.1-0.1-0.3-0.1-0.5,0c-0.2,0.1-0.6,0.2-1,0.2c-0.6,0-1-0.2-1.1-0.3c-0.1-0.1-0.1-0.1-0.2-0.1
			c-0.1,0-0.2,0-0.3,0.1c-0.4,0.3-0.6,0.3-0.9-0.1c-0.1-0.1-0.3-0.2-0.4-0.1c-0.1,0.1-0.2,0.3-0.2,0.4c0.3,0.9-0.4,1.3-0.4,1.3
			c-0.2,0.1-0.3,0.3-0.2,0.4c0,0,0.4,1.1-0.8,1.8c-0.1,0.1-0.2,0.2-0.2,0.4c0.1,0.6-0.1,0.9-0.4,1.2c-0.3-0.7-0.5-1.7-0.1-2.3
			c0.1-0.1,0.1-0.3,0-0.5c-0.2-0.2-0.3-0.6-0.2-1.1c0.1-0.4,0.3-0.7,0.5-0.7c0.1,0,0.2-0.1,0.2-0.2c0-0.1,0.1-0.2,0-0.3
			c-0.1-0.2,0-0.9,0.4-1.4c0.1-0.2,0.4-0.5,0.9-0.5c0,0,0,0,0,0c0.2,0,0.3-0.1,0.4-0.3c0.2-0.6,0.8-1.3,1.4-0.8
			c0.2,0.1,0.4,0.1,0.5-0.1c0.6-0.8,1.2-0.9,2-0.3c0.1,0.1,0.3,0.1,0.5,0c0.7-0.6,1.4-0.6,2,0.3c0.1,0.1,0.3,0.2,0.5,0.1
			c0.7-0.4,1.3,0.2,1.4,0.8c0,0.2,0.3,0.3,0.4,0.3c0.4,0,0.7,0.3,0.8,0.5c0.4,0.5,0.5,1.2,0.4,1.4c0,0.1,0,0.2,0,0.3
			c0,0.1,0.1,0.1,0.2,0.2c0.2,0.1,0.4,0.4,0.5,0.7c0.1,0.4,0,0.9-0.2,1.1c-0.1,0.1-0.2,0.3,0,0.5C29.3,15.6,29,16.6,28.8,17.3z"/>
		<path fill="#FFFFFF" d="M22.5,29.2c-5.1,0-9.4,3.8-9.9,8.9c0,0.2,0,0.5,0.2,0.6c0.2,0.2,0.4,0.3,0.7,0.3h18c0.3,0,0.5-0.1,0.7-0.3
			c0.2-0.2,0.2-0.4,0.2-0.6C31.9,33,27.6,29.2,22.5,29.2z M31.5,38.3h-18c-0.1,0-0.2,0-0.2-0.1c0.5-4.7,4.5-8.2,9.2-8.2
			s8.7,3.5,9.2,8.3C31.7,38.2,31.6,38.3,31.5,38.3z"/>
		<path fill="#FFFFFF" d="M25.1,23.7c0.1-0.2,0.1-0.4-0.1-0.6c-0.2-0.2-0.4-0.4-0.8-0.4h-3.6c-0.3,0-0.6,0.1-0.8,0.4
			c-0.1,0.2-0.1,0.4-0.1,0.6c0.3,0.6,1,1.6,2.6,1.6C24.2,25.3,24.9,24.3,25.1,23.7z M20.7,23.4h3.6c0.1,0,0.2,0,0.2,0
			c-0.2,0.5-0.8,1.2-2,1.2c-1.2,0-1.8-0.7-2-1.2C20.5,23.4,20.6,23.4,20.7,23.4z"/>
	</g>
</g>
<g id="create-Viz">
</g>
<g id="graph">
</g>
<g id="data_panel">
</g>
<g id="archive_panel">
</g>
<g id="appearance-panel">
</g>
<g id="cursors">
</g>
</svg>
