<?xml version="1.0" encoding="utf-8"?>
<!-- Generator: Adobe Illustrator 18.1.1, SVG Export Plug-In . SVG Version: 6.00 Build 0)  -->
<svg version="1.1" xmlns="http://www.w3.org/2000/svg" xmlns:xlink="http://www.w3.org/1999/xlink" x="0px" y="0px"
	 viewBox="0 0 45 45" enable-background="new 0 0 45 45" xml:space="preserve">
<symbol  id="close" viewBox="-7 -6.7 14 13.4">
	<line fill="none" stroke="#FFFFFF" stroke-width="0.5" stroke-miterlimit="10" x1="6.5" y1="-6.5" x2="-6.5" y2="6.5"/>
	<line fill="none" stroke="#FFFFFF" stroke-width="0.5" stroke-miterlimit="10" x1="6.5" y1="6.5" x2="-6.5" y2="-6.5"/>
	<polygon display="none" fill="none" points="-7,6 7,6 7,-6 -7,-6 	"/>
</symbol>
<symbol  id="expand" viewBox="-11 -11 22 22">
	<polygon fill="none" stroke="#ECECEC" stroke-miterlimit="10" points="-10.5,10.5 10.5,10.5 10.5,-10.5 -10.5,-10.5 	"/>
	<polyline fill="none" stroke="#ECECEC" stroke-miterlimit="10" points="7.5,-4 7.5,-7.5 4,-7.5 	"/>
	<polyline fill="none" stroke="#ECECEC" stroke-miterlimit="10" points="-4,7.5 -7.5,7.5 -7.5,4 	"/>
	<polyline fill="none" stroke="#ECECEC" stroke-miterlimit="10" points="7.5,4 7.5,7.5 4,7.5 	"/>
	<polyline fill="none" stroke="#ECECEC" stroke-miterlimit="10" points="-4,-7.5 -7.5,-7.5 -7.5,-4 	"/>
	<line fill="none" stroke="#ECECEC" stroke-miterlimit="10" x1="7" y1="-7" x2="3" y2="-3"/>
	<line fill="none" stroke="#ECECEC" stroke-miterlimit="10" x1="-7" y1="7" x2="-3" y2="3"/>
	<line fill="none" stroke="#ECECEC" stroke-miterlimit="10" x1="7" y1="7" x2="3" y2="3"/>
	<line fill="none" stroke="#ECECEC" stroke-miterlimit="10" x1="-7" y1="-7" x2="-3" y2="-3"/>
	<polygon display="none" fill="none" points="-11,11 11,11 11,-11 -11,-11 	"/>
</symbol>
<symbol  id="save" viewBox="-11 -11 22 22">
	<polygon fill="none" stroke="#ECECEC" stroke-miterlimit="10" points="10.5,-10.5 -10.5,-10.5 -10.5,10.5 10.5,10.5 	"/>
	<polygon fill="none" stroke="#ECECEC" stroke-miterlimit="10" points="-3.5,5.5 -5.5,5.5 -5.5,-5.5 5.5,-5.5 5.5,3 3,5.5 1.5,5.5 
		1.5,2.5 -3.5,2.5 	"/>
	<line fill="none" stroke="#ECECEC" stroke-miterlimit="10" x1="-0.5" y1="6" x2="-0.5" y2="4"/>
	<polygon display="none" fill="none" points="-11,11 11,11 11,-11 -11,-11 	"/>
</symbol>
<symbol  id="share" viewBox="-11 -11 22 22">
	<polygon fill="none" stroke="#FFFFFF" stroke-miterlimit="10" points="10.5,-10.5 -10.5,-10.5 -10.5,10.5 10.5,10.5 	"/>
	<path fill="none" stroke="#FFFFFF" stroke-miterlimit="10" d="M-4.4,0c0-1-0.8-1.8-1.8-1.8S-8-1-8,0s0.8,1.8,1.8,1.8S-4.4,1-4.4,0z
		"/>
	<path fill="none" stroke="#FFFFFF" stroke-miterlimit="10" d="M7.6,6c0-1-0.8-1.8-1.8-1.8S4,5,4,6s0.8,1.8,1.8,1.8S7.6,7,7.6,6z"/>
	<path fill="none" stroke="#FFFFFF" stroke-miterlimit="10" d="M7.6-6c0-1-0.8-1.8-1.8-1.8S4-7,4-6s0.8,1.8,1.8,1.8S7.6-5,7.6-6z"/>
	<line fill="none" stroke="#FFFFFF" stroke-miterlimit="10" x1="4.3" y1="-5" x2="-4.7" y2="-0.9"/>
	<line fill="none" stroke="#FFFFFF" stroke-miterlimit="10" x1="-4.8" y1="1.1" x2="4.2" y2="5.2"/>
</symbol>
<symbol  id="view" viewBox="-11 -11 22 22">
	<polygon fill="none" stroke="#ECECEC" stroke-miterlimit="10" points="-10.5,10.5 10.5,10.5 10.5,-10.5 -10.5,-10.5 	"/>
	<polygon fill="none" stroke="#ECECEC" stroke-miterlimit="10" points="-4.5,4.5 -7.5,4.5 -7.5,7.5 -4.5,7.5 	"/>
	<polygon fill="none" stroke="#ECECEC" stroke-miterlimit="10" points="1.5,4.5 -1.5,4.5 -1.5,7.5 1.5,7.5 	"/>
	<polygon fill="none" stroke="#ECECEC" stroke-miterlimit="10" points="7.5,4.5 4.5,4.5 4.5,7.5 7.5,7.5 	"/>
	<polygon fill="none" stroke="#ECECEC" stroke-miterlimit="10" points="-4.5,-1.5 -7.5,-1.5 -7.5,1.5 -4.5,1.5 	"/>
	<polygon fill="none" stroke="#ECECEC" stroke-miterlimit="10" points="1.5,-1.5 -1.5,-1.5 -1.5,1.5 1.5,1.5 	"/>
	<polygon fill="none" stroke="#ECECEC" stroke-miterlimit="10" points="7.5,-1.5 4.5,-1.5 4.5,1.5 7.5,1.5 	"/>
	<polygon fill="none" stroke="#ECECEC" stroke-miterlimit="10" points="-4.5,-7.5 -7.5,-7.5 -7.5,-4.5 -4.5,-4.5 	"/>
	<polygon fill="none" stroke="#ECECEC" stroke-miterlimit="10" points="1.5,-7.5 -1.5,-7.5 -1.5,-4.5 1.5,-4.5 	"/>
	<polygon fill="none" stroke="#ECECEC" stroke-miterlimit="10" points="7.5,-7.5 4.5,-7.5 4.5,-4.5 7.5,-4.5 	"/>
	<polygon display="none" fill="none" points="-11,11 11,11 11,-11 -11,-11 	"/>
</symbol>
<g id="Background">
</g>
<g id="grid">
</g>
<g id="_x31_st_ime_UX">
</g>
<g id="profile_pics">
	<g>
		<path fill="#FFFFFF" d="M14.8,19c0,3.8,2.8,6.8,6.4,6.8h0c3.6,0,6.3-3,6.3-7l0-1.5c0.1-0.3,1.5-6-1.8-8.8
			c-0.1-0.1-0.2-0.6-0.2-0.7c0.1-0.1,0.2-0.2,0.1-0.4c-0.1-0.2-0.2-0.3-0.4-0.2c-0.5,0.1-0.8,0.4-0.9,0.6C24,7.6,23.2,7.3,22,7.3
			c-1.8,0-3.7,0.5-5.8,1.6c-1.7,1.3-2.2,4.4-1.5,9.2V19z M22,8c1.6,0,2.4,0.5,2.4,0.5c0.1,0.1,0.3,0.1,0.4,0C24.9,8.4,25,8.3,25,8.2
			c0.1,0.3,0.2,0.6,0.4,0.8l0,0c1.6,1.3,1.9,3.5,1.9,5.3c0-0.1-0.1-0.2-0.1-0.3c0,0,0-0.1-0.1-0.1c-1.1-0.8-2.8-3.6-2.9-3.6
			c-0.1-0.1-0.2-0.2-0.3-0.2c0,0-0.1,0-0.1,0c-0.6,0.3-1.3,0.4-2.1,0.4c-0.6,0-1.1-0.1-1.7-0.1c-1.1-0.1-2.1-0.2-2.8,0.1
			c-1.1,0.4-1.7,1.6-2,3.4c0-2.3,0.5-3.8,1.5-4.5C18.5,8.5,20.4,8,22,8z M21.2,25.1c-3.2,0-5.7-2.7-5.7-6.1v-0.4c0,0,0-0.1,0-0.1
			c0-0.5,0-1,0-1.5h1.2c0,0.1,0,0.2,0,0.3c0,0.9,0.8,1.7,1.7,1.7h0.7c0.9,0,1.7-0.8,1.7-1.7c0-0.1,0-0.2,0-0.3
			c0.1-0.1,0.3-0.2,0.4-0.2c0.1,0,0.2,0.1,0.3,0.2c0,0.1,0,0.2,0,0.3c0,0.9,0.8,1.7,1.7,1.7h0.7c0.9,0,1.7-0.8,1.7-1.7
			c0-0.1,0-0.2,0-0.3h1.3c0,0,0,0,0,0l0,1.8C26.9,22.4,24.5,25.1,21.2,25.1L21.2,25.1z M24.9,17.3c0,0.6-0.5,1-1,1h-0.7
			c-0.6,0-1-0.5-1-1c0-0.6,0.5-1,1-1h0.7C24.5,16.3,24.9,16.7,24.9,17.3z M25.3,15.7l-2.5-0.3L25.3,15.7
			C25.3,15.7,25.3,15.7,25.3,15.7z M25.4,14.9l-2.6-0.3c-0.4,0-0.7,0.3-0.7,0.7c0,0.2,0.1,0.4,0.2,0.6c-0.2,0.1-0.3,0.2-0.4,0.4
			c-0.1-0.1-0.3-0.2-0.5-0.2c-0.2,0-0.4,0-0.7,0.2c-0.1-0.2-0.2-0.3-0.4-0.4c0.2-0.2,0.3-0.4,0.3-0.6c0-0.4-0.3-0.7-0.8-0.6
			l-2.5,0.3c-0.4,0-0.7,0.4-0.6,0.8c0,0.2,0.1,0.4,0.3,0.5h-1.2c0.1-2.6,0.5-4.5,1.7-4.9c0.6-0.2,1.5-0.2,2.5-0.1
			c0.6,0.1,1.2,0.1,1.8,0.1c0.8,0,1.5-0.1,2.1-0.4c0.5,0.7,1.8,2.7,2.8,3.5c0.2,0.3,0.3,1.1,0.3,1.8h-1.2c0.2-0.1,0.3-0.3,0.3-0.5
			C26.1,15.3,25.8,15,25.4,14.9z M17.2,15.7L17.2,15.7l2.5-0.3L17.2,15.7l0,0.3L17.2,15.7z M18.5,16.3h0.7c0.6,0,1,0.5,1,1
			c0,0.6-0.5,1-1,1h-0.7c-0.6,0-1-0.5-1-1C17.5,16.7,17.9,16.3,18.5,16.3z"/>
		<path fill="#FFFFFF" d="M30.3,37.3c0.2,0,0.4-0.1,0.6-0.3c0.2-0.3,0.4-0.7,0.3-1c-0.5-5.2-4.9-9.2-9.9-9.2s-9.4,4-9.9,9.2
			c0,0.3,0.1,0.7,0.3,1c0.2,0.2,0.4,0.3,0.6,0.3H30.3z M21.3,27.5c4.7,0,8.7,3.8,9.2,8.6c0,0.2-0.1,0.4-0.2,0.5l-18,0
			c-0.1,0-0.2-0.3-0.2-0.5C12.5,31.3,16.6,27.5,21.3,27.5z"/>
		<path fill="#FFFFFF" d="M22.9,21h-3.3c-0.3,0-0.6,0.1-0.7,0.3c-0.1,0.2-0.1,0.4-0.1,0.6c0.2,0.6,0.9,1.6,2.4,1.6
			c1.6,0,2.2-1,2.4-1.6c0.1-0.2,0.1-0.4-0.1-0.6C23.5,21.1,23.2,21,22.9,21z M19.4,21.7c0,0,0.1,0,0.2,0h3.3c0.1,0,0.1,0,0.1,0
			c-0.2,0.5-0.7,1.1-1.8,1.1C20.2,22.8,19.7,22.2,19.4,21.7z"/>
	</g>
</g>
<g id="create-Viz">
</g>
<g id="graph">
</g>
<g id="data_panel">
</g>
<g id="archive_panel">
</g>
<g id="appearance-panel">
</g>
<g id="cursors">
</g>
</svg>
