<?xml version="1.0" encoding="utf-8"?>
<!-- Generator: Adobe Illustrator 18.1.1, SVG Export Plug-In . SVG Version: 6.00 Build 0)  -->
<svg version="1.1" xmlns="http://www.w3.org/2000/svg" xmlns:xlink="http://www.w3.org/1999/xlink" x="0px" y="0px"
	 viewBox="0 0 45 45" enable-background="new 0 0 45 45" xml:space="preserve">
<symbol  id="close" viewBox="-7 -6.7 14 13.4">
	<line fill="none" stroke="#FFFFFF" stroke-width="0.5" stroke-miterlimit="10" x1="6.5" y1="-6.5" x2="-6.5" y2="6.5"/>
	<line fill="none" stroke="#FFFFFF" stroke-width="0.5" stroke-miterlimit="10" x1="6.5" y1="6.5" x2="-6.5" y2="-6.5"/>
	<polygon display="none" fill="none" points="-7,6 7,6 7,-6 -7,-6 	"/>
</symbol>
<symbol  id="expand" viewBox="-11 -11 22 22">
	<polygon fill="none" stroke="#ECECEC" stroke-miterlimit="10" points="-10.5,10.5 10.5,10.5 10.5,-10.5 -10.5,-10.5 	"/>
	<polyline fill="none" stroke="#ECECEC" stroke-miterlimit="10" points="7.5,-4 7.5,-7.5 4,-7.5 	"/>
	<polyline fill="none" stroke="#ECECEC" stroke-miterlimit="10" points="-4,7.5 -7.5,7.5 -7.5,4 	"/>
	<polyline fill="none" stroke="#ECECEC" stroke-miterlimit="10" points="7.5,4 7.5,7.5 4,7.5 	"/>
	<polyline fill="none" stroke="#ECECEC" stroke-miterlimit="10" points="-4,-7.5 -7.5,-7.5 -7.5,-4 	"/>
	<line fill="none" stroke="#ECECEC" stroke-miterlimit="10" x1="7" y1="-7" x2="3" y2="-3"/>
	<line fill="none" stroke="#ECECEC" stroke-miterlimit="10" x1="-7" y1="7" x2="-3" y2="3"/>
	<line fill="none" stroke="#ECECEC" stroke-miterlimit="10" x1="7" y1="7" x2="3" y2="3"/>
	<line fill="none" stroke="#ECECEC" stroke-miterlimit="10" x1="-7" y1="-7" x2="-3" y2="-3"/>
	<polygon display="none" fill="none" points="-11,11 11,11 11,-11 -11,-11 	"/>
</symbol>
<symbol  id="save" viewBox="-11 -11 22 22">
	<polygon fill="none" stroke="#ECECEC" stroke-miterlimit="10" points="10.5,-10.5 -10.5,-10.5 -10.5,10.5 10.5,10.5 	"/>
	<polygon fill="none" stroke="#ECECEC" stroke-miterlimit="10" points="-3.5,5.5 -5.5,5.5 -5.5,-5.5 5.5,-5.5 5.5,3 3,5.5 1.5,5.5 
		1.5,2.5 -3.5,2.5 	"/>
	<line fill="none" stroke="#ECECEC" stroke-miterlimit="10" x1="-0.5" y1="6" x2="-0.5" y2="4"/>
	<polygon display="none" fill="none" points="-11,11 11,11 11,-11 -11,-11 	"/>
</symbol>
<symbol  id="share" viewBox="-11 -11 22 22">
	<polygon fill="none" stroke="#FFFFFF" stroke-miterlimit="10" points="10.5,-10.5 -10.5,-10.5 -10.5,10.5 10.5,10.5 	"/>
	<path fill="none" stroke="#FFFFFF" stroke-miterlimit="10" d="M-4.4,0c0-1-0.8-1.8-1.8-1.8S-8-1-8,0s0.8,1.8,1.8,1.8S-4.4,1-4.4,0z
		"/>
	<path fill="none" stroke="#FFFFFF" stroke-miterlimit="10" d="M7.6,6c0-1-0.8-1.8-1.8-1.8S4,5,4,6s0.8,1.8,1.8,1.8S7.6,7,7.6,6z"/>
	<path fill="none" stroke="#FFFFFF" stroke-miterlimit="10" d="M7.6-6c0-1-0.8-1.8-1.8-1.8S4-7,4-6s0.8,1.8,1.8,1.8S7.6-5,7.6-6z"/>
	<line fill="none" stroke="#FFFFFF" stroke-miterlimit="10" x1="4.3" y1="-5" x2="-4.7" y2="-0.9"/>
	<line fill="none" stroke="#FFFFFF" stroke-miterlimit="10" x1="-4.8" y1="1.1" x2="4.2" y2="5.2"/>
</symbol>
<symbol  id="view" viewBox="-11 -11 22 22">
	<polygon fill="none" stroke="#ECECEC" stroke-miterlimit="10" points="-10.5,10.5 10.5,10.5 10.5,-10.5 -10.5,-10.5 	"/>
	<polygon fill="none" stroke="#ECECEC" stroke-miterlimit="10" points="-4.5,4.5 -7.5,4.5 -7.5,7.5 -4.5,7.5 	"/>
	<polygon fill="none" stroke="#ECECEC" stroke-miterlimit="10" points="1.5,4.5 -1.5,4.5 -1.5,7.5 1.5,7.5 	"/>
	<polygon fill="none" stroke="#ECECEC" stroke-miterlimit="10" points="7.5,4.5 4.5,4.5 4.5,7.5 7.5,7.5 	"/>
	<polygon fill="none" stroke="#ECECEC" stroke-miterlimit="10" points="-4.5,-1.5 -7.5,-1.5 -7.5,1.5 -4.5,1.5 	"/>
	<polygon fill="none" stroke="#ECECEC" stroke-miterlimit="10" points="1.5,-1.5 -1.5,-1.5 -1.5,1.5 1.5,1.5 	"/>
	<polygon fill="none" stroke="#ECECEC" stroke-miterlimit="10" points="7.5,-1.5 4.5,-1.5 4.5,1.5 7.5,1.5 	"/>
	<polygon fill="none" stroke="#ECECEC" stroke-miterlimit="10" points="-4.5,-7.5 -7.5,-7.5 -7.5,-4.5 -4.5,-4.5 	"/>
	<polygon fill="none" stroke="#ECECEC" stroke-miterlimit="10" points="1.5,-7.5 -1.5,-7.5 -1.5,-4.5 1.5,-4.5 	"/>
	<polygon fill="none" stroke="#ECECEC" stroke-miterlimit="10" points="7.5,-7.5 4.5,-7.5 4.5,-4.5 7.5,-4.5 	"/>
	<polygon display="none" fill="none" points="-11,11 11,11 11,-11 -11,-11 	"/>
</symbol>
<g id="Background">
</g>
<g id="grid">
</g>
<g id="_x31_st_ime_UX">
</g>
<g id="profile_pics">
	<g>
		<path fill="#FFFFFF" d="M22.3,29.6c-5.1,0-9.4,3.8-9.9,8.8c0,0.2,0,0.4,0.2,0.6c0.2,0.2,0.4,0.3,0.7,0.3h18c0.3,0,0.6-0.1,0.7-0.3
			c0.1-0.2,0.2-0.4,0.2-0.6C31.7,33.4,27.4,29.6,22.3,29.6z M13.1,38.5c0.5-4.7,4.5-8.2,9.2-8.2c4.8,0,8.7,3.5,9.2,8.3
			c0,0-0.1,0.1-0.2,0.1h-18C13.2,38.6,13.1,38.6,13.1,38.5z"/>
		<path fill="#FFFFFF" d="M15.5,21.5c0,4,3.1,7.2,6.8,7.2h0.1c3.8,0,6.6-3.1,6.6-7.3l0.1-6c0-0.1,0-0.3,0-0.4c0-2,0-3.3-0.8-4.6
			c-0.7-1.1-2.9-3.2-5.3-3.2c-0.4,0-0.8,0.1-1.1,0.2c-0.9,0.3-1.4,0.4-1.7,0.4c-0.2,0-0.2,0-0.3-0.1c-0.2-0.1-0.5-0.3-1.2-0.3
			c-0.7,0-1,0.1-1,0.8c0,0.4,0,1-1.2,2.4c-0.9,1.1-0.9,2.5-0.9,4.2l0,0.4c0,0.1,0,0.2,0,0.4V21.5z M18.2,8.1c0.1,0,0.2,0,0.3,0
			c0.5,0,0.7,0.1,0.8,0.2c0.3,0.2,0.8,0.4,2.7-0.2c0.3-0.1,0.6-0.1,0.9-0.1c2,0,4.1,1.9,4.7,2.9c0.5,0.7,0.6,1.6,0.7,2.6
			c-0.3-0.8-0.8-1.7-1.6-2.6c-0.9-0.7-2.3-1.1-3.9-1.1c-2.1,0-4.1,0.6-5.1,1.3c-0.7,0.8-1,1.7-1.3,2.6c0,0.1-0.1,0.3-0.1,0.4
			c0-1.2,0.1-2.2,0.7-2.9C18.2,9.5,18.2,8.6,18.2,8.1C18.2,8.1,18.2,8.1,18.2,8.1z M16.2,21.5v-5.9c0.4-0.6,0.6-1.2,0.8-1.8
			c0.3-0.8,0.6-1.7,1.1-2.3c0.8-0.6,2.7-1.1,4.7-1.1c1,0,2.5,0.2,3.5,0.9c1.2,1.5,1.6,2.9,1.9,3.8c0.1,0.2,0.1,0.5,0.2,0.7l-0.1,5.7
			c0,3.8-2.5,6.6-5.9,6.6h-0.1C18.9,28,16.2,25.1,16.2,21.5z"/>
		<path fill="#FFFFFF" d="M25,24.1c0.1-0.2,0.1-0.4-0.1-0.6c-0.2-0.2-0.4-0.4-0.8-0.4h-3.6c-0.3,0-0.6,0.1-0.8,0.4
			c-0.1,0.2-0.2,0.4-0.1,0.6c0.3,0.6,1,1.6,2.6,1.6C24,25.7,24.7,24.7,25,24.1z M20.3,23.8c0,0,0.1-0.1,0.2-0.1h3.6
			c0.1,0,0.2,0,0.2,0c-0.2,0.6-0.8,1.2-2,1.2C21.1,25,20.6,24.4,20.3,23.8z"/>
	</g>
</g>
<g id="create-Viz">
</g>
<g id="graph">
</g>
<g id="data_panel">
</g>
<g id="archive_panel">
</g>
<g id="appearance-panel">
</g>
<g id="cursors">
</g>
</svg>
