<?xml version="1.0" encoding="utf-8"?>
<!-- Generator: Adobe Illustrator 18.1.1, SVG Export Plug-In . SVG Version: 6.00 Build 0)  -->
<svg version="1.1" xmlns="http://www.w3.org/2000/svg" xmlns:xlink="http://www.w3.org/1999/xlink" x="0px" y="0px"
	 viewBox="0 0 45 45" enable-background="new 0 0 45 45" xml:space="preserve">
<symbol  id="close" viewBox="-7 -6.7 14 13.4">
	<line fill="none" stroke="#FFFFFF" stroke-width="0.5" stroke-miterlimit="10" x1="6.5" y1="-6.5" x2="-6.5" y2="6.5"/>
	<line fill="none" stroke="#FFFFFF" stroke-width="0.5" stroke-miterlimit="10" x1="6.5" y1="6.5" x2="-6.5" y2="-6.5"/>
	<polygon display="none" fill="none" points="-7,6 7,6 7,-6 -7,-6 	"/>
</symbol>
<symbol  id="expand" viewBox="-11 -11 22 22">
	<polygon fill="none" stroke="#ECECEC" stroke-miterlimit="10" points="-10.5,10.5 10.5,10.5 10.5,-10.5 -10.5,-10.5 	"/>
	<polyline fill="none" stroke="#ECECEC" stroke-miterlimit="10" points="7.5,-4 7.5,-7.5 4,-7.5 	"/>
	<polyline fill="none" stroke="#ECECEC" stroke-miterlimit="10" points="-4,7.5 -7.5,7.5 -7.5,4 	"/>
	<polyline fill="none" stroke="#ECECEC" stroke-miterlimit="10" points="7.5,4 7.5,7.5 4,7.5 	"/>
	<polyline fill="none" stroke="#ECECEC" stroke-miterlimit="10" points="-4,-7.5 -7.5,-7.5 -7.5,-4 	"/>
	<line fill="none" stroke="#ECECEC" stroke-miterlimit="10" x1="7" y1="-7" x2="3" y2="-3"/>
	<line fill="none" stroke="#ECECEC" stroke-miterlimit="10" x1="-7" y1="7" x2="-3" y2="3"/>
	<line fill="none" stroke="#ECECEC" stroke-miterlimit="10" x1="7" y1="7" x2="3" y2="3"/>
	<line fill="none" stroke="#ECECEC" stroke-miterlimit="10" x1="-7" y1="-7" x2="-3" y2="-3"/>
	<polygon display="none" fill="none" points="-11,11 11,11 11,-11 -11,-11 	"/>
</symbol>
<symbol  id="save" viewBox="-11 -11 22 22">
	<polygon fill="none" stroke="#ECECEC" stroke-miterlimit="10" points="10.5,-10.5 -10.5,-10.5 -10.5,10.5 10.5,10.5 	"/>
	<polygon fill="none" stroke="#ECECEC" stroke-miterlimit="10" points="-3.5,5.5 -5.5,5.5 -5.5,-5.5 5.5,-5.5 5.5,3 3,5.5 1.5,5.5 
		1.5,2.5 -3.5,2.5 	"/>
	<line fill="none" stroke="#ECECEC" stroke-miterlimit="10" x1="-0.5" y1="6" x2="-0.5" y2="4"/>
	<polygon display="none" fill="none" points="-11,11 11,11 11,-11 -11,-11 	"/>
</symbol>
<symbol  id="share" viewBox="-11 -11 22 22">
	<polygon fill="none" stroke="#FFFFFF" stroke-miterlimit="10" points="10.5,-10.5 -10.5,-10.5 -10.5,10.5 10.5,10.5 	"/>
	<path fill="none" stroke="#FFFFFF" stroke-miterlimit="10" d="M-4.4,0c0-1-0.8-1.8-1.8-1.8S-8-1-8,0s0.8,1.8,1.8,1.8S-4.4,1-4.4,0z
		"/>
	<path fill="none" stroke="#FFFFFF" stroke-miterlimit="10" d="M7.6,6c0-1-0.8-1.8-1.8-1.8S4,5,4,6s0.8,1.8,1.8,1.8S7.6,7,7.6,6z"/>
	<path fill="none" stroke="#FFFFFF" stroke-miterlimit="10" d="M7.6-6c0-1-0.8-1.8-1.8-1.8S4-7,4-6s0.8,1.8,1.8,1.8S7.6-5,7.6-6z"/>
	<line fill="none" stroke="#FFFFFF" stroke-miterlimit="10" x1="4.3" y1="-5" x2="-4.7" y2="-0.9"/>
	<line fill="none" stroke="#FFFFFF" stroke-miterlimit="10" x1="-4.8" y1="1.1" x2="4.2" y2="5.2"/>
</symbol>
<symbol  id="view" viewBox="-11 -11 22 22">
	<polygon fill="none" stroke="#ECECEC" stroke-miterlimit="10" points="-10.5,10.5 10.5,10.5 10.5,-10.5 -10.5,-10.5 	"/>
	<polygon fill="none" stroke="#ECECEC" stroke-miterlimit="10" points="-4.5,4.5 -7.5,4.5 -7.5,7.5 -4.5,7.5 	"/>
	<polygon fill="none" stroke="#ECECEC" stroke-miterlimit="10" points="1.5,4.5 -1.5,4.5 -1.5,7.5 1.5,7.5 	"/>
	<polygon fill="none" stroke="#ECECEC" stroke-miterlimit="10" points="7.5,4.5 4.5,4.5 4.5,7.5 7.5,7.5 	"/>
	<polygon fill="none" stroke="#ECECEC" stroke-miterlimit="10" points="-4.5,-1.5 -7.5,-1.5 -7.5,1.5 -4.5,1.5 	"/>
	<polygon fill="none" stroke="#ECECEC" stroke-miterlimit="10" points="1.5,-1.5 -1.5,-1.5 -1.5,1.5 1.5,1.5 	"/>
	<polygon fill="none" stroke="#ECECEC" stroke-miterlimit="10" points="7.5,-1.5 4.5,-1.5 4.5,1.5 7.5,1.5 	"/>
	<polygon fill="none" stroke="#ECECEC" stroke-miterlimit="10" points="-4.5,-7.5 -7.5,-7.5 -7.5,-4.5 -4.5,-4.5 	"/>
	<polygon fill="none" stroke="#ECECEC" stroke-miterlimit="10" points="1.5,-7.5 -1.5,-7.5 -1.5,-4.5 1.5,-4.5 	"/>
	<polygon fill="none" stroke="#ECECEC" stroke-miterlimit="10" points="7.5,-7.5 4.5,-7.5 4.5,-4.5 7.5,-4.5 	"/>
	<polygon display="none" fill="none" points="-11,11 11,11 11,-11 -11,-11 	"/>
</symbol>
<g id="Background">
</g>
<g id="grid">
</g>
<g id="_x31_st_ime_UX">
</g>
<g id="profile_pics">
	<g>
		<path fill="#FFFFFF" d="M22.5,29.2c-5,0-9.4,4-9.9,9c0,0.3,0.1,0.6,0.3,0.8c0.2,0.2,0.4,0.3,0.6,0.3h18c0.2,0,0.5-0.1,0.6-0.3
			c0.2-0.2,0.3-0.5,0.3-0.8C31.9,33.2,27.5,29.2,22.5,29.2z M31.6,38.6c0,0-0.1,0.1-0.1,0.1h-18c0,0-0.1,0-0.1-0.1
			c-0.1-0.1-0.1-0.2-0.1-0.2c0.5-4.7,4.5-8.4,9.2-8.4c4.7,0,8.7,3.7,9.2,8.4C31.7,38.4,31.7,38.5,31.6,38.6z"/>
		<path fill="#FFFFFF" d="M16.2,21c0,4.1,2.9,7.4,6.4,7.5c0,0,0,0,0,0h0.1c0,0,0,0,0,0c3.7-0.1,6.5-3.2,6.5-7.4l0-4.3
			c0.1,0,0.1-0.1,0.1-0.2c0.5-1.6-0.1-5.8-1.8-6.6c-1.3-1.4-2.9-2.1-4.6-2.1c-1.8,0-3.9,0.8-5.7,2.3c-1.2,1-1.8,4.9-1,7.2V21z
			 M27.1,10.5c0,0,0.1,0.1,0.1,0.1c1,0.4,1.7,3.4,1.6,5.1c-0.5-0.8-1.1-2.3-1.5-3.9c0-0.1-0.1-0.2-0.2-0.2c-0.1,0-0.1,0-0.2,0
			c0,0-0.1,0-0.1,0c-0.4,0.1-0.8,0.3-1.1,0.6c-0.3,0.2-0.5,0.3-0.8,0.4c0.3-0.5,0.4-0.8,0.2-1c-0.1-0.2-0.4-0.3-0.7-0.2
			c-0.6,0.2-1,0.6-1.3,0.9c0,0-0.1,0.1-0.1,0.1c0.1-0.2,0.1-0.4,0-0.6c-0.1-0.1-0.2-0.3-0.7-0.2c-0.3,0.1-0.7,0.3-1.2,0.6
			c-1,0.6-2.4,1.5-4.1,1.5c-0.1,0-0.3,0.1-0.3,0.2c-0.1,0.3-0.2,0.5-0.3,0.7c0.1-1.6,0.5-3.2,1.1-3.7c1.7-1.4,3.6-2.2,5.3-2.2
			C24.5,8.6,25.9,9.2,27.1,10.5z M22.6,27.8c-3.2,0-5.7-3.1-5.7-6.8v-3.7c0.2-0.6,0.2-1.1,0.2-1.6c0-0.5,0-1,0.3-1.6
			c1.8-0.1,3.2-1,4.2-1.6c0.3-0.2,0.6-0.4,0.8-0.5c0,0.1-0.1,0.1-0.1,0.2c-0.1,0.2-0.1,0.3-0.2,0.5c0,0.1,0,0.2,0,0.3
			c0.1,0.1,0.2,0.2,0.3,0.1c0.6,0,0.9-0.4,1.3-0.7c0.2-0.2,0.4-0.4,0.7-0.5c-0.1,0.2-0.2,0.4-0.5,0.7c-0.1,0.1-0.1,0.2,0,0.4
			c0.1,0.1,0.2,0.2,0.3,0.2c0.8,0,1.4-0.4,1.9-0.7c0.2-0.1,0.4-0.3,0.6-0.3c0.3,1,1,3.3,1.8,4.2l0,4.6C28.5,24.9,26,27.8,22.6,27.8z
			"/>
		<path fill="#FFFFFF" d="M24.1,22.4h-3.3c-0.3,0-0.5,0.1-0.7,0.4c-0.2,0.2-0.2,0.5-0.1,0.8c0.4,1.1,1.3,1.8,2.4,1.8
			c1.1,0,2-0.6,2.4-1.8c0.1-0.2,0-0.5-0.1-0.7C24.6,22.5,24.4,22.4,24.1,22.4z M20.8,23.2c0,0,0-0.1,0-0.1c0,0,0.1-0.1,0.1-0.1h3.3
			c0,0,0.1,0,0.1,0.1c0,0,0,0.1,0,0.1c-0.2,0.6-0.7,1.3-1.7,1.3C21.5,24.6,21,23.8,20.8,23.2z"/>
	</g>
</g>
<g id="create-Viz">
</g>
<g id="graph">
</g>
<g id="data_panel">
</g>
<g id="archive_panel">
</g>
<g id="appearance-panel">
</g>
<g id="cursors">
</g>
</svg>
