<?xml version="1.0" encoding="utf-8"?>
<!-- Generator: Adobe Illustrator 18.1.1, SVG Export Plug-In . SVG Version: 6.00 Build 0)  -->
<svg version="1.1" id="Layer_1" xmlns="http://www.w3.org/2000/svg" xmlns:xlink="http://www.w3.org/1999/xlink" x="0px" y="0px"
	 viewBox="0 0 183 44" enable-background="new 0 0 183 44" xml:space="preserve">
<path fill="#F9F9F9" d="M97,28.7V27h1.7v1.7H97z"/>
<g>
	<path fill="#F9F9F9" d="M62.6,28.7h-1L56.4,13h1.2l4.5,13.7L66.6,13h1.2L62.6,28.7z"/>
	<path fill="#F9F9F9" d="M78.9,28.7l-1.4-3.9h-7.4l-1.4,3.9h-1.3L73.3,13h1l5.8,15.7H78.9z M73.9,14.5l-3.4,9.3H77L73.9,14.5z"/>
	<path fill="#F9F9F9" d="M92.4,28.7l-3.8-7.3h-4.3v7.4h-1.2V12.9h6c2.6,0,4.6,1.5,4.6,4.3c0,2.4-1.4,3.9-3.7,4.3l3.8,7.4L92.4,28.7
		L92.4,28.7z M89,13.9h-4.7v6.4H89c2,0,3.5-1,3.5-3.2C92.4,14.9,91,13.9,89,13.9z"/>
</g>
<g enable-background="new    ">
	<path fill="#ED893F" d="M105.2,28.8c-2.1,0-3.4-1.5-3.4-4s1.3-4,3.4-4c1.1,0,1.7,0.3,2.6,1.2l-0.6,0.5c-0.7-0.7-1.2-1-2-1
		c-0.9,0-1.6,0.3-2.1,1c-0.4,0.6-0.5,1.2-0.5,2.2c0,1,0.1,1.7,0.5,2.2c0.5,0.7,1.2,1,2.1,1c0.8,0,1.3-0.3,2-1l0.6,0.5
		C106.9,28.5,106.2,28.8,105.2,28.8z"/>
	<path fill="#ED893F" d="M114.6,28.7v-0.8c-0.7,0.7-1.3,0.9-2.4,0.9c-1.2,0-1.8-0.2-2.3-0.7c-0.4-0.4-0.6-0.9-0.6-1.5
		c0-1.4,1-2.2,2.7-2.2h2.5v-0.9c0-1.2-0.6-1.9-2.2-1.9c-1.1,0-1.6,0.3-2.1,1l-0.6-0.5c0.7-0.9,1.5-1.2,2.7-1.2c2.1,0,3,0.9,3,2.5
		v5.3H114.6z M114.6,25h-2.4c-1.3,0-2,0.5-2,1.6c0,1,0.6,1.5,2,1.5c0.7,0,1.4-0.1,1.9-0.6c0.3-0.3,0.4-0.8,0.4-1.5V25z"/>
	<path fill="#ED893F" d="M120.6,28.7c-1.2,0-1.9-0.9-1.9-2v-5.1h-1.1v-0.6h1.1v-2.5h0.8v2.5h1.8v0.6h-1.8v5.1c0,0.8,0.4,1.3,1.2,1.3
		h0.6v0.7H120.6z"/>
	<path fill="#ED893F" d="M128.2,28.7v-0.8c-0.7,0.7-1.3,0.9-2.4,0.9c-1.2,0-1.8-0.2-2.3-0.7c-0.4-0.4-0.6-0.9-0.6-1.5
		c0-1.4,1-2.2,2.7-2.2h2.5v-0.9c0-1.2-0.6-1.9-2.2-1.9c-1.1,0-1.6,0.3-2.1,1l-0.6-0.5c0.7-0.9,1.5-1.2,2.7-1.2c2.1,0,3,0.9,3,2.5
		v5.3H128.2z M128.2,25h-2.4c-1.3,0-2,0.5-2,1.6c0,1,0.6,1.5,2,1.5c0.7,0,1.4-0.1,1.9-0.6c0.3-0.3,0.4-0.8,0.4-1.5V25z"/>
	<path fill="#ED893F" d="M134,28.7c-1.3,0-1.9-0.8-1.9-2v-9.5h0.8v9.5c0,0.9,0.3,1.3,1.2,1.3h0.6v0.7H134z"/>
	<path fill="#ED893F" d="M141.4,27.9c-0.6,0.6-1.3,0.9-2.2,0.9c-0.9,0-1.6-0.3-2.2-0.9c-0.8-0.8-1-2-1-3.1c0-1.1,0.1-2.3,1-3.1
		c0.6-0.6,1.3-0.9,2.2-0.9c0.9,0,1.6,0.3,2.2,0.9c0.8,0.8,1,2,1,3.1C142.4,25.9,142.2,27.1,141.4,27.9z M140.9,22.2
		c-0.4-0.4-1-0.7-1.6-0.7s-1.2,0.2-1.6,0.7c-0.6,0.6-0.7,1.7-0.7,2.6s0,2,0.7,2.6c0.4,0.4,1,0.7,1.6,0.7s1.2-0.2,1.6-0.7
		c0.6-0.6,0.7-1.7,0.7-2.6S141.5,22.8,140.9,22.2z"/>
	<path fill="#ED893F" d="M147.5,32.5c-1.2,0-1.8-0.3-2.6-1l0.5-0.5c0.6,0.6,1,0.9,2,0.9c1.6,0,2.4-1.1,2.4-2.7v-1.4
		c-0.7,0.9-1.4,1.1-2.3,1.1c-0.8,0-1.5-0.3-1.9-0.7c-0.8-0.8-1-2.1-1-3.3s0.2-2.5,1-3.3c0.4-0.4,1.1-0.7,1.9-0.7
		c0.9,0,1.6,0.2,2.3,1.1v-1h0.8v8.2C150.6,31.1,149.5,32.5,147.5,32.5z M147.6,21.5c-1.9,0-2.2,1.6-2.2,3.3c0,1.6,0.3,3.3,2.2,3.3
		s2.2-1.6,2.2-3.3C149.8,23.2,149.5,21.5,147.6,21.5z"/>
	<path fill="#ED893F" d="M158.8,28.7v-0.9c-0.6,0.7-1.3,1-2.3,1c-0.9,0-1.5-0.2-2.1-0.7c-0.5-0.5-0.8-1.2-0.8-2.2v-5h0.8v4.8
		c0,1.5,0.7,2.3,2.1,2.3c1.4,0,2.2-0.8,2.2-2.3v-4.8h0.8v7.8H158.8z"/>
	<path fill="#ED893F" d="M163.2,25c0,2,0.9,3.1,2.5,3.1c0.9,0,1.5-0.3,2.1-0.9l0.6,0.5c-0.8,0.8-1.5,1.2-2.8,1.2
		c-2.1,0-3.3-1.4-3.3-4c0-2.5,1.2-4,3.1-4c2,0,3.1,1.4,3.1,3.8V25H163.2z M167.5,22.8c-0.3-0.8-1.1-1.3-2-1.3s-1.6,0.5-2,1.3
		c-0.2,0.5-0.2,0.7-0.3,1.5h4.6C167.7,23.6,167.7,23.3,167.5,22.8z"/>
</g>
<path fill="#FFFFFF" d="M48.9,27.2c-1.6,2.3-4,4-6.7,4.8c-0.2,0.1-0.4,0.3-0.3,0.5l0.5,2.1l0.4,2.1c0.1,0.3,0.3,0.4,0.6,0.3
	c4.1-1.2,7.6-3.7,10-7.2c0.1-0.2,0.1-0.5-0.1-0.6l-1.8-1.1L49.6,27C49.3,26.9,49,27,48.9,27.2L48.9,27.2z"/>
<path fill="#FFFFFF" d="M29.5,13.6c0.2,0.1,0.5,0.1,0.6-0.1c1.3-1.8,3.2-3.1,5.4-3.8c0.2-0.1,0.4-0.1,0.7-0.2c0.2,0,0.4-0.1,0.7-0.1
	c0.5-0.1,1-0.1,1.5-0.1c5.7,0,10.3,4.6,10.3,10.3c0,1.5-0.3,3-1,4.3c-0.1,0.2,0,0.5,0.2,0.6l1.9,1.1l1.8,1.1c0.2,0.1,0.5,0,0.6-0.2
	c1-2.1,1.6-4.4,1.6-6.9c0-8.6-6.9-15.5-15.5-15.5c-0.9,0-1.8,0.1-2.6,0.2c-0.2,0-0.4,0.1-0.7,0.1c-0.2,0-0.4,0.1-0.7,0.2
	c-3.6,0.9-6.7,3.1-8.8,6.1c-0.2,0.2-0.1,0.5,0.1,0.6l1.8,1.1L29.5,13.6L29.5,13.6z"/>
<circle opacity="0.62" fill="#ED893F" enable-background="new    " cx="29.3" cy="23.4" r="1.1"/>
<circle opacity="0.74" fill="#ED893F" enable-background="new    " cx="20.9" cy="24.5" r="1.3"/>
<circle opacity="0.95" fill="#ED893F" enable-background="new    " cx="21.1" cy="31.6" r="0.4"/>
<circle opacity="0.95" fill="#ED893F" enable-background="new    " cx="25.1" cy="33.5" r="1.2"/>
<circle opacity="0.81" fill="#ED893F" enable-background="new    " cx="17.9" cy="38.1" r="0.4"/>
<ellipse opacity="0.88" fill="#ED893F" enable-background="new    " cx="11.8" cy="32.3" rx="0" ry="0.1"/>
<circle opacity="0.69" fill="#ED893F" enable-background="new    " cx="16.6" cy="29.5" r="0.9"/>
<circle opacity="0.82" fill="#ED893F" enable-background="new    " cx="23.3" cy="29.5" r="0.9"/>
<circle opacity="0.57" fill="#ED893F" enable-background="new    " cx="28.8" cy="31.2" r="2.3"/>
<circle opacity="0.6" fill="#ED893F" enable-background="new    " cx="35.4" cy="34" r="1.1"/>
<circle opacity="0.64" fill="#ED893F" enable-background="new    " cx="27.5" cy="39.2" r="0.6"/>
<circle opacity="0.98" fill="#ED893F" enable-background="new    " cx="23.3" cy="38.6" r="1"/>
<circle opacity="0.52" fill="#ED893F" enable-background="new    " cx="39.2" cy="34.7" r="2"/>
<ellipse opacity="0.62" fill="#ED893F" enable-background="new    " cx="34.9" cy="29.5" rx="0" ry="0.2"/>
<circle opacity="0.85" fill="#ED893F" enable-background="new    " cx="23.8" cy="17.4" r="1.2"/>
<circle opacity="0.99" fill="#ED893F" enable-background="new    " cx="27.5" cy="15.5" r="0.6"/>
<circle opacity="0.97" fill="#ED893F" enable-background="new    " cx="26.8" cy="21.8" r="0.5"/>
<circle opacity="0.68" fill="#ED893F" enable-background="new    " cx="20.2" cy="20" r="1.2"/>
<circle opacity="0.78" fill="#ED893F" enable-background="new    " cx="18.4" cy="16.6" r="1.1"/>
<circle opacity="0.63" fill="#ED893F" enable-background="new    " cx="11.9" cy="25.4" r="3.1"/>
<circle opacity="0.72" fill="#ED893F" enable-background="new    " cx="14" cy="19.4" r="0.6"/>
<circle opacity="0.5" fill="#ED893F" enable-background="new    " cx="33.7" cy="30.9" r="0.9"/>
<circle opacity="0.69" fill="#ED893F" enable-background="new    " cx="27.9" cy="26.7" r="0.9"/>
<circle opacity="0.83" fill="#ED893F" enable-background="new    " cx="28.1" cy="19.5" r="1.5"/>
<circle opacity="0.53" fill="#ED893F" enable-background="new    " cx="38.7" cy="30.4" r="0.6"/>
<circle opacity="0.83" fill="#ED893F" enable-background="new    " cx="36.4" cy="29.9" r="0.6"/>
<circle opacity="0.82" fill="#ED893F" enable-background="new    " cx="33.3" cy="28.8" r="0.4"/>
<circle opacity="0.78" fill="#ED893F" enable-background="new    " cx="30.9" cy="27.4" r="0.9"/>
<circle opacity="0.88" fill="#ED893F" enable-background="new    " cx="29.6" cy="25.8" r="0.4"/>
<circle opacity="0.5" fill="#ED893F" enable-background="new    " cx="28.2" cy="23.6" r="0.7"/>
<circle opacity="0.56" fill="#ED893F" enable-background="new    " cx="25.8" cy="24.5" r="1.1"/>
<circle opacity="0.81" fill="#ED893F" enable-background="new    " cx="27.7" cy="16.6" r="0.8"/>
<circle opacity="0.68" fill="#ED893F" enable-background="new    " cx="27.9" cy="13.8" r="0.4"/>
<circle opacity="0.74" fill="#ED893F" enable-background="new    " cx="24.3" cy="14.2" r="1"/>
<circle opacity="0.82" fill="#ED893F" enable-background="new    " cx="23.7" cy="22.2" r="1.3"/>
<circle opacity="0.54" fill="#ED893F" enable-background="new    " cx="32.8" cy="37.4" r="1.9"/>
</svg>
